G04 Layer: TopSilkscreenLayer*
G04 EasyEDA v6.5.46, 2024-09-05 17:20:12*
G04 40de067d3049435e91e5d68b14a7b093,40d518a219da4ee2a43a6f8a03234e12,10*
G04 Gerber Generator version 0.2*
G04 Scale: 100 percent, Rotated: No, Reflected: No *
G04 Dimensions in millimeters *
G04 leading zeros omitted , absolute positions ,4 integer and 5 decimal *
%FSLAX45Y45*%
%MOMM*%

%ADD10C,0.1524*%
%ADD11C,0.2540*%

%LPD*%
G36*
X1918919Y-341985D02*
G01*
X1891080Y-343814D01*
X1884883Y-347116D01*
X1869389Y-349199D01*
X1857756Y-353618D01*
X1847545Y-353618D01*
X1841550Y-358190D01*
X1833168Y-358292D01*
X1816811Y-364591D01*
X1810613Y-367538D01*
X1796694Y-372465D01*
X1785874Y-375666D01*
X1778101Y-379679D01*
X1758035Y-389128D01*
X1727454Y-409651D01*
X1697685Y-430428D01*
X1678838Y-448309D01*
X1660855Y-461467D01*
X1620367Y-501802D01*
X1600555Y-525018D01*
X1594764Y-529082D01*
X1594764Y-533247D01*
X1590243Y-535025D01*
X1584706Y-545388D01*
X1577390Y-556920D01*
X1571548Y-560070D01*
X1571548Y-563727D01*
X1565300Y-570026D01*
X1556105Y-582117D01*
X1556105Y-585927D01*
X1550974Y-590194D01*
X1546707Y-600405D01*
X1542186Y-602183D01*
X1542186Y-606196D01*
X1525168Y-626922D01*
X1525168Y-632866D01*
X1517396Y-639622D01*
X1517396Y-646430D01*
X1512366Y-650646D01*
X1506982Y-663143D01*
X1501952Y-667359D01*
X1501952Y-673100D01*
X1495856Y-676351D01*
X1492656Y-688187D01*
X1486458Y-693826D01*
X1486458Y-700582D01*
X1478737Y-707847D01*
X1478737Y-714552D01*
X1471015Y-721817D01*
X1471015Y-727252D01*
X1463243Y-736447D01*
X1463243Y-741476D01*
X1455521Y-748182D01*
X1455521Y-758088D01*
X1448308Y-768756D01*
X1446225Y-779170D01*
X1440027Y-783488D01*
X1440027Y-788771D01*
X1432306Y-797763D01*
X1432306Y-801674D01*
X1424990Y-810463D01*
X1422654Y-818235D01*
X1417167Y-824433D01*
X1414881Y-835152D01*
X1409395Y-843026D01*
X1407515Y-854252D01*
X1401521Y-861212D01*
X1399489Y-874674D01*
X1393850Y-879754D01*
X1391869Y-891692D01*
X1385824Y-898652D01*
X1383944Y-910437D01*
X1376629Y-920445D01*
X1376629Y-925626D01*
X1370380Y-933551D01*
X1367790Y-947470D01*
X1361135Y-955903D01*
X1361135Y-965149D01*
X1353413Y-974344D01*
X1353413Y-981354D01*
X1345641Y-988618D01*
X1345641Y-997254D01*
X1337919Y-1008684D01*
X1337919Y-1016304D01*
X1332022Y-1023366D01*
X1426108Y-1023366D01*
X1426108Y-1016355D01*
X1430782Y-1012494D01*
X1430782Y-1008684D01*
X1440027Y-996950D01*
X1440027Y-988263D01*
X1446479Y-983742D01*
X1448765Y-966825D01*
X1455521Y-958189D01*
X1455521Y-953617D01*
X1463243Y-944422D01*
X1463243Y-939037D01*
X1471015Y-928522D01*
X1471015Y-917956D01*
X1478737Y-908710D01*
X1478737Y-899921D01*
X1486458Y-890676D01*
X1486458Y-885952D01*
X1494180Y-876706D01*
X1494180Y-871423D01*
X1501952Y-862177D01*
X1501952Y-851560D01*
X1509674Y-844803D01*
X1509674Y-835304D01*
X1517396Y-826262D01*
X1517396Y-821131D01*
X1525168Y-814374D01*
X1525168Y-807110D01*
X1532890Y-799846D01*
X1532890Y-791667D01*
X1540611Y-781151D01*
X1540611Y-774242D01*
X1547876Y-765505D01*
X1549958Y-757021D01*
X1556105Y-753719D01*
X1556105Y-749046D01*
X1563370Y-742238D01*
X1565452Y-730859D01*
X1569720Y-729234D01*
X1573479Y-717397D01*
X1578711Y-711200D01*
X1582369Y-702564D01*
X1587042Y-700786D01*
X1587042Y-695147D01*
X1594561Y-686155D01*
X1596847Y-677062D01*
X1602486Y-672998D01*
X1602486Y-667410D01*
X1611782Y-655675D01*
X1611833Y-652272D01*
X1623923Y-639216D01*
X1634998Y-622452D01*
X1634998Y-619048D01*
X1640992Y-614883D01*
X1644802Y-606501D01*
X1646783Y-606501D01*
X1665173Y-583031D01*
X1706880Y-537464D01*
X1719325Y-526999D01*
X1720900Y-523036D01*
X1756460Y-493928D01*
X1767281Y-485749D01*
X1817065Y-456387D01*
X1824532Y-454202D01*
X1843125Y-445617D01*
X1863801Y-438962D01*
X1869389Y-438861D01*
X1881784Y-432866D01*
X1891233Y-432765D01*
X1894179Y-429920D01*
X1901901Y-428498D01*
X1925116Y-428091D01*
X1935937Y-431393D01*
X1957628Y-435508D01*
X1973072Y-439166D01*
X1997811Y-447192D01*
X2014829Y-456031D01*
X2017217Y-456031D01*
X2031847Y-463245D01*
X2062835Y-479856D01*
X2088438Y-496620D01*
X2129231Y-535889D01*
X2164181Y-570992D01*
X2164181Y-572516D01*
X2188159Y-601776D01*
X2194661Y-610362D01*
X2196998Y-617778D01*
X2205228Y-630529D01*
X2216556Y-642924D01*
X2224481Y-653796D01*
X2229459Y-664667D01*
X2233777Y-667156D01*
X2233777Y-671220D01*
X2246884Y-687933D01*
X2250795Y-691997D01*
X2250795Y-695096D01*
X2258568Y-705256D01*
X2258568Y-711352D01*
X2266289Y-721868D01*
X2266289Y-724712D01*
X2274011Y-733907D01*
X2274011Y-740206D01*
X2281732Y-749452D01*
X2281732Y-754786D01*
X2289505Y-765302D01*
X2289505Y-769670D01*
X2295702Y-777544D01*
X2295702Y-786079D01*
X2290775Y-787958D01*
X2285288Y-787958D01*
X2270150Y-773226D01*
X2253132Y-759510D01*
X2242312Y-747979D01*
X2234590Y-738479D01*
X2209800Y-711454D01*
X2199030Y-701903D01*
X2188159Y-690930D01*
X2165553Y-665480D01*
X2153767Y-646023D01*
X2127097Y-632104D01*
X2094534Y-600659D01*
X2094534Y-597103D01*
X2089759Y-595274D01*
X2085543Y-587095D01*
X2053539Y-555904D01*
X2025700Y-532892D01*
X2024532Y-530199D01*
X2015236Y-521919D01*
X1991715Y-494030D01*
X1968195Y-470763D01*
X1966874Y-467614D01*
X1952955Y-456387D01*
X1943455Y-454355D01*
X1934413Y-457758D01*
X1922780Y-469036D01*
X1922780Y-482193D01*
X1939950Y-502462D01*
X1943760Y-504901D01*
X1960727Y-524764D01*
X1983892Y-543153D01*
X1995728Y-557631D01*
X2008682Y-572973D01*
X2107234Y-670864D01*
X2125726Y-689457D01*
X2168194Y-732891D01*
X2185060Y-747471D01*
X2219096Y-781710D01*
X2245258Y-807364D01*
X2257755Y-820978D01*
X2347976Y-911301D01*
X2361184Y-923645D01*
X2376119Y-941679D01*
X2376119Y-945743D01*
X2381961Y-950976D01*
X2383434Y-964031D01*
X2391613Y-976121D01*
X2391613Y-980897D01*
X2397912Y-987653D01*
X2399792Y-1014374D01*
X2395880Y-1019098D01*
X2387396Y-1019098D01*
X2373833Y-1008634D01*
X2362860Y-996594D01*
X2352141Y-986485D01*
X2347163Y-981100D01*
X2310892Y-945489D01*
X2288794Y-919073D01*
X2277872Y-907897D01*
X2251608Y-886917D01*
X2248865Y-882192D01*
X2219096Y-851306D01*
X2174240Y-806145D01*
X2149449Y-784301D01*
X2147316Y-778865D01*
X2141728Y-775868D01*
X2111756Y-745337D01*
X2098395Y-730808D01*
X2084476Y-713994D01*
X2073656Y-706526D01*
X2017826Y-650697D01*
X1996287Y-631139D01*
X1969211Y-605942D01*
X1969211Y-603097D01*
X1953869Y-588264D01*
X1941728Y-585216D01*
X1931314Y-589584D01*
X1922780Y-597763D01*
X1922830Y-613460D01*
X1931314Y-624078D01*
X1969973Y-663600D01*
X2005736Y-701903D01*
X2028799Y-721918D01*
X2055875Y-749604D01*
X2055875Y-751535D01*
X2079853Y-776630D01*
X2101494Y-795274D01*
X2124710Y-818997D01*
X2141728Y-838200D01*
X2160676Y-856996D01*
X2220620Y-914755D01*
X2231491Y-924610D01*
X2250795Y-943660D01*
X2250795Y-947166D01*
X2258568Y-953922D01*
X2258568Y-956614D01*
X2271471Y-965606D01*
X2280310Y-974445D01*
X2284831Y-983284D01*
X2284831Y-989330D01*
X2275027Y-992784D01*
X2254656Y-990803D01*
X2247849Y-986536D01*
X2239568Y-986536D01*
X2215794Y-978611D01*
X2192782Y-956462D01*
X2167382Y-935888D01*
X2141829Y-906627D01*
X2093772Y-858418D01*
X2078278Y-840841D01*
X2058365Y-824433D01*
X2031847Y-798068D01*
X2011781Y-776274D01*
X2000910Y-766826D01*
X1982571Y-746861D01*
X1971548Y-738073D01*
X1967992Y-731520D01*
X1962251Y-724103D01*
X1955647Y-716838D01*
X1942541Y-713282D01*
X1926031Y-720039D01*
X1923237Y-723595D01*
X1921510Y-732891D01*
X1923846Y-745794D01*
X1931314Y-755700D01*
X1958898Y-782523D01*
X1971548Y-796188D01*
X2030933Y-855471D01*
X2078482Y-903528D01*
X2100427Y-922172D01*
X2103069Y-927455D01*
X2125624Y-950620D01*
X2127402Y-961644D01*
X2119071Y-964793D01*
X2091334Y-964793D01*
X2080717Y-960374D01*
X2065934Y-958138D01*
X2055266Y-952449D01*
X2021179Y-919073D01*
X2011425Y-911199D01*
X1992426Y-889101D01*
X1992274Y-886460D01*
X1980387Y-877163D01*
X1968449Y-862076D01*
X1954225Y-847394D01*
X1942896Y-845566D01*
X1931314Y-847394D01*
X1922780Y-853338D01*
X1922780Y-876147D01*
X1929739Y-884732D01*
X1948484Y-903528D01*
X1970176Y-923696D01*
X1991004Y-946810D01*
X1990089Y-952957D01*
X1976323Y-957529D01*
X1949500Y-953973D01*
X1878685Y-954227D01*
X1860143Y-957122D01*
X1759559Y-959713D01*
X1750263Y-963574D01*
X1710029Y-965047D01*
X1696364Y-969467D01*
X1681937Y-969467D01*
X1657705Y-975664D01*
X1636928Y-975664D01*
X1624939Y-979881D01*
X1601724Y-982065D01*
X1588465Y-986536D01*
X1576984Y-986637D01*
X1569262Y-991057D01*
X1556308Y-991158D01*
X1547571Y-994613D01*
X1530553Y-998677D01*
X1516634Y-1002385D01*
X1477975Y-1014831D01*
X1475028Y-1017574D01*
X1470152Y-1017574D01*
X1458620Y-1023772D01*
X1451356Y-1023772D01*
X1441348Y-1028750D01*
X1430477Y-1027023D01*
X1426108Y-1023366D01*
X1332022Y-1023366D01*
X1330198Y-1025550D01*
X1330198Y-1034745D01*
X1322476Y-1049324D01*
X1322476Y-1058214D01*
X1314704Y-1067409D01*
X1314704Y-1074369D01*
X1306982Y-1084834D01*
X1306982Y-1095451D01*
X1299260Y-1104646D01*
X1299260Y-1105865D01*
X1611020Y-1105865D01*
X1623415Y-1095146D01*
X1631137Y-1093419D01*
X1645056Y-1089202D01*
X2194356Y-1089812D01*
X2212289Y-1094892D01*
X2219096Y-1099616D01*
X2226818Y-1105814D01*
X2226818Y-1130554D01*
X2220264Y-1137767D01*
X2218283Y-1160424D01*
X2212441Y-1168806D01*
X2210409Y-1198270D01*
X2204770Y-1207922D01*
X2202586Y-1226718D01*
X2196896Y-1231849D01*
X2194814Y-1247089D01*
X2189022Y-1254455D01*
X2186940Y-1267612D01*
X2181453Y-1272743D01*
X2179269Y-1288237D01*
X2173478Y-1294638D01*
X2170734Y-1309268D01*
X2165604Y-1315008D01*
X2163673Y-1326997D01*
X2156409Y-1335786D01*
X2156409Y-1342339D01*
X2150110Y-1349044D01*
X2147671Y-1364640D01*
X2140966Y-1373174D01*
X2140966Y-1377848D01*
X2123186Y-1398371D01*
X2114296Y-1404569D01*
X2089099Y-1423365D01*
X2061972Y-1440230D01*
X2055571Y-1443786D01*
X2052167Y-1447241D01*
X2047341Y-1447241D01*
X2039061Y-1451610D01*
X2028952Y-1453794D01*
X2010206Y-1462379D01*
X2002485Y-1464716D01*
X1996389Y-1468932D01*
X1989175Y-1468932D01*
X1980539Y-1473454D01*
X1964029Y-1475638D01*
X1956054Y-1479804D01*
X1946757Y-1479905D01*
X1939036Y-1484376D01*
X1903475Y-1484376D01*
X1895703Y-1479905D01*
X1887016Y-1479804D01*
X1880870Y-1476502D01*
X1860143Y-1472133D01*
X1841550Y-1467561D01*
X1821434Y-1460093D01*
X1795983Y-1450136D01*
X1794205Y-1447241D01*
X1787855Y-1447241D01*
X1762658Y-1432102D01*
X1751838Y-1426616D01*
X1720900Y-1404721D01*
X1696872Y-1380236D01*
X1696872Y-1375308D01*
X1690268Y-1368247D01*
X1687830Y-1352854D01*
X1681429Y-1346403D01*
X1681429Y-1337310D01*
X1674114Y-1328572D01*
X1672082Y-1317345D01*
X1665935Y-1311808D01*
X1665935Y-1301191D01*
X1658620Y-1291336D01*
X1656791Y-1279245D01*
X1650492Y-1272540D01*
X1650492Y-1261567D01*
X1643227Y-1247902D01*
X1641398Y-1230071D01*
X1635455Y-1221536D01*
X1633778Y-1202436D01*
X1627581Y-1193596D01*
X1625650Y-1175207D01*
X1619910Y-1165707D01*
X1617929Y-1143000D01*
X1611071Y-1133754D01*
X1611020Y-1105865D01*
X1299260Y-1105865D01*
X1299260Y-1113485D01*
X1291539Y-1122730D01*
X1291539Y-1131874D01*
X1283766Y-1140256D01*
X1283766Y-1153007D01*
X1275638Y-1166876D01*
X1277264Y-1188974D01*
X1283766Y-1201267D01*
X1283766Y-1213967D01*
X1291539Y-1224483D01*
X1291539Y-1232611D01*
X1299260Y-1239926D01*
X1299260Y-1246886D01*
X1306982Y-1256131D01*
X1306982Y-1261110D01*
X1314704Y-1267866D01*
X1314704Y-1272387D01*
X1321663Y-1279448D01*
X1330960Y-1292453D01*
X1341526Y-1302207D01*
X1359306Y-1320800D01*
X1377442Y-1342542D01*
X1399235Y-1362710D01*
X1415542Y-1376680D01*
X1417167Y-1389329D01*
X1407261Y-1400708D01*
X1386687Y-1410512D01*
X1344879Y-1440383D01*
X1325270Y-1452676D01*
X1300022Y-1471066D01*
X1248968Y-1505508D01*
X1208735Y-1533042D01*
X1181658Y-1553108D01*
X1181658Y-1555242D01*
X1156360Y-1580794D01*
X1150721Y-1583842D01*
X1150721Y-1589633D01*
X1146048Y-1591411D01*
X1142339Y-1600047D01*
X1135227Y-1608785D01*
X1135227Y-1614220D01*
X1127506Y-1621485D01*
X1127506Y-1627479D01*
X1119784Y-1636725D01*
X1119784Y-1643024D01*
X1112012Y-1652219D01*
X1112012Y-1659534D01*
X1104290Y-1668729D01*
X1104290Y-1678127D01*
X1096568Y-1687322D01*
X1096568Y-1695754D01*
X1088847Y-1704949D01*
X1088847Y-1716887D01*
X1087428Y-1718564D01*
X1268323Y-1718564D01*
X1268323Y-1692808D01*
X1274216Y-1687423D01*
X1275994Y-1680362D01*
X1288592Y-1671624D01*
X1781708Y-1671370D01*
X1784299Y-1668780D01*
X1827631Y-1671116D01*
X1986991Y-1670405D01*
X2549296Y-1671675D01*
X2561945Y-1680057D01*
X2564587Y-1687017D01*
X2569565Y-1691132D01*
X2569565Y-1721662D01*
X2563114Y-1738020D01*
X2561742Y-1918004D01*
X2558491Y-1967636D01*
X2555544Y-2026615D01*
X2552852Y-2201875D01*
X2548026Y-2226716D01*
X2544572Y-2411323D01*
X2541473Y-2429916D01*
X2539187Y-2449728D01*
X2541574Y-2467152D01*
X2538069Y-2478989D01*
X2532481Y-2481935D01*
X1302207Y-2481935D01*
X1291640Y-2473858D01*
X1290523Y-2284120D01*
X1285036Y-2267051D01*
X1282293Y-2060752D01*
X1279448Y-2037486D01*
X1276045Y-2020773D01*
X1275943Y-1828038D01*
X1272895Y-1798574D01*
X1268374Y-1744268D01*
X1268323Y-1718564D01*
X1087428Y-1718564D01*
X1081074Y-1726133D01*
X1081074Y-1735023D01*
X1073353Y-1749552D01*
X1073353Y-1760423D01*
X1065631Y-1768805D01*
X1065631Y-1772564D01*
X1059078Y-1780946D01*
X1056233Y-1793595D01*
X1050544Y-1801672D01*
X1049020Y-1816150D01*
X1042416Y-1825447D01*
X1042416Y-1834591D01*
X1034999Y-1845564D01*
X1032764Y-1855978D01*
X1027328Y-1862175D01*
X1025499Y-1878939D01*
X1019606Y-1885442D01*
X1017676Y-1900428D01*
X1011834Y-1907895D01*
X1009802Y-1921560D01*
X1003960Y-1926843D01*
X1001877Y-1938985D01*
X996187Y-1942084D01*
X994156Y-1956816D01*
X988009Y-1965553D01*
X986282Y-1983181D01*
X980490Y-1991461D01*
X978560Y-2001774D01*
X972972Y-2007971D01*
X969975Y-2021382D01*
X964590Y-2027326D01*
X963117Y-2043684D01*
X956818Y-2050592D01*
X954532Y-2079345D01*
X948791Y-2091740D01*
X948791Y-2177084D01*
X954582Y-2189480D01*
X957071Y-2215337D01*
X962304Y-2221179D01*
X965047Y-2235758D01*
X969467Y-2240686D01*
X974140Y-2254402D01*
X978966Y-2257094D01*
X978966Y-2264460D01*
X986485Y-2273452D01*
X988669Y-2282545D01*
X994206Y-2288743D01*
X996340Y-2297379D01*
X1002182Y-2300478D01*
X1002182Y-2304948D01*
X1011478Y-2315514D01*
X1011478Y-2318461D01*
X1019200Y-2325166D01*
X1019200Y-2329738D01*
X1025194Y-2332990D01*
X1027176Y-2339289D01*
X1033881Y-2346655D01*
X1043178Y-2359304D01*
X1073353Y-2390495D01*
X1073353Y-2400757D01*
X1066901Y-2406599D01*
X1035456Y-2406650D01*
X1009142Y-2405430D01*
X794054Y-2407107D01*
X779983Y-2413254D01*
X769315Y-2424379D01*
X761593Y-2433015D01*
X761593Y-2463190D01*
X768553Y-2468118D01*
X768553Y-2472334D01*
X780846Y-2482900D01*
X797153Y-2491943D01*
X1162710Y-2493518D01*
X1180388Y-2505710D01*
X1183386Y-2513584D01*
X1206398Y-2539746D01*
X1206398Y-2544064D01*
X1213256Y-2553360D01*
X1213737Y-2585059D01*
X1298752Y-2585059D01*
X1299260Y-2574899D01*
X1309319Y-2568752D01*
X1331518Y-2568752D01*
X1340256Y-2572105D01*
X2497582Y-2570530D01*
X2531719Y-2568295D01*
X2540000Y-2575712D01*
X2543657Y-2594356D01*
X2537764Y-2614523D01*
X2523896Y-2621737D01*
X2421788Y-2619502D01*
X1409903Y-2618130D01*
X1386687Y-2617825D01*
X1319834Y-2621737D01*
X1307744Y-2618435D01*
X1299464Y-2611424D01*
X1298752Y-2585059D01*
X1213737Y-2585059D01*
X1214932Y-2667254D01*
X1220114Y-2675026D01*
X1222197Y-2689453D01*
X1233474Y-2698496D01*
X1237488Y-2700883D01*
X1265986Y-2706827D01*
X2561539Y-2706979D01*
X2598115Y-2701696D01*
X2607462Y-2695498D01*
X2617520Y-2683205D01*
X2617520Y-2673807D01*
X2624480Y-2662580D01*
X2626004Y-2550820D01*
X2632964Y-2541981D01*
X2632964Y-2537866D01*
X2639923Y-2530348D01*
X2653893Y-2513787D01*
X2662377Y-2502103D01*
X2675534Y-2493518D01*
X3020568Y-2491892D01*
X3039110Y-2486304D01*
X3052267Y-2478633D01*
X3052267Y-2476093D01*
X3061563Y-2464409D01*
X3061563Y-2429256D01*
X3051505Y-2417521D01*
X3046882Y-2413558D01*
X3034487Y-2406751D01*
X2768346Y-2406446D01*
X2763164Y-2405888D01*
X2758287Y-2401011D01*
X2758287Y-2394153D01*
X2788462Y-2364181D01*
X2803956Y-2346452D01*
X2812440Y-2337155D01*
X2812440Y-2334056D01*
X2818638Y-2327554D01*
X2826410Y-2318867D01*
X2826410Y-2316327D01*
X2835656Y-2304643D01*
X2835656Y-2301595D01*
X2843428Y-2292400D01*
X2843428Y-2286914D01*
X2849118Y-2281732D01*
X2852674Y-2269845D01*
X2858871Y-2264257D01*
X2858871Y-2258618D01*
X2864916Y-2255367D01*
X2866948Y-2244750D01*
X2874365Y-2234641D01*
X2874365Y-2220163D01*
X2881325Y-2211273D01*
X2882950Y-2177084D01*
X2889808Y-2164689D01*
X2889808Y-2097836D01*
X2883357Y-2085543D01*
X2881071Y-2055317D01*
X2874365Y-2048103D01*
X2874365Y-2034184D01*
X2866644Y-2023668D01*
X2866644Y-2010562D01*
X2858871Y-2001316D01*
X2858871Y-1990750D01*
X2851150Y-1980234D01*
X2851150Y-1971751D01*
X2843885Y-1963013D01*
X2842006Y-1950923D01*
X2835656Y-1944217D01*
X2835656Y-1932990D01*
X2827934Y-1923796D01*
X2827934Y-1914347D01*
X2824632Y-1905660D01*
X2821432Y-1903679D01*
X2818688Y-1889099D01*
X2812796Y-1881632D01*
X2810764Y-1867966D01*
X2805074Y-1862785D01*
X2802991Y-1846072D01*
X2797251Y-1838756D01*
X2795016Y-1826514D01*
X2789326Y-1819198D01*
X2787243Y-1807870D01*
X2779979Y-1799132D01*
X2779979Y-1789938D01*
X2773781Y-1781505D01*
X2771089Y-1766671D01*
X2765806Y-1760829D01*
X2764078Y-1747367D01*
X2758033Y-1740712D01*
X2756357Y-1727250D01*
X2750566Y-1720850D01*
X2747873Y-1706168D01*
X2742590Y-1700326D01*
X2740812Y-1686915D01*
X2733548Y-1678127D01*
X2733548Y-1667764D01*
X2725826Y-1658518D01*
X2725826Y-1651660D01*
X2718104Y-1642465D01*
X2718104Y-1636166D01*
X2710332Y-1626920D01*
X2710332Y-1619656D01*
X2703271Y-1610868D01*
X2699562Y-1602333D01*
X2696819Y-1602333D01*
X2692908Y-1592935D01*
X2687116Y-1589836D01*
X2687116Y-1586585D01*
X2672740Y-1569669D01*
X2647848Y-1548841D01*
X2619806Y-1527302D01*
X2581148Y-1500886D01*
X2542489Y-1475282D01*
X2495499Y-1441805D01*
X2457348Y-1415694D01*
X2432608Y-1403350D01*
X2422855Y-1395933D01*
X2420874Y-1385163D01*
X2422855Y-1374648D01*
X2437180Y-1364335D01*
X2454706Y-1346758D01*
X2459329Y-1344066D01*
X2478227Y-1321308D01*
X2498191Y-1300480D01*
X2522728Y-1269644D01*
X2524760Y-1263040D01*
X2530856Y-1257503D01*
X2530856Y-1253490D01*
X2538577Y-1245108D01*
X2538577Y-1239723D01*
X2546350Y-1234643D01*
X2546350Y-1227124D01*
X2553614Y-1219250D01*
X2556256Y-1188974D01*
X2556256Y-1173429D01*
X2553614Y-1144727D01*
X2546350Y-1134821D01*
X2546350Y-1124610D01*
X2540050Y-1118260D01*
X2537358Y-1104036D01*
X2534412Y-1102106D01*
X2530856Y-1095298D01*
X2530856Y-1088339D01*
X2524556Y-1081582D01*
X2522016Y-1065530D01*
X2515412Y-1058468D01*
X2515412Y-1047648D01*
X2507640Y-1037132D01*
X2507640Y-1029004D01*
X2499918Y-1018489D01*
X2499918Y-1010412D01*
X2492197Y-999896D01*
X2492197Y-990041D01*
X2485491Y-981506D01*
X2483053Y-966317D01*
X2476703Y-958189D01*
X2476703Y-952093D01*
X2468981Y-942848D01*
X2468981Y-935736D01*
X2462428Y-927404D01*
X2459685Y-915162D01*
X2453487Y-908964D01*
X2453487Y-902919D01*
X2449931Y-894994D01*
X2447442Y-894994D01*
X2443886Y-881887D01*
X2438044Y-877773D01*
X2438044Y-870610D01*
X2430729Y-859840D01*
X2428697Y-848868D01*
X2422956Y-842264D01*
X2421077Y-830376D01*
X2414879Y-824788D01*
X2412898Y-814120D01*
X2408936Y-812546D01*
X2405024Y-802690D01*
X2399690Y-796493D01*
X2397455Y-785672D01*
X2391816Y-779424D01*
X2388768Y-766013D01*
X2384094Y-760831D01*
X2381859Y-751535D01*
X2374595Y-742746D01*
X2374595Y-737260D01*
X2368499Y-731723D01*
X2366416Y-725170D01*
X2359101Y-716381D01*
X2359101Y-712114D01*
X2351379Y-703783D01*
X2351379Y-696112D01*
X2343658Y-686917D01*
X2343658Y-682142D01*
X2335885Y-672947D01*
X2335885Y-667156D01*
X2329942Y-662990D01*
X2327910Y-654812D01*
X2322118Y-649528D01*
X2318664Y-639013D01*
X2312720Y-635863D01*
X2312720Y-629970D01*
X2304948Y-620776D01*
X2304948Y-616305D01*
X2297226Y-609041D01*
X2297226Y-603351D01*
X2289505Y-596595D01*
X2289505Y-592785D01*
X2283409Y-585520D01*
X2272487Y-571601D01*
X2266289Y-565251D01*
X2266289Y-561492D01*
X2258568Y-554736D01*
X2258568Y-550976D01*
X2250846Y-543661D01*
X2250795Y-540258D01*
X2226818Y-513638D01*
X2219960Y-504901D01*
X2203602Y-486765D01*
X2178862Y-462635D01*
X2157222Y-442569D01*
X2132431Y-424180D01*
X2092198Y-397560D01*
X2076754Y-388518D01*
X2050440Y-375716D01*
X2025700Y-364947D01*
X2014829Y-361137D01*
X1993188Y-354990D01*
X1975967Y-352501D01*
X1969973Y-349402D01*
X1951431Y-347116D01*
X1945233Y-343712D01*
G37*
G36*
X1932127Y-1154074D02*
G01*
X1924354Y-1169466D01*
X1924354Y-1184605D01*
X1929282Y-1199794D01*
X1930907Y-1264158D01*
X1940966Y-1270406D01*
X1964689Y-1270406D01*
X1976780Y-1264208D01*
X1979523Y-1259332D01*
X1976170Y-1239469D01*
X1970684Y-1235506D01*
X1968195Y-1219606D01*
X1961489Y-1211021D01*
X1961489Y-1199997D01*
X1955038Y-1193190D01*
X1952701Y-1175715D01*
X1945995Y-1169466D01*
X1945995Y-1165250D01*
X1934870Y-1154074D01*
G37*
G36*
X1939594Y-1796237D02*
G01*
X1881784Y-1796491D01*
X1870964Y-1800656D01*
X1861566Y-1800910D01*
X1843938Y-1807108D01*
X1837893Y-1807108D01*
X1836115Y-1809953D01*
X1826107Y-1812036D01*
X1793595Y-1824786D01*
X1768856Y-1841144D01*
X1756714Y-1852422D01*
X1737918Y-1868017D01*
X1735632Y-1871878D01*
X1711604Y-1896770D01*
X1704644Y-1906117D01*
X1704644Y-1909825D01*
X1696872Y-1919020D01*
X1696872Y-1923948D01*
X1689150Y-1934108D01*
X1689150Y-1939899D01*
X1681429Y-1950415D01*
X1681429Y-1963369D01*
X1674469Y-1972208D01*
X1672386Y-1997151D01*
X1665935Y-2009444D01*
X1665935Y-2073503D01*
X1673707Y-2097278D01*
X1673707Y-2107793D01*
X1735582Y-2107793D01*
X1735582Y-2058670D01*
X1745691Y-2049068D01*
X1756359Y-2043379D01*
X1765757Y-2045614D01*
X1771954Y-2048002D01*
X1785874Y-2053894D01*
X1794052Y-2058416D01*
X1805279Y-2058416D01*
X1816455Y-2063089D01*
X1842414Y-2066036D01*
X1845259Y-2067814D01*
X1881276Y-2070506D01*
X1888772Y-2077669D01*
X1937918Y-2077669D01*
X1949856Y-2069388D01*
X1969973Y-2064664D01*
X2000910Y-2064562D01*
X2019503Y-2059736D01*
X2037334Y-2057196D01*
X2041143Y-2054047D01*
X2053539Y-2051761D01*
X2059736Y-2047341D01*
X2082088Y-2048357D01*
X2086559Y-2054504D01*
X2088438Y-2074672D01*
X2085746Y-2109622D01*
X2079040Y-2116785D01*
X2079040Y-2123948D01*
X2069795Y-2134514D01*
X2069795Y-2137257D01*
X2054656Y-2148382D01*
X2041143Y-2153310D01*
X2013712Y-2159050D01*
X1994763Y-2154224D01*
X1972564Y-2147011D01*
X1963470Y-2142337D01*
X1953717Y-2131212D01*
X1953717Y-2124151D01*
X1945995Y-2113635D01*
X1945995Y-2101951D01*
X1939239Y-2095652D01*
X1937918Y-2077669D01*
X1888772Y-2077669D01*
X1890420Y-2079243D01*
X1892096Y-2086102D01*
X1884121Y-2097887D01*
X1884121Y-2106269D01*
X1876399Y-2115464D01*
X1876399Y-2120341D01*
X1857908Y-2142388D01*
X1850542Y-2148230D01*
X1836928Y-2153310D01*
X1816811Y-2156307D01*
X1787398Y-2154580D01*
X1770380Y-2147620D01*
X1759153Y-2140966D01*
X1743303Y-2121865D01*
X1743303Y-2117039D01*
X1735582Y-2107793D01*
X1673707Y-2107793D01*
X1673707Y-2115362D01*
X1679905Y-2123338D01*
X1682496Y-2137206D01*
X1689150Y-2145690D01*
X1689150Y-2152904D01*
X1695094Y-2156104D01*
X1698548Y-2166620D01*
X1704644Y-2172106D01*
X1704644Y-2176068D01*
X1712366Y-2185263D01*
X1712366Y-2188159D01*
X1720088Y-2195474D01*
X1720088Y-2209952D01*
X1705559Y-2226005D01*
X1701329Y-2237130D01*
X1860905Y-2237130D01*
X1860905Y-2230475D01*
X1867204Y-2218029D01*
X1869135Y-2197455D01*
X1879752Y-2187143D01*
X1896922Y-2187143D01*
X1907336Y-2193594D01*
X1907336Y-2198471D01*
X1928825Y-2198471D01*
X1932432Y-2190546D01*
X1939036Y-2187346D01*
X1954580Y-2187143D01*
X1961489Y-2191969D01*
X1961489Y-2197252D01*
X1969109Y-2209647D01*
X1969211Y-2246274D01*
X1959559Y-2255113D01*
X1950923Y-2256383D01*
X1939289Y-2249830D01*
X1933956Y-2228240D01*
X1930958Y-2220518D01*
X1928825Y-2198471D01*
X1907336Y-2198471D01*
X1907336Y-2221128D01*
X1899564Y-2235708D01*
X1899564Y-2244445D01*
X1892604Y-2250998D01*
X1882190Y-2255418D01*
X1875282Y-2255418D01*
X1863242Y-2247239D01*
X1860956Y-2243785D01*
X1860905Y-2237130D01*
X1701329Y-2237130D01*
X1699971Y-2240686D01*
X1699971Y-2248865D01*
X1704593Y-2257755D01*
X1704644Y-2268880D01*
X1710537Y-2274265D01*
X1713992Y-2282545D01*
X1723948Y-2288540D01*
X1739442Y-2294077D01*
X1758645Y-2294178D01*
X1774799Y-2290724D01*
X1792071Y-2294686D01*
X1797304Y-2297328D01*
X1800555Y-2308910D01*
X1800606Y-2335276D01*
X1805178Y-2350516D01*
X1805178Y-2365349D01*
X1808124Y-2373122D01*
X1818335Y-2375712D01*
X2015540Y-2374087D01*
X2024125Y-2365451D01*
X2024583Y-2307386D01*
X2024888Y-2300478D01*
X2033270Y-2294940D01*
X2087575Y-2293264D01*
X2106117Y-2286254D01*
X2116429Y-2277465D01*
X2119477Y-2264003D01*
X2124710Y-2258161D01*
X2124710Y-2232863D01*
X2117750Y-2225344D01*
X2117750Y-2220264D01*
X2110486Y-2213406D01*
X2106422Y-2201113D01*
X2110638Y-2188362D01*
X2117750Y-2185111D01*
X2117750Y-2181504D01*
X2125472Y-2174189D01*
X2125472Y-2168753D01*
X2133193Y-2159558D01*
X2133193Y-2151735D01*
X2140508Y-2142947D01*
X2142540Y-2131720D01*
X2148687Y-2126183D01*
X2148687Y-2108504D01*
X2156409Y-2093925D01*
X2156409Y-1995220D01*
X2149906Y-1986940D01*
X2147824Y-1962454D01*
X2142388Y-1956409D01*
X2140458Y-1944370D01*
X2133193Y-1935632D01*
X2133193Y-1929333D01*
X2125472Y-1920087D01*
X2125472Y-1914398D01*
X2117750Y-1905152D01*
X2117750Y-1902256D01*
X2110028Y-1894992D01*
X2110028Y-1891639D01*
X2089048Y-1869948D01*
X2061819Y-1845411D01*
X2050440Y-1836216D01*
X2038807Y-1828749D01*
X2018842Y-1817979D01*
X2015185Y-1817979D01*
X2002485Y-1812188D01*
X1991664Y-1808378D01*
X1979269Y-1805330D01*
X1973427Y-1802130D01*
X1948332Y-1799742D01*
G37*
G36*
X560628Y-3608781D02*
G01*
X559257Y-3608832D01*
X556920Y-3609492D01*
X555853Y-3610406D01*
X555599Y-3610406D01*
X554431Y-3611422D01*
X553212Y-3612032D01*
X553008Y-3612337D01*
X551535Y-3613048D01*
X551230Y-3613658D01*
X550113Y-3614165D01*
X549503Y-3614775D01*
X548030Y-3615283D01*
X547573Y-3615994D01*
X546608Y-3616451D01*
X545592Y-3617264D01*
X544830Y-3617468D01*
X543102Y-3618992D01*
X541020Y-3620058D01*
X540613Y-3620668D01*
X539242Y-3621379D01*
X538835Y-3621836D01*
X537362Y-3622598D01*
X537210Y-3622954D01*
X535736Y-3623767D01*
X535736Y-3624021D01*
X534162Y-3624783D01*
X533146Y-3625646D01*
X532841Y-3625646D01*
X531520Y-3626815D01*
X531114Y-3626815D01*
X528828Y-3628288D01*
X528421Y-3628847D01*
X523798Y-3631793D01*
X523392Y-3632352D01*
X521970Y-3632860D01*
X519379Y-3634994D01*
X518515Y-3635197D01*
X518115Y-3635552D01*
X539750Y-3635552D01*
X542086Y-3633825D01*
X542493Y-3633825D01*
X543610Y-3632860D01*
X544880Y-3632352D01*
X545439Y-3631742D01*
X546354Y-3631336D01*
X547166Y-3630320D01*
X547522Y-3630320D01*
X550214Y-3628288D01*
X551738Y-3627577D01*
X553567Y-3626104D01*
X554939Y-3625342D01*
X555294Y-3624783D01*
X558901Y-3622294D01*
X560527Y-3622141D01*
X561594Y-3622548D01*
X571449Y-3629863D01*
X572770Y-3630574D01*
X573379Y-3631234D01*
X574446Y-3631742D01*
X575056Y-3632403D01*
X577291Y-3633825D01*
X579424Y-3635552D01*
X578967Y-3636822D01*
X578205Y-3637229D01*
X575919Y-3637229D01*
X573684Y-3636822D01*
X550113Y-3637127D01*
X547674Y-3636467D01*
X545744Y-3636467D01*
X543864Y-3637229D01*
X540816Y-3637229D01*
X539953Y-3636365D01*
X539750Y-3635552D01*
X518058Y-3635603D01*
X517601Y-3636060D01*
X512978Y-3637076D01*
X481126Y-3637381D01*
X480059Y-3638550D01*
X478840Y-3638550D01*
X473354Y-3643680D01*
X473354Y-3644036D01*
X472287Y-3645611D01*
X471982Y-3647236D01*
X471017Y-3649421D01*
X470865Y-3666439D01*
X469544Y-3668725D01*
X468528Y-3669334D01*
X468223Y-3669842D01*
X466801Y-3670350D01*
X462838Y-3673500D01*
X461873Y-3673703D01*
X459587Y-3675837D01*
X458266Y-3676142D01*
X454659Y-3679190D01*
X453339Y-3679850D01*
X452983Y-3680358D01*
X452069Y-3680917D01*
X451307Y-3681729D01*
X448259Y-3683660D01*
X448259Y-3683914D01*
X447040Y-3684524D01*
X446735Y-3685133D01*
X442264Y-3687724D01*
X438658Y-3690874D01*
X436372Y-3693414D01*
X435914Y-3694531D01*
X435051Y-3695700D01*
X434467Y-3697579D01*
X450342Y-3697579D01*
X450850Y-3696411D01*
X453237Y-3694785D01*
X453694Y-3694785D01*
X454710Y-3693769D01*
X455980Y-3693414D01*
X456895Y-3692448D01*
X458114Y-3692144D01*
X458927Y-3691382D01*
X459790Y-3690975D01*
X460146Y-3690365D01*
X461568Y-3689705D01*
X469239Y-3684371D01*
X470306Y-3684371D01*
X470763Y-3684828D01*
X470966Y-3686200D01*
X470814Y-3712921D01*
X470357Y-3713683D01*
X468985Y-3713683D01*
X466801Y-3712159D01*
X461924Y-3707637D01*
X460959Y-3707129D01*
X457454Y-3704132D01*
X457200Y-3704132D01*
X453593Y-3700983D01*
X450545Y-3699001D01*
X450342Y-3697579D01*
X434467Y-3697579D01*
X433933Y-3699103D01*
X433875Y-3772611D01*
X445719Y-3772611D01*
X445719Y-3711752D01*
X446278Y-3711194D01*
X447497Y-3711194D01*
X456327Y-3718610D01*
X482244Y-3718610D01*
X482244Y-3715105D01*
X482904Y-3712718D01*
X482904Y-3650894D01*
X483412Y-3650030D01*
X484428Y-3649065D01*
X485901Y-3648659D01*
X631444Y-3648659D01*
X634034Y-3649573D01*
X635406Y-3653180D01*
X635340Y-3698951D01*
X646531Y-3698951D01*
X646531Y-3684574D01*
X647090Y-3683812D01*
X648411Y-3684015D01*
X649274Y-3684473D01*
X649884Y-3685133D01*
X651154Y-3685844D01*
X651154Y-3686098D01*
X652322Y-3686759D01*
X654558Y-3688638D01*
X655624Y-3689096D01*
X658012Y-3691128D01*
X660908Y-3692702D01*
X661416Y-3693464D01*
X662635Y-3693617D01*
X663752Y-3694633D01*
X665022Y-3695039D01*
X666902Y-3696512D01*
X667308Y-3697833D01*
X666851Y-3699103D01*
X664006Y-3700983D01*
X648766Y-3713530D01*
X647192Y-3713937D01*
X646582Y-3713378D01*
X646531Y-3698951D01*
X635340Y-3698951D01*
X635304Y-3723233D01*
X634492Y-3724706D01*
X634492Y-3725062D01*
X626313Y-3731564D01*
X623214Y-3734460D01*
X621995Y-3734917D01*
X620928Y-3735679D01*
X618337Y-3738118D01*
X606755Y-3747515D01*
X606348Y-3747515D01*
X601370Y-3751986D01*
X600151Y-3752342D01*
X595884Y-3756304D01*
X589483Y-3761536D01*
X588518Y-3761994D01*
X588518Y-3762248D01*
X587349Y-3763010D01*
X584047Y-3765956D01*
X582066Y-3767175D01*
X536397Y-3767023D01*
X534009Y-3766210D01*
X532790Y-3765092D01*
X532434Y-3765092D01*
X524154Y-3758184D01*
X523544Y-3757879D01*
X518566Y-3753358D01*
X518159Y-3753358D01*
X516940Y-3752342D01*
X515772Y-3752037D01*
X515213Y-3751173D01*
X502615Y-3740708D01*
X501548Y-3740302D01*
X495503Y-3734917D01*
X494334Y-3734409D01*
X490829Y-3731158D01*
X485393Y-3726992D01*
X483057Y-3724960D01*
X482244Y-3718610D01*
X456387Y-3718661D01*
X462889Y-3723894D01*
X463702Y-3724300D01*
X468680Y-3728313D01*
X471474Y-3730904D01*
X472592Y-3731564D01*
X472592Y-3731768D01*
X474878Y-3733342D01*
X478688Y-3736797D01*
X479856Y-3737254D01*
X486054Y-3742639D01*
X486816Y-3742994D01*
X493471Y-3748582D01*
X496062Y-3750411D01*
X501599Y-3755390D01*
X502716Y-3755847D01*
X507746Y-3760114D01*
X510540Y-3762197D01*
X515975Y-3766972D01*
X517448Y-3767734D01*
X522376Y-3772154D01*
X522528Y-3772712D01*
X595071Y-3772814D01*
X595833Y-3771239D01*
X596696Y-3770782D01*
X598779Y-3768851D01*
X599897Y-3768140D01*
X599897Y-3767937D01*
X610768Y-3759200D01*
X611022Y-3759200D01*
X613511Y-3756964D01*
X616356Y-3754882D01*
X621893Y-3749903D01*
X622960Y-3749548D01*
X629310Y-3744163D01*
X630377Y-3743502D01*
X630580Y-3743096D01*
X631952Y-3742334D01*
X631952Y-3742080D01*
X633069Y-3741369D01*
X636219Y-3738422D01*
X637743Y-3737711D01*
X637946Y-3737254D01*
X638911Y-3736746D01*
X642213Y-3733596D01*
X643229Y-3733139D01*
X650595Y-3727145D01*
X652018Y-3726230D01*
X665378Y-3715004D01*
X666445Y-3714496D01*
X670001Y-3711194D01*
X671271Y-3711194D01*
X671626Y-3711549D01*
X671626Y-3833164D01*
X671322Y-3833774D01*
X670306Y-3833368D01*
X667207Y-3831031D01*
X665988Y-3830421D01*
X665530Y-3829659D01*
X662838Y-3827272D01*
X661822Y-3826865D01*
X656539Y-3822395D01*
X652018Y-3818991D01*
X648360Y-3815740D01*
X647192Y-3815181D01*
X642467Y-3810914D01*
X640740Y-3809746D01*
X639927Y-3809542D01*
X635609Y-3805631D01*
X627837Y-3799433D01*
X626567Y-3798620D01*
X626364Y-3798265D01*
X625500Y-3797808D01*
X620725Y-3793490D01*
X619404Y-3793032D01*
X613511Y-3787851D01*
X612546Y-3787343D01*
X605282Y-3781450D01*
X604977Y-3781450D01*
X601370Y-3778097D01*
X599338Y-3776522D01*
X597357Y-3775303D01*
X597052Y-3774744D01*
X595934Y-3774135D01*
X595071Y-3772814D01*
X522456Y-3772814D01*
X522020Y-3773474D01*
X519785Y-3775608D01*
X519480Y-3775608D01*
X517855Y-3776878D01*
X517296Y-3777081D01*
X513994Y-3780180D01*
X513181Y-3780586D01*
X512876Y-3781145D01*
X508914Y-3783990D01*
X505104Y-3787343D01*
X504799Y-3787343D01*
X502716Y-3788816D01*
X497941Y-3793134D01*
X496773Y-3793337D01*
X492506Y-3797249D01*
X483362Y-3804716D01*
X481431Y-3806088D01*
X481126Y-3806088D01*
X476250Y-3810457D01*
X475081Y-3810914D01*
X465632Y-3818940D01*
X464870Y-3819296D01*
X461111Y-3822496D01*
X460857Y-3822496D01*
X450189Y-3831132D01*
X450189Y-3831386D01*
X446278Y-3833977D01*
X445770Y-3833469D01*
X445719Y-3772611D01*
X433875Y-3772611D01*
X433781Y-3836568D01*
X434085Y-3840581D01*
X434695Y-3841597D01*
X435051Y-3843477D01*
X435985Y-3845560D01*
X452018Y-3845560D01*
X452018Y-3845204D01*
X453237Y-3843629D01*
X458622Y-3839565D01*
X458622Y-3839311D01*
X464870Y-3834231D01*
X465480Y-3834028D01*
X471881Y-3828592D01*
X472846Y-3828135D01*
X476707Y-3824833D01*
X476961Y-3824833D01*
X482142Y-3820414D01*
X486867Y-3816858D01*
X490728Y-3813454D01*
X491693Y-3812946D01*
X496722Y-3808577D01*
X497890Y-3808120D01*
X510793Y-3797452D01*
X512775Y-3796233D01*
X512927Y-3795826D01*
X513791Y-3795369D01*
X517194Y-3792169D01*
X519226Y-3790848D01*
X519582Y-3790848D01*
X526186Y-3785158D01*
X526948Y-3784803D01*
X532942Y-3779418D01*
X537159Y-3778554D01*
X553567Y-3778300D01*
X581507Y-3778351D01*
X584098Y-3779265D01*
X586689Y-3781450D01*
X586943Y-3781450D01*
X593699Y-3787140D01*
X594410Y-3787495D01*
X597357Y-3790187D01*
X599490Y-3791610D01*
X603758Y-3795522D01*
X604113Y-3795522D01*
X612597Y-3802126D01*
X618185Y-3806951D01*
X619709Y-3807663D01*
X619912Y-3808120D01*
X620826Y-3808577D01*
X623214Y-3810914D01*
X623468Y-3810914D01*
X623874Y-3811676D01*
X625551Y-3812794D01*
X626668Y-3813251D01*
X632968Y-3818636D01*
X634034Y-3819245D01*
X639572Y-3824071D01*
X641197Y-3824986D01*
X645972Y-3829151D01*
X647039Y-3829710D01*
X651306Y-3833520D01*
X653389Y-3834892D01*
X658063Y-3838905D01*
X658368Y-3838905D01*
X664972Y-3844442D01*
X665581Y-3845204D01*
X665124Y-3846017D01*
X664159Y-3846931D01*
X453339Y-3846931D01*
X452018Y-3845560D01*
X435985Y-3845560D01*
X436270Y-3846677D01*
X438302Y-3849370D01*
X438505Y-3850081D01*
X442620Y-3854094D01*
X442976Y-3854094D01*
X443992Y-3855008D01*
X445414Y-3855567D01*
X446278Y-3856278D01*
X448005Y-3856736D01*
X449834Y-3857650D01*
X450900Y-3857650D01*
X452526Y-3858056D01*
X456539Y-3858260D01*
X456539Y-3858818D01*
X465988Y-3858818D01*
X465988Y-3858260D01*
X469798Y-3858056D01*
X526288Y-3858260D01*
X526288Y-3858818D01*
X532892Y-3858818D01*
X532892Y-3858260D01*
X544982Y-3858056D01*
X593140Y-3858260D01*
X593140Y-3858818D01*
X596900Y-3858818D01*
X596900Y-3858260D01*
X645972Y-3858056D01*
X654354Y-3858260D01*
X654354Y-3858818D01*
X663194Y-3858818D01*
X663194Y-3858209D01*
X668375Y-3857447D01*
X670052Y-3856634D01*
X671372Y-3856278D01*
X672338Y-3855465D01*
X673506Y-3855110D01*
X675894Y-3853078D01*
X678942Y-3850081D01*
X679297Y-3849014D01*
X679907Y-3848455D01*
X680466Y-3847439D01*
X681380Y-3846626D01*
X681583Y-3845458D01*
X682294Y-3844086D01*
X683514Y-3839514D01*
X683818Y-3833114D01*
X683717Y-3698798D01*
X682599Y-3695801D01*
X682599Y-3695344D01*
X681583Y-3694277D01*
X681024Y-3693312D01*
X680770Y-3693312D01*
X679907Y-3691788D01*
X677265Y-3689096D01*
X669594Y-3684066D01*
X667461Y-3682237D01*
X666445Y-3681679D01*
X662686Y-3678529D01*
X661568Y-3678224D01*
X659231Y-3676040D01*
X658520Y-3675837D01*
X657656Y-3675126D01*
X656640Y-3674719D01*
X654405Y-3672636D01*
X650748Y-3670147D01*
X650443Y-3670147D01*
X649274Y-3669233D01*
X648055Y-3668674D01*
X647547Y-3667810D01*
X646988Y-3667506D01*
X646582Y-3666845D01*
X646430Y-3649421D01*
X645769Y-3648201D01*
X645160Y-3645357D01*
X644245Y-3644137D01*
X644245Y-3643782D01*
X641197Y-3640734D01*
X638556Y-3638550D01*
X637387Y-3638550D01*
X636320Y-3637381D01*
X634187Y-3637381D01*
X631393Y-3636467D01*
X628142Y-3636975D01*
X607974Y-3636568D01*
X604875Y-3637076D01*
X602843Y-3636213D01*
X601421Y-3636213D01*
X599084Y-3634181D01*
X597509Y-3633368D01*
X597306Y-3632962D01*
X588873Y-3627170D01*
X587552Y-3626510D01*
X585012Y-3624478D01*
X584606Y-3624478D01*
X583742Y-3623564D01*
X581710Y-3622141D01*
X581304Y-3622141D01*
X580136Y-3621125D01*
X579170Y-3620668D01*
X578866Y-3620058D01*
X577494Y-3619500D01*
X576376Y-3618636D01*
X576021Y-3618636D01*
X575106Y-3617468D01*
X574294Y-3617264D01*
X572262Y-3615994D01*
X571957Y-3615385D01*
X570992Y-3614928D01*
X570077Y-3614115D01*
X568858Y-3613759D01*
X566623Y-3611778D01*
X565556Y-3611321D01*
X563168Y-3609492D01*
G37*
G36*
X568299Y-3672027D02*
G01*
X568096Y-3672230D01*
X559257Y-3672484D01*
X558241Y-3672840D01*
X557225Y-3673500D01*
X553008Y-3673703D01*
X551281Y-3674770D01*
X549554Y-3674872D01*
X548589Y-3675887D01*
X546608Y-3676192D01*
X545439Y-3677056D01*
X543763Y-3677513D01*
X541578Y-3679037D01*
X540054Y-3679698D01*
X539292Y-3680612D01*
X536956Y-3681882D01*
X534162Y-3684219D01*
X529894Y-3688334D01*
X529894Y-3688587D01*
X526440Y-3692956D01*
X525932Y-3693972D01*
X525221Y-3694785D01*
X524916Y-3695903D01*
X524205Y-3696766D01*
X523595Y-3698341D01*
X522935Y-3699001D01*
X522478Y-3700678D01*
X521766Y-3701897D01*
X521309Y-3704031D01*
X520700Y-3704844D01*
X520395Y-3706114D01*
X520141Y-3709720D01*
X519531Y-3710533D01*
X519226Y-3711701D01*
X519023Y-3719322D01*
X519328Y-3723030D01*
X520141Y-3724401D01*
X520395Y-3727043D01*
X520750Y-3728110D01*
X521309Y-3728770D01*
X521766Y-3730345D01*
X522376Y-3731006D01*
X522935Y-3732174D01*
X523443Y-3732580D01*
X523849Y-3733393D01*
X525068Y-3734815D01*
X525068Y-3735120D01*
X528167Y-3738168D01*
X530707Y-3739642D01*
X531368Y-3740302D01*
X532993Y-3740759D01*
X533400Y-3741216D01*
X534212Y-3741623D01*
X536143Y-3741928D01*
X539496Y-3742893D01*
X543255Y-3743553D01*
X547522Y-3744010D01*
X552805Y-3743858D01*
X555802Y-3743401D01*
X557479Y-3743401D01*
X558952Y-3742944D01*
X560781Y-3742690D01*
X562152Y-3742080D01*
X565912Y-3741521D01*
X567537Y-3740759D01*
X569620Y-3740150D01*
X570128Y-3739591D01*
X571804Y-3739286D01*
X572719Y-3738524D01*
X574243Y-3737965D01*
X575767Y-3736949D01*
X576072Y-3736949D01*
X579323Y-3734308D01*
X580085Y-3732733D01*
X579780Y-3730345D01*
X578713Y-3729888D01*
X578154Y-3730091D01*
X577494Y-3730955D01*
X576275Y-3731107D01*
X574954Y-3732276D01*
X573735Y-3732276D01*
X572668Y-3733444D01*
X571195Y-3733444D01*
X570077Y-3733901D01*
X569417Y-3734460D01*
X567690Y-3734917D01*
X566724Y-3735730D01*
X562660Y-3735882D01*
X560628Y-3736949D01*
X553161Y-3737254D01*
X546049Y-3736949D01*
X544068Y-3735933D01*
X541223Y-3735476D01*
X540512Y-3734765D01*
X539343Y-3734460D01*
X536041Y-3731768D01*
X533603Y-3729380D01*
X533298Y-3728110D01*
X532333Y-3727196D01*
X532130Y-3725722D01*
X531215Y-3724452D01*
X531063Y-3723233D01*
X531164Y-3712819D01*
X532028Y-3711600D01*
X532384Y-3708654D01*
X533501Y-3706977D01*
X533755Y-3704691D01*
X534670Y-3703726D01*
X534873Y-3702405D01*
X535838Y-3701389D01*
X536041Y-3700170D01*
X538124Y-3697732D01*
X538530Y-3696715D01*
X543407Y-3691839D01*
X546912Y-3689045D01*
X551484Y-3686556D01*
X554126Y-3685387D01*
X555294Y-3685133D01*
X556158Y-3684524D01*
X559409Y-3683609D01*
X562559Y-3683050D01*
X563829Y-3683050D01*
X566775Y-3682288D01*
X570382Y-3682288D01*
X572414Y-3682898D01*
X575360Y-3683152D01*
X579729Y-3684524D01*
X580237Y-3685082D01*
X581558Y-3685692D01*
X585012Y-3689096D01*
X585012Y-3689350D01*
X586282Y-3690670D01*
X586486Y-3693160D01*
X587502Y-3694176D01*
X587756Y-3698951D01*
X587502Y-3704996D01*
X586486Y-3706571D01*
X586282Y-3709009D01*
X585216Y-3710482D01*
X585012Y-3711905D01*
X584149Y-3712514D01*
X583641Y-3714038D01*
X578510Y-3719525D01*
X573938Y-3722725D01*
X572617Y-3722928D01*
X572008Y-3722624D01*
X570890Y-3721150D01*
X571804Y-3719576D01*
X572109Y-3717696D01*
X573024Y-3716477D01*
X573379Y-3714038D01*
X574192Y-3713226D01*
X574700Y-3710686D01*
X575462Y-3709619D01*
X576021Y-3707079D01*
X576478Y-3706723D01*
X577037Y-3704894D01*
X577799Y-3703472D01*
X578154Y-3701846D01*
X578866Y-3700830D01*
X579526Y-3698646D01*
X580186Y-3697325D01*
X580542Y-3695750D01*
X581406Y-3694277D01*
X582320Y-3691839D01*
X581355Y-3691178D01*
X577138Y-3691026D01*
X575360Y-3690162D01*
X572465Y-3690061D01*
X571144Y-3691178D01*
X569112Y-3691178D01*
X568096Y-3690213D01*
X566775Y-3689959D01*
X561187Y-3689756D01*
X556158Y-3690213D01*
X554075Y-3691432D01*
X553466Y-3692245D01*
X552043Y-3692448D01*
X549757Y-3694633D01*
X548487Y-3695039D01*
X544322Y-3700170D01*
X542696Y-3702507D01*
X540867Y-3705809D01*
X540410Y-3707485D01*
X539800Y-3708196D01*
X539343Y-3711041D01*
X538734Y-3712006D01*
X538327Y-3714038D01*
X538156Y-3718915D01*
X550316Y-3718915D01*
X550316Y-3712768D01*
X551281Y-3711854D01*
X551535Y-3709263D01*
X552551Y-3708146D01*
X553008Y-3706012D01*
X553923Y-3704996D01*
X553923Y-3704640D01*
X555142Y-3702913D01*
X555142Y-3702507D01*
X559308Y-3698443D01*
X560578Y-3698240D01*
X561644Y-3697274D01*
X562406Y-3697122D01*
X566369Y-3697173D01*
X567080Y-3697833D01*
X567080Y-3701897D01*
X565962Y-3703421D01*
X565759Y-3704945D01*
X565099Y-3705961D01*
X564438Y-3708857D01*
X563727Y-3709924D01*
X563067Y-3712514D01*
X562406Y-3713886D01*
X562203Y-3714902D01*
X560476Y-3717848D01*
X558342Y-3720388D01*
X554482Y-3721252D01*
X552043Y-3720693D01*
X550316Y-3718915D01*
X538156Y-3718915D01*
X538429Y-3723233D01*
X539343Y-3724452D01*
X539699Y-3725976D01*
X542188Y-3728415D01*
X544525Y-3729736D01*
X547370Y-3730244D01*
X548487Y-3731006D01*
X550926Y-3730853D01*
X552043Y-3730040D01*
X555853Y-3729685D01*
X556869Y-3728770D01*
X558241Y-3728567D01*
X558800Y-3727958D01*
X560019Y-3727246D01*
X561848Y-3725418D01*
X563067Y-3725062D01*
X563880Y-3725570D01*
X564438Y-3726637D01*
X564896Y-3728313D01*
X566572Y-3729685D01*
X572312Y-3729685D01*
X573481Y-3728923D01*
X576224Y-3728465D01*
X576986Y-3727754D01*
X578916Y-3726891D01*
X584504Y-3722827D01*
X587044Y-3720439D01*
X588568Y-3718712D01*
X589076Y-3717594D01*
X591007Y-3715613D01*
X593902Y-3710381D01*
X594614Y-3709568D01*
X595020Y-3708044D01*
X597052Y-3703015D01*
X597357Y-3700932D01*
X597966Y-3699662D01*
X598424Y-3696004D01*
X598424Y-3692601D01*
X597966Y-3689451D01*
X597509Y-3688740D01*
X596900Y-3686098D01*
X596341Y-3685336D01*
X595680Y-3683508D01*
X595223Y-3683152D01*
X594461Y-3681933D01*
X588264Y-3676192D01*
X586841Y-3675989D01*
X585825Y-3674872D01*
X584606Y-3674872D01*
X583234Y-3673703D01*
X579323Y-3673449D01*
X578612Y-3672789D01*
X577596Y-3672484D01*
G37*
G36*
X485140Y-3951732D02*
G01*
X483311Y-3951986D01*
X479602Y-3951986D01*
X477977Y-3952798D01*
X472236Y-3953764D01*
X471373Y-3954475D01*
X470662Y-3954475D01*
X468477Y-3955287D01*
X467868Y-3955287D01*
X467309Y-3955897D01*
X466293Y-3956151D01*
X463956Y-3957218D01*
X463702Y-3957574D01*
X462381Y-3957929D01*
X458266Y-3960266D01*
X455726Y-3962095D01*
X453288Y-3964279D01*
X452323Y-3964889D01*
X446887Y-3970426D01*
X443382Y-3974795D01*
X440029Y-3980281D01*
X437540Y-3985514D01*
X436524Y-3989171D01*
X435864Y-3989984D01*
X435051Y-3994200D01*
X434797Y-3996893D01*
X434187Y-3997553D01*
X433933Y-4007154D01*
X433832Y-4148328D01*
X433962Y-4151629D01*
X442366Y-4151629D01*
X442366Y-4003344D01*
X442772Y-4002074D01*
X443382Y-3995470D01*
X443788Y-3994708D01*
X444042Y-3992778D01*
X444550Y-3992219D01*
X444754Y-3991051D01*
X446582Y-3986326D01*
X448005Y-3983888D01*
X448005Y-3983482D01*
X448564Y-3983075D01*
X449783Y-3980637D01*
X452831Y-3976674D01*
X457098Y-3972255D01*
X461670Y-3968546D01*
X467207Y-3965092D01*
X467766Y-3965092D01*
X468884Y-3964330D01*
X469950Y-3964127D01*
X473151Y-3962654D01*
X474624Y-3962450D01*
X475437Y-3961841D01*
X477113Y-3961841D01*
X478078Y-3961333D01*
X483209Y-3960723D01*
X484936Y-3960215D01*
X633222Y-3960266D01*
X635000Y-3960825D01*
X639267Y-3961231D01*
X640181Y-3961688D01*
X641756Y-3961841D01*
X642569Y-3962450D01*
X644296Y-3962704D01*
X645769Y-3963466D01*
X646176Y-3963466D01*
X647801Y-3964279D01*
X648258Y-3964279D01*
X653338Y-3967022D01*
X660247Y-3972306D01*
X664514Y-3976725D01*
X665226Y-3978046D01*
X665835Y-3978351D01*
X669798Y-3984345D01*
X670814Y-3986834D01*
X670814Y-3987342D01*
X671626Y-3988460D01*
X671626Y-3988866D01*
X672439Y-3990797D01*
X672439Y-3991559D01*
X673150Y-3992879D01*
X673455Y-3994353D01*
X673862Y-3994861D01*
X674928Y-4001871D01*
X674928Y-4150969D01*
X674420Y-4153255D01*
X673912Y-4158030D01*
X673252Y-4159351D01*
X673252Y-4160520D01*
X672693Y-4161282D01*
X672236Y-4163263D01*
X671626Y-4164634D01*
X671626Y-4165295D01*
X671017Y-4165955D01*
X670001Y-4168241D01*
X670001Y-4168648D01*
X666800Y-4173677D01*
X665022Y-4176014D01*
X661619Y-4179874D01*
X657504Y-4183532D01*
X650748Y-4187850D01*
X648766Y-4188714D01*
X648258Y-4188714D01*
X647547Y-4189526D01*
X646226Y-4189729D01*
X645007Y-4190390D01*
X644144Y-4190390D01*
X643331Y-4191050D01*
X640283Y-4191508D01*
X639622Y-4191863D01*
X637540Y-4192168D01*
X636676Y-4192727D01*
X628446Y-4192981D01*
X486765Y-4192981D01*
X481126Y-4192727D01*
X480212Y-4192117D01*
X477926Y-4191965D01*
X476504Y-4191457D01*
X474014Y-4191050D01*
X473456Y-4190492D01*
X469900Y-4189323D01*
X469087Y-4188714D01*
X466547Y-4187748D01*
X466343Y-4187444D01*
X463600Y-4186072D01*
X463245Y-4185462D01*
X462838Y-4185462D01*
X459536Y-4183126D01*
X454609Y-4178554D01*
X451459Y-4174998D01*
X448005Y-4169664D01*
X448005Y-4169308D01*
X447395Y-4168749D01*
X446989Y-4166971D01*
X445566Y-4164736D01*
X444754Y-4162247D01*
X444754Y-4161332D01*
X444042Y-4160367D01*
X443788Y-4158386D01*
X443433Y-4157979D01*
X442823Y-4152442D01*
X442366Y-4151629D01*
X433962Y-4151629D01*
X434187Y-4156049D01*
X434898Y-4157370D01*
X434898Y-4158894D01*
X435864Y-4163212D01*
X436422Y-4163822D01*
X436626Y-4165549D01*
X437184Y-4166362D01*
X437388Y-4167530D01*
X438200Y-4169003D01*
X438200Y-4169511D01*
X438810Y-4170324D01*
X439064Y-4171289D01*
X441655Y-4176014D01*
X444246Y-4179824D01*
X446582Y-4182770D01*
X450088Y-4186377D01*
X453542Y-4189476D01*
X457403Y-4192422D01*
X460298Y-4193946D01*
X460298Y-4194251D01*
X467614Y-4197756D01*
X468122Y-4197756D01*
X469646Y-4198569D01*
X470204Y-4198569D01*
X471373Y-4199178D01*
X473964Y-4199585D01*
X474522Y-4200042D01*
X476351Y-4200347D01*
X477266Y-4200804D01*
X484124Y-4201210D01*
X485597Y-4201566D01*
X631494Y-4201668D01*
X633374Y-4201210D01*
X640080Y-4200804D01*
X641654Y-4200194D01*
X642670Y-4200194D01*
X643991Y-4199534D01*
X646176Y-4199178D01*
X651256Y-4196943D01*
X651764Y-4196943D01*
X652322Y-4196283D01*
X653796Y-4195927D01*
X662940Y-4189984D01*
X667308Y-4186123D01*
X670610Y-4182668D01*
X672439Y-4180433D01*
X672693Y-4179874D01*
X672947Y-4179874D01*
X675233Y-4176471D01*
X675589Y-4176268D01*
X676960Y-4173372D01*
X677976Y-4171899D01*
X679196Y-4169105D01*
X679653Y-4168698D01*
X679653Y-4168241D01*
X680669Y-4165295D01*
X680669Y-4164533D01*
X681329Y-4163669D01*
X681583Y-4161942D01*
X681837Y-4161536D01*
X682498Y-4157268D01*
X683107Y-4156049D01*
X683107Y-4153204D01*
X683768Y-4149902D01*
X683768Y-4003192D01*
X683107Y-4000144D01*
X683107Y-3997553D01*
X682599Y-3996537D01*
X681939Y-3992168D01*
X681482Y-3991000D01*
X681482Y-3990035D01*
X680770Y-3989222D01*
X679653Y-3985056D01*
X678992Y-3984244D01*
X677875Y-3981500D01*
X677570Y-3981348D01*
X677316Y-3980332D01*
X674116Y-3975150D01*
X669086Y-3968953D01*
X665988Y-3965701D01*
X661822Y-3962298D01*
X659739Y-3961028D01*
X659282Y-3960520D01*
X657047Y-3959250D01*
X656488Y-3958742D01*
X654507Y-3957726D01*
X654050Y-3957726D01*
X653186Y-3956964D01*
X650595Y-3956050D01*
X649325Y-3955287D01*
X648716Y-3955287D01*
X646582Y-3954475D01*
X645820Y-3954475D01*
X644956Y-3953814D01*
X638911Y-3952748D01*
X637946Y-3952087D01*
X634034Y-3951833D01*
G37*
G36*
X489559Y-3989527D02*
G01*
X487375Y-3989781D01*
X486206Y-3990492D01*
X485140Y-3990492D01*
X484124Y-3991101D01*
X482803Y-3991508D01*
X479704Y-3993591D01*
X477723Y-3995216D01*
X474827Y-3998620D01*
X473201Y-4001414D01*
X471779Y-4005732D01*
X471779Y-4007154D01*
X471068Y-4008272D01*
X471119Y-4012641D01*
X471779Y-4013911D01*
X471779Y-4015435D01*
X472236Y-4016349D01*
X472795Y-4018787D01*
X473405Y-4019804D01*
X473405Y-4020413D01*
X474116Y-4021074D01*
X475132Y-4022851D01*
X479551Y-4027373D01*
X479907Y-4027373D01*
X480517Y-4028033D01*
X481177Y-4028236D01*
X482447Y-4029100D01*
X485292Y-4030472D01*
X487883Y-4030827D01*
X488746Y-4031386D01*
X495503Y-4031487D01*
X496925Y-4030827D01*
X499211Y-4030522D01*
X500938Y-4029811D01*
X501954Y-4028998D01*
X502513Y-4028998D01*
X506171Y-4026408D01*
X509371Y-4022851D01*
X511048Y-4020413D01*
X511911Y-4018279D01*
X512114Y-4017111D01*
X512622Y-4016552D01*
X512826Y-4014419D01*
X513384Y-4013809D01*
X513384Y-4007307D01*
X512826Y-4006748D01*
X512622Y-4004614D01*
X512114Y-4004005D01*
X511759Y-4002278D01*
X510895Y-4000449D01*
X510285Y-3999992D01*
X510285Y-3999484D01*
X509117Y-3997553D01*
X508000Y-3996639D01*
X507593Y-3995826D01*
X506425Y-3994708D01*
X505612Y-3994302D01*
X504139Y-3992930D01*
X502310Y-3991965D01*
X501853Y-3991508D01*
X498652Y-3990390D01*
X497433Y-3989628D01*
G37*
G36*
X596696Y-4044594D02*
G01*
X594410Y-4044848D01*
X592937Y-4045407D01*
X592429Y-4045407D01*
X591108Y-4046067D01*
X588822Y-4046372D01*
X587603Y-4047032D01*
X586841Y-4047032D01*
X586232Y-4047642D01*
X583285Y-4048810D01*
X582777Y-4049268D01*
X581964Y-4049522D01*
X579018Y-4051198D01*
X577494Y-4052570D01*
X576783Y-4052925D01*
X572770Y-4056786D01*
X570230Y-4060139D01*
X570026Y-4061307D01*
X568807Y-4062577D01*
X567944Y-4062577D01*
X567588Y-4061968D01*
X567588Y-4059885D01*
X568045Y-4057751D01*
X568299Y-4048404D01*
X566928Y-4047083D01*
X565404Y-4047134D01*
X564388Y-4047693D01*
X536194Y-4047693D01*
X534924Y-4047032D01*
X533400Y-4047388D01*
X533044Y-4048251D01*
X533146Y-4163517D01*
X533908Y-4164177D01*
X569010Y-4164076D01*
X569620Y-4162806D01*
X569214Y-4160977D01*
X569315Y-4102455D01*
X569976Y-4101185D01*
X570230Y-4095750D01*
X570585Y-4092803D01*
X570890Y-4091889D01*
X570890Y-4090974D01*
X571703Y-4089857D01*
X571703Y-4089044D01*
X572160Y-4088384D01*
X572719Y-4086504D01*
X573532Y-4084929D01*
X574141Y-4084269D01*
X574294Y-4083659D01*
X576529Y-4081322D01*
X579831Y-4078986D01*
X580186Y-4078986D01*
X581101Y-4078224D01*
X582574Y-4077970D01*
X583234Y-4077512D01*
X585063Y-4077157D01*
X585876Y-4076598D01*
X591261Y-4076395D01*
X595884Y-4076598D01*
X596798Y-4077309D01*
X597509Y-4077309D01*
X599948Y-4078224D01*
X600760Y-4078935D01*
X601624Y-4079138D01*
X604113Y-4081526D01*
X605891Y-4084015D01*
X606298Y-4085132D01*
X606907Y-4085691D01*
X607110Y-4086860D01*
X607517Y-4087571D01*
X607974Y-4089704D01*
X608584Y-4090924D01*
X608584Y-4092295D01*
X609244Y-4093819D01*
X609600Y-4099204D01*
X609701Y-4163060D01*
X610565Y-4164177D01*
X645210Y-4164177D01*
X646226Y-4163060D01*
X646176Y-4090517D01*
X645566Y-4089044D01*
X645312Y-4082796D01*
X645058Y-4082338D01*
X644499Y-4076547D01*
X643788Y-4075429D01*
X643788Y-4073651D01*
X643280Y-4072890D01*
X642670Y-4070197D01*
X641350Y-4067251D01*
X641350Y-4066692D01*
X640181Y-4063847D01*
X637082Y-4058920D01*
X634136Y-4055313D01*
X629412Y-4051096D01*
X628904Y-4051096D01*
X626668Y-4049471D01*
X626313Y-4049471D01*
X625246Y-4048658D01*
X624332Y-4048455D01*
X623925Y-4048048D01*
X622096Y-4047642D01*
X621538Y-4047134D01*
X620115Y-4046829D01*
X619607Y-4046423D01*
X616864Y-4046016D01*
X615645Y-4045407D01*
X614222Y-4045407D01*
X612241Y-4044696D01*
G37*
G36*
X475284Y-4047185D02*
G01*
X474218Y-4048099D01*
X474421Y-4163872D01*
X475234Y-4164177D01*
X509625Y-4164177D01*
X510285Y-4163517D01*
X510285Y-4048201D01*
X509727Y-4047693D01*
X477875Y-4047693D01*
X476707Y-4047185D01*
G37*
G36*
X5484418Y-519277D02*
G01*
X5441289Y-519633D01*
X5429910Y-521766D01*
X5292953Y-522173D01*
X5263743Y-524713D01*
X5062118Y-527354D01*
X4901082Y-529996D01*
X4714646Y-532536D01*
X4660138Y-535178D01*
X4538370Y-535381D01*
X4508042Y-539394D01*
X4358335Y-539546D01*
X4338015Y-542391D01*
X4159199Y-544576D01*
X3890060Y-547065D01*
X3886555Y-549402D01*
X3698849Y-551027D01*
X3691280Y-553872D01*
X3692550Y-554329D01*
X3783837Y-558342D01*
X4023512Y-560730D01*
X4075531Y-563270D01*
X4208881Y-563473D01*
X4234027Y-567486D01*
X4416653Y-567486D01*
X4444542Y-570382D01*
X4804714Y-575259D01*
X5021834Y-577850D01*
X5024526Y-579577D01*
X5215585Y-582574D01*
X5389321Y-584657D01*
X5404510Y-587349D01*
X5485942Y-587603D01*
X5498388Y-580694D01*
X5507736Y-571144D01*
X5509463Y-560120D01*
X5512714Y-553415D01*
X5509412Y-543356D01*
X5507786Y-532028D01*
X5498185Y-524814D01*
G37*
G36*
X4941112Y-639826D02*
G01*
X4803444Y-640283D01*
X4784394Y-642366D01*
X4609388Y-643940D01*
X4585309Y-646836D01*
X4220057Y-651510D01*
X4050131Y-654354D01*
X4005783Y-656132D01*
X3830777Y-658876D01*
X3640531Y-660908D01*
X3621532Y-663803D01*
X3402126Y-664057D01*
X3365347Y-666800D01*
X3167532Y-669137D01*
X3111246Y-671728D01*
X3106877Y-674319D01*
X3112465Y-677468D01*
X3380181Y-678637D01*
X3382721Y-680313D01*
X3657041Y-682802D01*
X3848506Y-685139D01*
X3873855Y-687933D01*
X3996893Y-688086D01*
X4020972Y-691997D01*
X4185818Y-692200D01*
X4211218Y-694944D01*
X4573016Y-699770D01*
X4576419Y-702005D01*
X4821174Y-704240D01*
X4937201Y-705662D01*
X4951120Y-698906D01*
X4960061Y-691743D01*
X4960061Y-685546D01*
X4966360Y-677621D01*
X4966360Y-666343D01*
X4960061Y-658368D01*
X4960061Y-654151D01*
X4951526Y-645464D01*
G37*
G36*
X5342382Y-729691D02*
G01*
X5192725Y-730046D01*
X5092547Y-732129D01*
X4344365Y-737260D01*
X4294886Y-740257D01*
X4175302Y-740003D01*
X4170984Y-742543D01*
X4181246Y-746912D01*
X4317746Y-745591D01*
X4618177Y-745845D01*
X4620666Y-747420D01*
X5345633Y-751382D01*
X5355742Y-747877D01*
X5357317Y-741222D01*
X5355031Y-734263D01*
G37*
G36*
X5147106Y-791514D02*
G01*
X4875733Y-793445D01*
X4871466Y-795375D01*
X4425543Y-797712D01*
X4067911Y-800506D01*
X3857396Y-803351D01*
X3431286Y-804875D01*
X3381857Y-805383D01*
X3375507Y-805992D01*
X3380536Y-809091D01*
X3404666Y-808075D01*
X3421379Y-808482D01*
X3428746Y-811936D01*
X4027322Y-813663D01*
X4056481Y-816406D01*
X4415383Y-816762D01*
X4461052Y-819403D01*
X4883302Y-821893D01*
X4928971Y-824484D01*
X5193080Y-824636D01*
X5204815Y-819150D01*
X5204815Y-814222D01*
X5208320Y-807110D01*
X5203748Y-797204D01*
X5195265Y-791921D01*
G37*
G36*
X4251807Y-851712D02*
G01*
X4114850Y-852017D01*
X3981653Y-854049D01*
X3332378Y-855370D01*
X3144621Y-858113D01*
X2720695Y-858113D01*
X2646324Y-862228D01*
X2642514Y-862939D01*
X2714802Y-864869D01*
X2907538Y-867664D01*
X3464255Y-870407D01*
X3475685Y-870661D01*
X3627831Y-870051D01*
X3700932Y-872794D01*
X4254957Y-872998D01*
X4259072Y-870559D01*
X4262374Y-862380D01*
X4258106Y-853541D01*
G37*
G36*
X5272633Y-928065D02*
G01*
X5230774Y-930249D01*
X4989830Y-933297D01*
X4832604Y-935786D01*
X4582769Y-938326D01*
X4553610Y-941019D01*
X4398873Y-941374D01*
X4378604Y-944016D01*
X4173169Y-946403D01*
X4149090Y-948944D01*
X3845966Y-949248D01*
X3829507Y-952144D01*
X3549243Y-954176D01*
X3532733Y-959256D01*
X3556863Y-961186D01*
X3819347Y-964285D01*
X4040022Y-966368D01*
X4057751Y-969162D01*
X4259376Y-969467D01*
X4282236Y-972058D01*
X4471263Y-974140D01*
X4474768Y-976426D01*
X4745075Y-978865D01*
X4941671Y-981151D01*
X5109057Y-983792D01*
X5204155Y-986891D01*
X5308244Y-986028D01*
X5315559Y-980998D01*
X5323992Y-972058D01*
X5323992Y-966927D01*
X5327650Y-959459D01*
X5324805Y-953871D01*
X5322874Y-939190D01*
X5319877Y-938174D01*
X5314950Y-932942D01*
X5303062Y-928928D01*
G37*
G36*
X4564786Y-1018844D02*
G01*
X4562906Y-1020876D01*
X4334205Y-1022654D01*
X4303776Y-1025347D01*
X3984193Y-1025804D01*
X3977843Y-1027734D01*
X3984193Y-1031494D01*
X4042562Y-1033576D01*
X4383684Y-1034948D01*
X4443272Y-1037590D01*
X4584547Y-1037590D01*
X4591304Y-1031443D01*
X4589526Y-1022858D01*
X4582769Y-1021486D01*
X4571949Y-1018844D01*
G37*
G36*
X5246573Y-1065733D02*
G01*
X4977180Y-1066190D01*
X4908702Y-1068273D01*
X4480052Y-1071168D01*
X4442002Y-1073556D01*
X3919524Y-1073962D01*
X3890365Y-1076706D01*
X3295599Y-1078738D01*
X3248660Y-1081633D01*
X3229660Y-1083665D01*
X3247390Y-1085799D01*
X4308856Y-1090930D01*
X4364634Y-1093724D01*
X4731156Y-1094028D01*
X4778044Y-1096822D01*
X5220665Y-1099058D01*
X5239410Y-1100785D01*
X5251094Y-1097483D01*
X5256784Y-1093774D01*
X5260543Y-1085138D01*
X5263438Y-1080922D01*
X5257495Y-1071321D01*
G37*
G36*
X5246014Y-1166672D02*
G01*
X5173726Y-1168501D01*
X4871923Y-1170381D01*
X4823612Y-1174191D01*
X4567529Y-1174343D01*
X4549800Y-1177188D01*
X4216298Y-1179271D01*
X3952494Y-1182166D01*
X3947414Y-1183792D01*
X3144672Y-1188466D01*
X3045764Y-1191768D01*
X2941269Y-1193647D01*
X2938373Y-1196695D01*
X2969717Y-1198626D01*
X3267710Y-1199286D01*
X3295599Y-1202182D01*
X3473145Y-1202385D01*
X3559352Y-1205128D01*
X3861206Y-1208024D01*
X4529531Y-1212900D01*
X4557928Y-1214628D01*
X4802174Y-1217320D01*
X5124246Y-1219454D01*
X5168646Y-1222298D01*
X5414264Y-1222400D01*
X5428183Y-1212646D01*
X5430215Y-1207008D01*
X5435600Y-1201928D01*
X5435600Y-1188008D01*
X5429351Y-1180338D01*
X5428640Y-1175004D01*
X5416143Y-1166825D01*
G37*
G36*
X4141165Y-1250543D02*
G01*
X3985463Y-1251000D01*
X3895445Y-1253185D01*
X3678580Y-1255826D01*
X3555593Y-1258468D01*
X3546703Y-1255928D01*
X3532124Y-1255928D01*
X3532124Y-1260856D01*
X3560622Y-1262837D01*
X3728059Y-1265123D01*
X3976624Y-1267866D01*
X4012082Y-1270609D01*
X4144619Y-1270660D01*
X4154728Y-1261008D01*
X4152442Y-1256487D01*
G37*
G36*
X5155996Y-1297838D02*
G01*
X4965750Y-1299819D01*
X4950510Y-1302562D01*
X4776774Y-1302918D01*
X4756505Y-1305661D01*
X4529531Y-1308201D01*
X4277156Y-1310538D01*
X4165549Y-1313332D01*
X4142740Y-1315008D01*
X3795268Y-1317548D01*
X3484575Y-1320698D01*
X3459175Y-1320698D01*
X3435096Y-1319580D01*
X3427729Y-1324813D01*
X3436365Y-1328674D01*
X3451606Y-1328521D01*
X3484575Y-1326642D01*
X3512464Y-1329893D01*
X3701389Y-1331976D01*
X3929684Y-1334820D01*
X3944874Y-1336446D01*
X4246727Y-1339342D01*
X4378604Y-1341374D01*
X4605578Y-1344117D01*
X4639818Y-1346860D01*
X4841494Y-1347114D01*
X4868113Y-1349908D01*
X5064658Y-1352143D01*
X5119217Y-1354836D01*
X5190642Y-1355039D01*
X5204815Y-1349298D01*
X5204815Y-1345692D01*
X5210810Y-1341577D01*
X5212232Y-1324864D01*
X5210505Y-1307947D01*
X5195214Y-1299006D01*
G37*
G36*
X5287010Y-1403248D02*
G01*
X5196535Y-1403604D01*
X5169916Y-1405890D01*
X4822444Y-1408684D01*
X4487672Y-1411020D01*
X4416653Y-1413916D01*
X4038752Y-1413916D01*
X3814267Y-1416659D01*
X3712565Y-1417269D01*
X3708349Y-1421028D01*
X3709720Y-1422501D01*
X3915714Y-1424584D01*
X3984193Y-1427175D01*
X4319016Y-1427480D01*
X4387494Y-1430324D01*
X4750155Y-1432458D01*
X5190185Y-1437182D01*
X5287873Y-1437386D01*
X5303824Y-1429613D01*
X5303062Y-1411986D01*
G37*
G36*
X3656736Y-1413916D02*
G01*
X3649421Y-1414170D01*
X3641140Y-1416710D01*
X3643731Y-1421841D01*
X3652774Y-1423670D01*
X3672535Y-1422450D01*
X3678986Y-1417066D01*
G37*
G36*
X3627983Y-1507693D02*
G01*
X3621532Y-1507896D01*
X3616451Y-1510182D01*
X3465525Y-1510538D01*
X3397046Y-1513281D01*
X3024225Y-1515262D01*
X3018536Y-1517396D01*
X3018536Y-1522222D01*
X3024225Y-1524152D01*
X3327298Y-1523847D01*
X3367887Y-1526794D01*
X3617722Y-1528927D01*
X3631641Y-1530502D01*
X3644341Y-1526946D01*
X3646728Y-1519834D01*
X3643325Y-1513179D01*
G37*
G36*
X5371795Y-1547876D02*
G01*
X5272633Y-1548282D01*
X5247284Y-1550517D01*
X5063388Y-1553311D01*
X5025339Y-1555597D01*
X4819904Y-1556004D01*
X4788204Y-1558747D01*
X4360824Y-1563573D01*
X4315206Y-1566468D01*
X4093260Y-1568246D01*
X3991813Y-1570736D01*
X3660851Y-1573072D01*
X3616451Y-1575816D01*
X3282899Y-1576019D01*
X3277514Y-1577543D01*
X3278784Y-1582674D01*
X3279140Y-1583131D01*
X3348888Y-1585214D01*
X3635451Y-1589328D01*
X3887825Y-1592326D01*
X4040022Y-1594510D01*
X4318101Y-1597101D01*
X4321556Y-1599438D01*
X4539640Y-1601266D01*
X4565040Y-1604010D01*
X4731156Y-1604162D01*
X4764125Y-1608124D01*
X4945481Y-1608124D01*
X4979720Y-1610918D01*
X5189220Y-1613103D01*
X5191607Y-1614678D01*
X5372912Y-1615236D01*
X5389930Y-1606296D01*
X5389930Y-1600555D01*
X5396280Y-1594256D01*
X5396280Y-1568805D01*
X5390845Y-1562709D01*
X5388051Y-1556766D01*
G37*
G36*
X5588000Y-1676450D02*
G01*
X5559247Y-1676806D01*
X5545277Y-1679295D01*
X5221935Y-1681581D01*
X5172456Y-1684375D01*
X4884572Y-1684528D01*
X4847793Y-1687372D01*
X4282236Y-1692300D01*
X3966464Y-1696720D01*
X3164992Y-1701444D01*
X3154832Y-1704492D01*
X3120593Y-1704746D01*
X3115513Y-1706880D01*
X3350107Y-1711655D01*
X3615182Y-1713839D01*
X3975354Y-1716481D01*
X4224477Y-1719122D01*
X4227220Y-1720900D01*
X4849063Y-1725726D01*
X4902352Y-1728571D01*
X5168646Y-1728825D01*
X5186426Y-1731619D01*
X5441289Y-1733550D01*
X5595721Y-1737106D01*
X5614416Y-1726844D01*
X5614416Y-1722475D01*
X5620766Y-1716176D01*
X5620613Y-1694535D01*
X5612485Y-1684934D01*
X5604916Y-1680768D01*
G37*
G36*
X4801057Y-1784908D02*
G01*
X4762855Y-1785264D01*
X4750155Y-1787906D01*
X4395063Y-1790344D01*
X4223867Y-1792579D01*
X3697579Y-1795525D01*
X3599942Y-1798320D01*
X3310839Y-1798472D01*
X3220770Y-1801012D01*
X3210661Y-1803349D01*
X3211880Y-1803806D01*
X3323488Y-1806295D01*
X3352647Y-1808988D01*
X3698849Y-1809191D01*
X3778758Y-1811985D01*
X4144010Y-1814118D01*
X4384954Y-1816912D01*
X4534560Y-1819706D01*
X4769053Y-1819757D01*
X4795824Y-1822805D01*
X4810861Y-1819452D01*
X4821834Y-1807921D01*
X4821834Y-1795780D01*
X4813554Y-1789328D01*
G37*
G36*
X5070398Y-1865274D02*
G01*
X4879492Y-1865680D01*
X4857953Y-1867712D01*
X4648047Y-1867966D01*
X4577689Y-1870710D01*
X4528921Y-1874672D01*
X4524654Y-1874672D01*
X4526280Y-1876399D01*
X4731156Y-1878685D01*
X4786934Y-1881174D01*
X4949139Y-1881378D01*
X4981092Y-1885492D01*
X5068062Y-1884730D01*
X5075428Y-1875942D01*
X5075428Y-1870659D01*
G37*
G36*
X5529884Y-1951024D02*
G01*
X5528056Y-1952904D01*
X5356352Y-1954936D01*
X5327192Y-1957527D01*
X5159756Y-1957730D01*
X5115407Y-1961642D01*
X4918811Y-1961845D01*
X4899812Y-1964639D01*
X4717186Y-1967077D01*
X4524451Y-1969109D01*
X4521098Y-1971344D01*
X4308856Y-1973935D01*
X3998163Y-1976424D01*
X3868826Y-1978812D01*
X3840937Y-1983333D01*
X3840124Y-1984197D01*
X3875125Y-1985772D01*
X3904335Y-1989023D01*
X4303064Y-1993646D01*
X4305808Y-1995424D01*
X4449622Y-1998116D01*
X4805984Y-2002993D01*
X4830064Y-2005838D01*
X5024069Y-2006142D01*
X5062118Y-2008682D01*
X5228234Y-2011070D01*
X5262473Y-2013813D01*
X5432450Y-2014169D01*
X5447639Y-2016556D01*
X5608472Y-2019300D01*
X5624982Y-2016506D01*
X5634685Y-2008378D01*
X5634685Y-2003399D01*
X5639765Y-2001723D01*
X5640882Y-1995881D01*
X5642508Y-1985162D01*
X5642305Y-1982470D01*
X5640222Y-1967738D01*
X5631434Y-1957832D01*
X5616854Y-1951024D01*
G37*
G36*
X2665476Y-2982468D02*
G01*
X2588260Y-3003550D01*
X2588260Y-3018536D01*
X2630424Y-3022346D01*
X2630424Y-3141218D01*
X2625140Y-3135325D01*
X2619857Y-3130143D01*
X2614472Y-3125622D01*
X2609138Y-3121710D01*
X2603703Y-3118408D01*
X2598267Y-3115614D01*
X2592781Y-3113379D01*
X2587193Y-3111601D01*
X2581605Y-3110280D01*
X2575915Y-3109366D01*
X2570175Y-3108858D01*
X2564384Y-3108706D01*
X2558643Y-3108858D01*
X2553004Y-3109264D01*
X2547467Y-3109976D01*
X2542082Y-3110992D01*
X2536748Y-3112262D01*
X2526538Y-3115614D01*
X2521661Y-3117697D01*
X2516886Y-3120034D01*
X2512212Y-3122625D01*
X2507742Y-3125470D01*
X2499258Y-3131870D01*
X2495245Y-3135477D01*
X2487777Y-3143300D01*
X2484272Y-3147568D01*
X2477922Y-3156762D01*
X2475026Y-3161690D01*
X2469794Y-3172206D01*
X2465476Y-3183483D01*
X2462022Y-3195574D01*
X2460650Y-3201924D01*
X2458618Y-3215132D01*
X2457958Y-3221990D01*
X2457476Y-3234944D01*
X2501392Y-3234944D01*
X2501544Y-3226155D01*
X2502052Y-3217875D01*
X2502865Y-3209950D01*
X2504033Y-3202482D01*
X2505456Y-3195472D01*
X2507132Y-3188817D01*
X2509113Y-3182620D01*
X2511348Y-3176778D01*
X2513838Y-3171393D01*
X2516581Y-3166364D01*
X2519527Y-3161690D01*
X2522677Y-3157423D01*
X2526080Y-3153562D01*
X2529586Y-3150057D01*
X2533345Y-3146907D01*
X2537206Y-3144062D01*
X2541270Y-3141624D01*
X2545435Y-3139541D01*
X2549753Y-3137763D01*
X2554173Y-3136341D01*
X2558694Y-3135223D01*
X2563317Y-3134461D01*
X2567990Y-3134004D01*
X2572766Y-3133852D01*
X2581249Y-3134410D01*
X2585567Y-3135172D01*
X2589936Y-3136239D01*
X2594406Y-3137712D01*
X2598978Y-3139541D01*
X2603703Y-3141776D01*
X2608529Y-3144520D01*
X2613507Y-3147669D01*
X2618638Y-3151327D01*
X2623921Y-3155543D01*
X2629408Y-3160268D01*
X2629408Y-3305301D01*
X2624632Y-3310331D01*
X2620010Y-3314801D01*
X2615387Y-3318713D01*
X2610866Y-3322116D01*
X2606344Y-3324961D01*
X2601772Y-3327400D01*
X2597200Y-3329381D01*
X2592476Y-3330905D01*
X2587701Y-3332073D01*
X2582722Y-3332886D01*
X2577592Y-3333343D01*
X2572258Y-3333496D01*
X2567228Y-3333343D01*
X2562301Y-3332886D01*
X2557526Y-3332124D01*
X2552903Y-3331006D01*
X2548382Y-3329584D01*
X2544064Y-3327857D01*
X2539847Y-3325774D01*
X2535834Y-3323336D01*
X2531973Y-3320592D01*
X2528316Y-3317494D01*
X2524861Y-3314039D01*
X2521559Y-3310229D01*
X2518511Y-3306064D01*
X2515717Y-3301492D01*
X2513076Y-3296615D01*
X2510739Y-3291332D01*
X2508605Y-3285642D01*
X2506726Y-3279597D01*
X2505151Y-3273145D01*
X2503830Y-3266338D01*
X2502763Y-3259074D01*
X2502001Y-3251453D01*
X2501544Y-3243427D01*
X2501392Y-3234944D01*
X2457476Y-3234944D01*
X2457551Y-3243021D01*
X2458516Y-3256127D01*
X2460396Y-3268675D01*
X2463190Y-3280613D01*
X2464917Y-3286302D01*
X2468981Y-3297123D01*
X2471318Y-3302304D01*
X2473858Y-3307283D01*
X2479497Y-3316579D01*
X2485948Y-3325114D01*
X2489403Y-3329076D01*
X2496870Y-3336290D01*
X2504998Y-3342589D01*
X2509316Y-3345383D01*
X2513787Y-3347923D01*
X2523185Y-3352292D01*
X2528112Y-3354070D01*
X2533142Y-3355594D01*
X2538323Y-3356864D01*
X2543657Y-3357879D01*
X2549093Y-3358591D01*
X2554630Y-3358997D01*
X2560320Y-3359150D01*
X2567838Y-3358896D01*
X2574950Y-3358083D01*
X2581757Y-3356762D01*
X2588260Y-3354882D01*
X2594457Y-3352546D01*
X2600350Y-3349751D01*
X2605989Y-3346450D01*
X2611374Y-3342741D01*
X2616504Y-3338576D01*
X2621432Y-3334004D01*
X2626156Y-3328974D01*
X2630678Y-3323590D01*
X2633472Y-3357879D01*
X2711196Y-3352800D01*
X2711196Y-3337306D01*
X2670556Y-3332734D01*
X2670556Y-3057398D01*
X2671826Y-2986024D01*
G37*
G36*
X3082036Y-2982468D02*
G01*
X3004820Y-3003550D01*
X3004820Y-3018536D01*
X3045460Y-3022346D01*
X3045358Y-3268472D01*
X3044444Y-3331718D01*
X3004820Y-3337306D01*
X3004820Y-3352800D01*
X3127756Y-3352800D01*
X3127756Y-3337306D01*
X3087624Y-3331718D01*
X3087116Y-3303828D01*
X3086608Y-3254552D01*
X3086608Y-3057398D01*
X3088894Y-2986024D01*
G37*
G36*
X3444240Y-2982468D02*
G01*
X3366770Y-3003550D01*
X3366770Y-3018536D01*
X3407664Y-3022346D01*
X3407613Y-3261309D01*
X3406648Y-3331718D01*
X3367278Y-3337306D01*
X3367278Y-3352800D01*
X3488944Y-3352800D01*
X3488944Y-3337306D01*
X3449574Y-3331718D01*
X3448812Y-3259074D01*
X3482086Y-3225292D01*
X3559810Y-3352800D01*
X3627882Y-3352800D01*
X3627882Y-3337306D01*
X3595370Y-3332734D01*
X3510787Y-3196336D01*
X3568446Y-3138424D01*
X3615182Y-3132074D01*
X3615182Y-3115564D01*
X3499865Y-3115564D01*
X3499865Y-3132074D01*
X3539236Y-3140202D01*
X3448812Y-3233420D01*
X3448812Y-3057398D01*
X3451098Y-2986024D01*
G37*
G36*
X658876Y-3015488D02*
G01*
X588759Y-3221990D01*
X609600Y-3221990D01*
X660654Y-3066542D01*
X712724Y-3221990D01*
X588759Y-3221990D01*
X552450Y-3328924D01*
X511556Y-3335528D01*
X511556Y-3352800D01*
X623316Y-3352800D01*
X623316Y-3335528D01*
X574294Y-3328924D01*
X602996Y-3241802D01*
X719328Y-3241802D01*
X748538Y-3329432D01*
X699008Y-3335528D01*
X699008Y-3352800D01*
X835406Y-3352800D01*
X835406Y-3335528D01*
X796036Y-3330956D01*
X688086Y-3015488D01*
G37*
G36*
X1840738Y-3017774D02*
G01*
X1840738Y-3035046D01*
X1876298Y-3039618D01*
X1881378Y-3045968D01*
X1880616Y-3329432D01*
X1838452Y-3335528D01*
X1838452Y-3352800D01*
X1956816Y-3352800D01*
X1956816Y-3335528D01*
X1903475Y-3328670D01*
X1902460Y-3075178D01*
X2106930Y-3356101D01*
X2124710Y-3356101D01*
X2125218Y-3040888D01*
X2167128Y-3035046D01*
X2167128Y-3017774D01*
X2048764Y-3017774D01*
X2048764Y-3035046D01*
X2102358Y-3041396D01*
X2103120Y-3273806D01*
X1917954Y-3017774D01*
G37*
G36*
X1028192Y-3108706D02*
G01*
X1022350Y-3108909D01*
X1016508Y-3109518D01*
X1010564Y-3110534D01*
X1004671Y-3111906D01*
X998778Y-3113684D01*
X992886Y-3115818D01*
X987044Y-3118307D01*
X981252Y-3121152D01*
X975512Y-3124301D01*
X969822Y-3127806D01*
X964234Y-3131616D01*
X958799Y-3135731D01*
X953465Y-3140100D01*
X948232Y-3144774D01*
X943152Y-3149701D01*
X938276Y-3154934D01*
X934212Y-3113786D01*
X927353Y-3109214D01*
X856742Y-3136646D01*
X856742Y-3151632D01*
X896619Y-3155696D01*
X897382Y-3175406D01*
X897788Y-3196336D01*
X897839Y-3267049D01*
X897128Y-3331718D01*
X860044Y-3337306D01*
X860044Y-3352800D01*
X975360Y-3352800D01*
X975360Y-3337306D01*
X940562Y-3331718D01*
X939647Y-3267049D01*
X939546Y-3173476D01*
X945997Y-3167837D01*
X952246Y-3162808D01*
X958342Y-3158286D01*
X964336Y-3154375D01*
X970178Y-3150920D01*
X975918Y-3147974D01*
X981608Y-3145536D01*
X987247Y-3143554D01*
X992835Y-3142081D01*
X998423Y-3141014D01*
X1004011Y-3140405D01*
X1009650Y-3140202D01*
X1014933Y-3140405D01*
X1019810Y-3140964D01*
X1024331Y-3141929D01*
X1028446Y-3143351D01*
X1032205Y-3145180D01*
X1035608Y-3147466D01*
X1038606Y-3150311D01*
X1041298Y-3153613D01*
X1043635Y-3157423D01*
X1045667Y-3161842D01*
X1047343Y-3166770D01*
X1048715Y-3172358D01*
X1049731Y-3178505D01*
X1050493Y-3185312D01*
X1050899Y-3192780D01*
X1051052Y-3200908D01*
X1050899Y-3281883D01*
X1050290Y-3331718D01*
X1013206Y-3337306D01*
X1013206Y-3352800D01*
X1128522Y-3352800D01*
X1128522Y-3337306D01*
X1093216Y-3331718D01*
X1092301Y-3267405D01*
X1092098Y-3191764D01*
X1091184Y-3177184D01*
X1090422Y-3170478D01*
X1089406Y-3164179D01*
X1088186Y-3158236D01*
X1086764Y-3152597D01*
X1085088Y-3147364D01*
X1083208Y-3142538D01*
X1081074Y-3137966D01*
X1078738Y-3133801D01*
X1076198Y-3129991D01*
X1073404Y-3126486D01*
X1070406Y-3123285D01*
X1067206Y-3120491D01*
X1063752Y-3117951D01*
X1060094Y-3115716D01*
X1056182Y-3113836D01*
X1052068Y-3112262D01*
X1047750Y-3110941D01*
X1043178Y-3109976D01*
X1038402Y-3109264D01*
X1033424Y-3108858D01*
G37*
G36*
X1331976Y-3108706D02*
G01*
X1326083Y-3108909D01*
X1320190Y-3109518D01*
X1314246Y-3110534D01*
X1308303Y-3111906D01*
X1302410Y-3113684D01*
X1296466Y-3115818D01*
X1290624Y-3118307D01*
X1284782Y-3121152D01*
X1279042Y-3124301D01*
X1273352Y-3127806D01*
X1267815Y-3131616D01*
X1262329Y-3135731D01*
X1256995Y-3140100D01*
X1251762Y-3144774D01*
X1246682Y-3149701D01*
X1241806Y-3154934D01*
X1237742Y-3113786D01*
X1230884Y-3109214D01*
X1160526Y-3136646D01*
X1160526Y-3151632D01*
X1200150Y-3155696D01*
X1201013Y-3175406D01*
X1201521Y-3196336D01*
X1201674Y-3253740D01*
X1200658Y-3331718D01*
X1163574Y-3337306D01*
X1163574Y-3352800D01*
X1278890Y-3352800D01*
X1278890Y-3337306D01*
X1244092Y-3331718D01*
X1243177Y-3267049D01*
X1243076Y-3173476D01*
X1249527Y-3167837D01*
X1255776Y-3162808D01*
X1261922Y-3158286D01*
X1267917Y-3154375D01*
X1273759Y-3150920D01*
X1279550Y-3147974D01*
X1285240Y-3145536D01*
X1290878Y-3143554D01*
X1296466Y-3142081D01*
X1302054Y-3141014D01*
X1307592Y-3140405D01*
X1313180Y-3140202D01*
X1318463Y-3140405D01*
X1323340Y-3140964D01*
X1327861Y-3141929D01*
X1332026Y-3143351D01*
X1335786Y-3145180D01*
X1339189Y-3147466D01*
X1342237Y-3150311D01*
X1344980Y-3153613D01*
X1347317Y-3157423D01*
X1349349Y-3161842D01*
X1351076Y-3166770D01*
X1352448Y-3172358D01*
X1353515Y-3178505D01*
X1354226Y-3185312D01*
X1354683Y-3192780D01*
X1354836Y-3200908D01*
X1354683Y-3274567D01*
X1353820Y-3331718D01*
X1316736Y-3337306D01*
X1316736Y-3352800D01*
X1432052Y-3352800D01*
X1432052Y-3337306D01*
X1396746Y-3331718D01*
X1396034Y-3267405D01*
X1395882Y-3191764D01*
X1394968Y-3177184D01*
X1394206Y-3170478D01*
X1393190Y-3164179D01*
X1391970Y-3158236D01*
X1390497Y-3152597D01*
X1388821Y-3147364D01*
X1384808Y-3137966D01*
X1382471Y-3133801D01*
X1379880Y-3129991D01*
X1377086Y-3126486D01*
X1374089Y-3123285D01*
X1370888Y-3120491D01*
X1367434Y-3117951D01*
X1363776Y-3115716D01*
X1359865Y-3113836D01*
X1355750Y-3112262D01*
X1351432Y-3110941D01*
X1346911Y-3109976D01*
X1342136Y-3109264D01*
X1337157Y-3108858D01*
G37*
G36*
X1573784Y-3108706D02*
G01*
X1566113Y-3108858D01*
X1558696Y-3109417D01*
X1551533Y-3110230D01*
X1544624Y-3111449D01*
X1537970Y-3112973D01*
X1531620Y-3114802D01*
X1525524Y-3116935D01*
X1519732Y-3119374D01*
X1514246Y-3122117D01*
X1509064Y-3125165D01*
X1504238Y-3128518D01*
X1499717Y-3132124D01*
X1495552Y-3136036D01*
X1491742Y-3140202D01*
X1488287Y-3144621D01*
X1485188Y-3149295D01*
X1482496Y-3154222D01*
X1480159Y-3159404D01*
X1478280Y-3164789D01*
X1476756Y-3170428D01*
X1478940Y-3178556D01*
X1483360Y-3184499D01*
X1490065Y-3188208D01*
X1499108Y-3189478D01*
X1503730Y-3189122D01*
X1507947Y-3188055D01*
X1511706Y-3186226D01*
X1515008Y-3183737D01*
X1517904Y-3180486D01*
X1520444Y-3176524D01*
X1522526Y-3171799D01*
X1524254Y-3166364D01*
X1533906Y-3132074D01*
X1541627Y-3130245D01*
X1548892Y-3128873D01*
X1555750Y-3128060D01*
X1562354Y-3127756D01*
X1568450Y-3127908D01*
X1574139Y-3128416D01*
X1579321Y-3129280D01*
X1584096Y-3130550D01*
X1588465Y-3132277D01*
X1592376Y-3134461D01*
X1595932Y-3137154D01*
X1599031Y-3140405D01*
X1601724Y-3144215D01*
X1604060Y-3148634D01*
X1606042Y-3153714D01*
X1607616Y-3159455D01*
X1608836Y-3165957D01*
X1609699Y-3173171D01*
X1610207Y-3181146D01*
X1610360Y-3205480D01*
X1595120Y-3209188D01*
X1580032Y-3213252D01*
X1565656Y-3217570D01*
X1552702Y-3221990D01*
X1534515Y-3228949D01*
X1519021Y-3235909D01*
X1506016Y-3242868D01*
X1500428Y-3246424D01*
X1495348Y-3249980D01*
X1490827Y-3253536D01*
X1486814Y-3257194D01*
X1483309Y-3260902D01*
X1480261Y-3264662D01*
X1477619Y-3268472D01*
X1475435Y-3272383D01*
X1473657Y-3276396D01*
X1472234Y-3280460D01*
X1471168Y-3284677D01*
X1470265Y-3291078D01*
X1512570Y-3291078D01*
X1512722Y-3286506D01*
X1513332Y-3281832D01*
X1514449Y-3277158D01*
X1516176Y-3272485D01*
X1518615Y-3267811D01*
X1521866Y-3263188D01*
X1526032Y-3258515D01*
X1531213Y-3253943D01*
X1537512Y-3249371D01*
X1545031Y-3244900D01*
X1553870Y-3240532D01*
X1564132Y-3236214D01*
X1584655Y-3229000D01*
X1597152Y-3225038D01*
X1610360Y-3221228D01*
X1610360Y-3300729D01*
X1597660Y-3310483D01*
X1587093Y-3318001D01*
X1578000Y-3323539D01*
X1573784Y-3325571D01*
X1569720Y-3327196D01*
X1565706Y-3328466D01*
X1561693Y-3329279D01*
X1557528Y-3329787D01*
X1553210Y-3329940D01*
X1547520Y-3329686D01*
X1542084Y-3328924D01*
X1537004Y-3327654D01*
X1532280Y-3325825D01*
X1527962Y-3323488D01*
X1524152Y-3320592D01*
X1520748Y-3317138D01*
X1517904Y-3313125D01*
X1515618Y-3308502D01*
X1513941Y-3303320D01*
X1512925Y-3297478D01*
X1512570Y-3291078D01*
X1470265Y-3291078D01*
X1469898Y-3297936D01*
X1470253Y-3305251D01*
X1471269Y-3312109D01*
X1472895Y-3318510D01*
X1475130Y-3324453D01*
X1477924Y-3329940D01*
X1481226Y-3334918D01*
X1485036Y-3339490D01*
X1489303Y-3343605D01*
X1494028Y-3347212D01*
X1499158Y-3350361D01*
X1504594Y-3353054D01*
X1510385Y-3355238D01*
X1516481Y-3356914D01*
X1522831Y-3358184D01*
X1529435Y-3358896D01*
X1536192Y-3359150D01*
X1541729Y-3358997D01*
X1546961Y-3358540D01*
X1551990Y-3357778D01*
X1556816Y-3356660D01*
X1561439Y-3355289D01*
X1565960Y-3353562D01*
X1570380Y-3351529D01*
X1574698Y-3349193D01*
X1583334Y-3343554D01*
X1592072Y-3336645D01*
X1601266Y-3328466D01*
X1611122Y-3319018D01*
X1612442Y-3324860D01*
X1614220Y-3330295D01*
X1616506Y-3335324D01*
X1619199Y-3339947D01*
X1622399Y-3344113D01*
X1625955Y-3347770D01*
X1630019Y-3350920D01*
X1634439Y-3353562D01*
X1639265Y-3355644D01*
X1644497Y-3357168D01*
X1650085Y-3358083D01*
X1656080Y-3358387D01*
X1662430Y-3358032D01*
X1668475Y-3357016D01*
X1674215Y-3355238D01*
X1679752Y-3352596D01*
X1684934Y-3349091D01*
X1689912Y-3344672D01*
X1694586Y-3339236D01*
X1699006Y-3332734D01*
X1689862Y-3323082D01*
X1685188Y-3328365D01*
X1680514Y-3332276D01*
X1675485Y-3334715D01*
X1669796Y-3335528D01*
X1665732Y-3335121D01*
X1662125Y-3333851D01*
X1658975Y-3331616D01*
X1656384Y-3328365D01*
X1654302Y-3324047D01*
X1652778Y-3318510D01*
X1651812Y-3311702D01*
X1651507Y-3303524D01*
X1651507Y-3194558D01*
X1651000Y-3179775D01*
X1650339Y-3173018D01*
X1649425Y-3166567D01*
X1648206Y-3160572D01*
X1646732Y-3154883D01*
X1645056Y-3149600D01*
X1643024Y-3144621D01*
X1640789Y-3140049D01*
X1638249Y-3135782D01*
X1635455Y-3131870D01*
X1632356Y-3128314D01*
X1629003Y-3125012D01*
X1625396Y-3122117D01*
X1621485Y-3119475D01*
X1617319Y-3117138D01*
X1612849Y-3115106D01*
X1608124Y-3113379D01*
X1603095Y-3111906D01*
X1597812Y-3110738D01*
X1592224Y-3109823D01*
X1580235Y-3108807D01*
G37*
G36*
X2306574Y-3108706D02*
G01*
X2298954Y-3108858D01*
X2291588Y-3109417D01*
X2284425Y-3110230D01*
X2277516Y-3111449D01*
X2270912Y-3112973D01*
X2264562Y-3114802D01*
X2258517Y-3116935D01*
X2252726Y-3119374D01*
X2247239Y-3122117D01*
X2242108Y-3125165D01*
X2237232Y-3128518D01*
X2232761Y-3132124D01*
X2228596Y-3136036D01*
X2224786Y-3140202D01*
X2221331Y-3144621D01*
X2218232Y-3149295D01*
X2215540Y-3154222D01*
X2213203Y-3159404D01*
X2211324Y-3164789D01*
X2209800Y-3170428D01*
X2211882Y-3178556D01*
X2216302Y-3184499D01*
X2223058Y-3188208D01*
X2232152Y-3189478D01*
X2236724Y-3189122D01*
X2240889Y-3188055D01*
X2244598Y-3186226D01*
X2247950Y-3183737D01*
X2250897Y-3180486D01*
X2253437Y-3176524D01*
X2255570Y-3171799D01*
X2257298Y-3166364D01*
X2266950Y-3132074D01*
X2274519Y-3130245D01*
X2281732Y-3128873D01*
X2288540Y-3128060D01*
X2295144Y-3127756D01*
X2301240Y-3127908D01*
X2306929Y-3128416D01*
X2312111Y-3129280D01*
X2316886Y-3130550D01*
X2321255Y-3132277D01*
X2325166Y-3134461D01*
X2328722Y-3137154D01*
X2331821Y-3140405D01*
X2334514Y-3144215D01*
X2336850Y-3148634D01*
X2338832Y-3153714D01*
X2340406Y-3159455D01*
X2341626Y-3165957D01*
X2342489Y-3173171D01*
X2342997Y-3181146D01*
X2343150Y-3205480D01*
X2327910Y-3209188D01*
X2312822Y-3213252D01*
X2298446Y-3217570D01*
X2285492Y-3221990D01*
X2267305Y-3228949D01*
X2251862Y-3235909D01*
X2238857Y-3242868D01*
X2233269Y-3246424D01*
X2228240Y-3249980D01*
X2223719Y-3253536D01*
X2219756Y-3257194D01*
X2216251Y-3260902D01*
X2213203Y-3264662D01*
X2210612Y-3268472D01*
X2208428Y-3272383D01*
X2206650Y-3276396D01*
X2205278Y-3280460D01*
X2204212Y-3284677D01*
X2203309Y-3291078D01*
X2245360Y-3291078D01*
X2245563Y-3286506D01*
X2246122Y-3281832D01*
X2247290Y-3277158D01*
X2249017Y-3272485D01*
X2251506Y-3267811D01*
X2254758Y-3263188D01*
X2258923Y-3258515D01*
X2264156Y-3253943D01*
X2270455Y-3249371D01*
X2277922Y-3244900D01*
X2286711Y-3240532D01*
X2296922Y-3236214D01*
X2317546Y-3229000D01*
X2329992Y-3225038D01*
X2343150Y-3221228D01*
X2343150Y-3300729D01*
X2330450Y-3310483D01*
X2319883Y-3318001D01*
X2310739Y-3323539D01*
X2306574Y-3325571D01*
X2302510Y-3327196D01*
X2298496Y-3328466D01*
X2294483Y-3329279D01*
X2290318Y-3329787D01*
X2286000Y-3329940D01*
X2280310Y-3329686D01*
X2274874Y-3328924D01*
X2269794Y-3327654D01*
X2265070Y-3325825D01*
X2260752Y-3323488D01*
X2256891Y-3320592D01*
X2253538Y-3317138D01*
X2250694Y-3313125D01*
X2248408Y-3308502D01*
X2246731Y-3303320D01*
X2245715Y-3297478D01*
X2245360Y-3291078D01*
X2203309Y-3291078D01*
X2202942Y-3297936D01*
X2203297Y-3305251D01*
X2204313Y-3312109D01*
X2205939Y-3318510D01*
X2208174Y-3324453D01*
X2210968Y-3329940D01*
X2214270Y-3334918D01*
X2218080Y-3339490D01*
X2222347Y-3343605D01*
X2227072Y-3347212D01*
X2232202Y-3350361D01*
X2237638Y-3353054D01*
X2243429Y-3355238D01*
X2249525Y-3356914D01*
X2255875Y-3358184D01*
X2262479Y-3358896D01*
X2269236Y-3359150D01*
X2274722Y-3358997D01*
X2279954Y-3358540D01*
X2284933Y-3357778D01*
X2289708Y-3356660D01*
X2294382Y-3355289D01*
X2298903Y-3353562D01*
X2303322Y-3351529D01*
X2307640Y-3349193D01*
X2316327Y-3343554D01*
X2325116Y-3336645D01*
X2334310Y-3328466D01*
X2344166Y-3319018D01*
X2345436Y-3324860D01*
X2347163Y-3330295D01*
X2349398Y-3335324D01*
X2352090Y-3339947D01*
X2355240Y-3344113D01*
X2358796Y-3347770D01*
X2362809Y-3350920D01*
X2367229Y-3353562D01*
X2372055Y-3355644D01*
X2377287Y-3357168D01*
X2382875Y-3358083D01*
X2388870Y-3358387D01*
X2395270Y-3358032D01*
X2401366Y-3357016D01*
X2407158Y-3355238D01*
X2412593Y-3352596D01*
X2417826Y-3349091D01*
X2422753Y-3344672D01*
X2427376Y-3339236D01*
X2431796Y-3332734D01*
X2422652Y-3323082D01*
X2418029Y-3328365D01*
X2413355Y-3332276D01*
X2408377Y-3334715D01*
X2402586Y-3335528D01*
X2398522Y-3335121D01*
X2394915Y-3333851D01*
X2391765Y-3331616D01*
X2389174Y-3328365D01*
X2387092Y-3324047D01*
X2385568Y-3318510D01*
X2384602Y-3311702D01*
X2384298Y-3303524D01*
X2384298Y-3194558D01*
X2383790Y-3179775D01*
X2383129Y-3173018D01*
X2382215Y-3166567D01*
X2380996Y-3160572D01*
X2379522Y-3154883D01*
X2377846Y-3149600D01*
X2375814Y-3144621D01*
X2373579Y-3140049D01*
X2371039Y-3135782D01*
X2368245Y-3131870D01*
X2365146Y-3128314D01*
X2361793Y-3125012D01*
X2358186Y-3122117D01*
X2354275Y-3119475D01*
X2350109Y-3117138D01*
X2345639Y-3115106D01*
X2340914Y-3113379D01*
X2335885Y-3111906D01*
X2330602Y-3110738D01*
X2325014Y-3109823D01*
X2313025Y-3108807D01*
G37*
G36*
X2856992Y-3108706D02*
G01*
X2846070Y-3109214D01*
X2840685Y-3109823D01*
X2829966Y-3111855D01*
X2819552Y-3114903D01*
X2814472Y-3116783D01*
X2809443Y-3118916D01*
X2804515Y-3121304D01*
X2795066Y-3126790D01*
X2786126Y-3133293D01*
X2781909Y-3136900D01*
X2777794Y-3140760D01*
X2773883Y-3144875D01*
X2770174Y-3149193D01*
X2763266Y-3158591D01*
X2757220Y-3168954D01*
X2754579Y-3174492D01*
X2752140Y-3180283D01*
X2749956Y-3186277D01*
X2748026Y-3192526D01*
X2746349Y-3199028D01*
X2744978Y-3205734D01*
X2743860Y-3212693D01*
X2743098Y-3219856D01*
X2742590Y-3227273D01*
X2742438Y-3234944D01*
X2788158Y-3234944D01*
X2788666Y-3218230D01*
X2789326Y-3210356D01*
X2791358Y-3195675D01*
X2792780Y-3188817D01*
X2794406Y-3182366D01*
X2796286Y-3176219D01*
X2798419Y-3170428D01*
X2800756Y-3165043D01*
X2803347Y-3159963D01*
X2806192Y-3155238D01*
X2809240Y-3150920D01*
X2812542Y-3146907D01*
X2815996Y-3143300D01*
X2819704Y-3140100D01*
X2823667Y-3137204D01*
X2827782Y-3134715D01*
X2832150Y-3132582D01*
X2836722Y-3130854D01*
X2841498Y-3129483D01*
X2846476Y-3128518D01*
X2851607Y-3127959D01*
X2856992Y-3127756D01*
X2862326Y-3127959D01*
X2867456Y-3128518D01*
X2872435Y-3129483D01*
X2877210Y-3130854D01*
X2881731Y-3132582D01*
X2886100Y-3134715D01*
X2890266Y-3137204D01*
X2894228Y-3140100D01*
X2897936Y-3143300D01*
X2901442Y-3146907D01*
X2904744Y-3150920D01*
X2907842Y-3155238D01*
X2910687Y-3159963D01*
X2913278Y-3165043D01*
X2915666Y-3170428D01*
X2917799Y-3176219D01*
X2919730Y-3182366D01*
X2921406Y-3188817D01*
X2922828Y-3195675D01*
X2923997Y-3202838D01*
X2924911Y-3210356D01*
X2925572Y-3218230D01*
X2926080Y-3234944D01*
X2925572Y-3251453D01*
X2924911Y-3259226D01*
X2923997Y-3266643D01*
X2922828Y-3273704D01*
X2921406Y-3280410D01*
X2919730Y-3286760D01*
X2917799Y-3292805D01*
X2915666Y-3298444D01*
X2913278Y-3303778D01*
X2910687Y-3308756D01*
X2907842Y-3313328D01*
X2904744Y-3317595D01*
X2901442Y-3321456D01*
X2897936Y-3324961D01*
X2894228Y-3328111D01*
X2890266Y-3330905D01*
X2886100Y-3333343D01*
X2881731Y-3335426D01*
X2877210Y-3337102D01*
X2872435Y-3338423D01*
X2867456Y-3339337D01*
X2862326Y-3339896D01*
X2856992Y-3340100D01*
X2851607Y-3339896D01*
X2846476Y-3339337D01*
X2841498Y-3338423D01*
X2836722Y-3337102D01*
X2832150Y-3335426D01*
X2827782Y-3333343D01*
X2823667Y-3330905D01*
X2819704Y-3328111D01*
X2815996Y-3324961D01*
X2812542Y-3321456D01*
X2809240Y-3317595D01*
X2806192Y-3313328D01*
X2803347Y-3308756D01*
X2800756Y-3303778D01*
X2798419Y-3298444D01*
X2796286Y-3292805D01*
X2794406Y-3286760D01*
X2792780Y-3280410D01*
X2791358Y-3273704D01*
X2789326Y-3259226D01*
X2788666Y-3251453D01*
X2788158Y-3234944D01*
X2742438Y-3234944D01*
X2742590Y-3242564D01*
X2743098Y-3249879D01*
X2743860Y-3257042D01*
X2744927Y-3263900D01*
X2746298Y-3270554D01*
X2749854Y-3283153D01*
X2752039Y-3289046D01*
X2754477Y-3294786D01*
X2757119Y-3300222D01*
X2760014Y-3305454D01*
X2763164Y-3310432D01*
X2766466Y-3315157D01*
X2773730Y-3323894D01*
X2777591Y-3327908D01*
X2785922Y-3335223D01*
X2790291Y-3338525D01*
X2794863Y-3341573D01*
X2799537Y-3344367D01*
X2809240Y-3349244D01*
X2814218Y-3351326D01*
X2819349Y-3353155D01*
X2829814Y-3356101D01*
X2840532Y-3358032D01*
X2851454Y-3359048D01*
X2862478Y-3359048D01*
X2873400Y-3358032D01*
X2878785Y-3357219D01*
X2889402Y-3354781D01*
X2899765Y-3351326D01*
X2904794Y-3349294D01*
X2914548Y-3344418D01*
X2919272Y-3341624D01*
X2923844Y-3338576D01*
X2932531Y-3331768D01*
X2936646Y-3328009D01*
X2940608Y-3323996D01*
X2944368Y-3319729D01*
X2947924Y-3315258D01*
X2951276Y-3310534D01*
X2954426Y-3305556D01*
X2957372Y-3300323D01*
X2960065Y-3294887D01*
X2962554Y-3289198D01*
X2964738Y-3283254D01*
X2966669Y-3277057D01*
X2968345Y-3270656D01*
X2969768Y-3264001D01*
X2970834Y-3257092D01*
X2971647Y-3249930D01*
X2972155Y-3242564D01*
X2972308Y-3234944D01*
X2972155Y-3227273D01*
X2971647Y-3219805D01*
X2970834Y-3212592D01*
X2969717Y-3205581D01*
X2968345Y-3198876D01*
X2966669Y-3192373D01*
X2964688Y-3186074D01*
X2962452Y-3180080D01*
X2960014Y-3174288D01*
X2957271Y-3168751D01*
X2954324Y-3163468D01*
X2951175Y-3158388D01*
X2947771Y-3153562D01*
X2944215Y-3148990D01*
X2936443Y-3140557D01*
X2928061Y-3133140D01*
X2923590Y-3129788D01*
X2919018Y-3126689D01*
X2909519Y-3121202D01*
X2904591Y-3118815D01*
X2894431Y-3114852D01*
X2889250Y-3113227D01*
X2883966Y-3111855D01*
X2873298Y-3109823D01*
X2862427Y-3108807D01*
G37*
G36*
X3255772Y-3108706D02*
G01*
X3247542Y-3108960D01*
X3239668Y-3109671D01*
X3232200Y-3110839D01*
X3225139Y-3112414D01*
X3218434Y-3114395D01*
X3212134Y-3116783D01*
X3206242Y-3119526D01*
X3200755Y-3122625D01*
X3195675Y-3126028D01*
X3191052Y-3129737D01*
X3186785Y-3133699D01*
X3182975Y-3137966D01*
X3179622Y-3142437D01*
X3176676Y-3147110D01*
X3174136Y-3151987D01*
X3172104Y-3157067D01*
X3170478Y-3162249D01*
X3169310Y-3167583D01*
X3168650Y-3173018D01*
X3168396Y-3178556D01*
X3168700Y-3184804D01*
X3169513Y-3190748D01*
X3170885Y-3196386D01*
X3172764Y-3201670D01*
X3175152Y-3206699D01*
X3178048Y-3211474D01*
X3181400Y-3215944D01*
X3185210Y-3220161D01*
X3189427Y-3224174D01*
X3194050Y-3227933D01*
X3199079Y-3231489D01*
X3204514Y-3234791D01*
X3210306Y-3237941D01*
X3216402Y-3240938D01*
X3222853Y-3243732D01*
X3229610Y-3246374D01*
X3252978Y-3253994D01*
X3260852Y-3257092D01*
X3267913Y-3260191D01*
X3274212Y-3263341D01*
X3279749Y-3266541D01*
X3284626Y-3269843D01*
X3288741Y-3273348D01*
X3292144Y-3277006D01*
X3294938Y-3280918D01*
X3297072Y-3285083D01*
X3298545Y-3289604D01*
X3299409Y-3294481D01*
X3299714Y-3299714D01*
X3299307Y-3305505D01*
X3298190Y-3310991D01*
X3296259Y-3316071D01*
X3293516Y-3320796D01*
X3290011Y-3325063D01*
X3285642Y-3328873D01*
X3280511Y-3332175D01*
X3274517Y-3334918D01*
X3267659Y-3337153D01*
X3259988Y-3338779D01*
X3251453Y-3339744D01*
X3242056Y-3340100D01*
X3230575Y-3339592D01*
X3225139Y-3338931D01*
X3219958Y-3338017D01*
X3214979Y-3336848D01*
X3210102Y-3335375D01*
X3205429Y-3333699D01*
X3200908Y-3331718D01*
X3189986Y-3285490D01*
X3166110Y-3285490D01*
X3167126Y-3340354D01*
X3173222Y-3343351D01*
X3185210Y-3348532D01*
X3191205Y-3350768D01*
X3203244Y-3354425D01*
X3215589Y-3357067D01*
X3222040Y-3357981D01*
X3228644Y-3358642D01*
X3242564Y-3359150D01*
X3250336Y-3358997D01*
X3257803Y-3358489D01*
X3264966Y-3357676D01*
X3271774Y-3356559D01*
X3278276Y-3355136D01*
X3284474Y-3353409D01*
X3290315Y-3351479D01*
X3295853Y-3349244D01*
X3301085Y-3346754D01*
X3305962Y-3344011D01*
X3310534Y-3341115D01*
X3314750Y-3337915D01*
X3318662Y-3334562D01*
X3322218Y-3331057D01*
X3325469Y-3327349D01*
X3328365Y-3323437D01*
X3330905Y-3319424D01*
X3333140Y-3315208D01*
X3335020Y-3310890D01*
X3336594Y-3306470D01*
X3337763Y-3301949D01*
X3338626Y-3297275D01*
X3339185Y-3292551D01*
X3339337Y-3287776D01*
X3339134Y-3281984D01*
X3338423Y-3276346D01*
X3337255Y-3270910D01*
X3335578Y-3265627D01*
X3333394Y-3260547D01*
X3330701Y-3255670D01*
X3327450Y-3250946D01*
X3323640Y-3246374D01*
X3319221Y-3242005D01*
X3314242Y-3237738D01*
X3308604Y-3233674D01*
X3302355Y-3229762D01*
X3295497Y-3226003D01*
X3287928Y-3222396D01*
X3279698Y-3218942D01*
X3245459Y-3206242D01*
X3238296Y-3203244D01*
X3231946Y-3200247D01*
X3226358Y-3197199D01*
X3221532Y-3194050D01*
X3217468Y-3190798D01*
X3214065Y-3187293D01*
X3211372Y-3183534D01*
X3209290Y-3179470D01*
X3207867Y-3175050D01*
X3207004Y-3170174D01*
X3206750Y-3164840D01*
X3207105Y-3159556D01*
X3208172Y-3154527D01*
X3209899Y-3149904D01*
X3212338Y-3145637D01*
X3215487Y-3141776D01*
X3219246Y-3138373D01*
X3223717Y-3135376D01*
X3228848Y-3132886D01*
X3234588Y-3130905D01*
X3241040Y-3129432D01*
X3248101Y-3128568D01*
X3255772Y-3128264D01*
X3264966Y-3128873D01*
X3274009Y-3130651D01*
X3282899Y-3133496D01*
X3291840Y-3137408D01*
X3301492Y-3180080D01*
X3323844Y-3180080D01*
X3325622Y-3129280D01*
X3320186Y-3126079D01*
X3309264Y-3120491D01*
X3303778Y-3118053D01*
X3298240Y-3115919D01*
X3292601Y-3114040D01*
X3286861Y-3112414D01*
X3280968Y-3111093D01*
X3274974Y-3110077D01*
X3268776Y-3109315D01*
X3262376Y-3108858D01*
G37*
G36*
X3754628Y-3108706D02*
G01*
X3746957Y-3108858D01*
X3739540Y-3109417D01*
X3732377Y-3110230D01*
X3725468Y-3111449D01*
X3718814Y-3112973D01*
X3712464Y-3114802D01*
X3706368Y-3116935D01*
X3700576Y-3119374D01*
X3695090Y-3122117D01*
X3689908Y-3125165D01*
X3685082Y-3128518D01*
X3680561Y-3132124D01*
X3676396Y-3136036D01*
X3672586Y-3140202D01*
X3669131Y-3144621D01*
X3666032Y-3149295D01*
X3663340Y-3154222D01*
X3661003Y-3159404D01*
X3659124Y-3164789D01*
X3657600Y-3170428D01*
X3659784Y-3178556D01*
X3664204Y-3184499D01*
X3670909Y-3188208D01*
X3679951Y-3189478D01*
X3684574Y-3189122D01*
X3688791Y-3188055D01*
X3692550Y-3186226D01*
X3695852Y-3183737D01*
X3698748Y-3180486D01*
X3701287Y-3176524D01*
X3703370Y-3171799D01*
X3705098Y-3166364D01*
X3714750Y-3132074D01*
X3722471Y-3130245D01*
X3729736Y-3128873D01*
X3736594Y-3128060D01*
X3743198Y-3127756D01*
X3749294Y-3127908D01*
X3754983Y-3128416D01*
X3760165Y-3129280D01*
X3764940Y-3130550D01*
X3769309Y-3132277D01*
X3773220Y-3134461D01*
X3776776Y-3137154D01*
X3779875Y-3140405D01*
X3782568Y-3144215D01*
X3784904Y-3148634D01*
X3786886Y-3153714D01*
X3788460Y-3159455D01*
X3789679Y-3165957D01*
X3790543Y-3173171D01*
X3791051Y-3181146D01*
X3791204Y-3205480D01*
X3775964Y-3209188D01*
X3760825Y-3213252D01*
X3746500Y-3217570D01*
X3733546Y-3221990D01*
X3715359Y-3228949D01*
X3699865Y-3235909D01*
X3686860Y-3242868D01*
X3681272Y-3246424D01*
X3676192Y-3249980D01*
X3671671Y-3253536D01*
X3667658Y-3257194D01*
X3664153Y-3260902D01*
X3661105Y-3264662D01*
X3658463Y-3268472D01*
X3656279Y-3272383D01*
X3654501Y-3276396D01*
X3653078Y-3280460D01*
X3652012Y-3284677D01*
X3651109Y-3291078D01*
X3693414Y-3291078D01*
X3693566Y-3286506D01*
X3694176Y-3281832D01*
X3695293Y-3277158D01*
X3697020Y-3272485D01*
X3699459Y-3267811D01*
X3702710Y-3263188D01*
X3706876Y-3258515D01*
X3712057Y-3253943D01*
X3718356Y-3249371D01*
X3725875Y-3244900D01*
X3734714Y-3240532D01*
X3744976Y-3236214D01*
X3765499Y-3229000D01*
X3777996Y-3225038D01*
X3791204Y-3221228D01*
X3791204Y-3300729D01*
X3778504Y-3310483D01*
X3767937Y-3318001D01*
X3758793Y-3323539D01*
X3754628Y-3325571D01*
X3750564Y-3327196D01*
X3746550Y-3328466D01*
X3742537Y-3329279D01*
X3738372Y-3329787D01*
X3734054Y-3329940D01*
X3728364Y-3329686D01*
X3722928Y-3328924D01*
X3717848Y-3327654D01*
X3713124Y-3325825D01*
X3708806Y-3323488D01*
X3704945Y-3320592D01*
X3701592Y-3317138D01*
X3698748Y-3313125D01*
X3696462Y-3308502D01*
X3694785Y-3303320D01*
X3693769Y-3297478D01*
X3693414Y-3291078D01*
X3651109Y-3291078D01*
X3650742Y-3297936D01*
X3651097Y-3305251D01*
X3652113Y-3312109D01*
X3653739Y-3318510D01*
X3655974Y-3324453D01*
X3658768Y-3329940D01*
X3662070Y-3334918D01*
X3665880Y-3339490D01*
X3670147Y-3343605D01*
X3674872Y-3347212D01*
X3680002Y-3350361D01*
X3685438Y-3353054D01*
X3691229Y-3355238D01*
X3697325Y-3356914D01*
X3703675Y-3358184D01*
X3710279Y-3358896D01*
X3717036Y-3359150D01*
X3722573Y-3358997D01*
X3727805Y-3358540D01*
X3732834Y-3357778D01*
X3737660Y-3356660D01*
X3742283Y-3355289D01*
X3746804Y-3353562D01*
X3751224Y-3351529D01*
X3755542Y-3349193D01*
X3764178Y-3343554D01*
X3772915Y-3336645D01*
X3782110Y-3328466D01*
X3791965Y-3319018D01*
X3793286Y-3324860D01*
X3795064Y-3330295D01*
X3797350Y-3335324D01*
X3800043Y-3339947D01*
X3803243Y-3344113D01*
X3806850Y-3347770D01*
X3810863Y-3350920D01*
X3815283Y-3353562D01*
X3820109Y-3355644D01*
X3825341Y-3357168D01*
X3830929Y-3358083D01*
X3836924Y-3358387D01*
X3843274Y-3358032D01*
X3849319Y-3357016D01*
X3855059Y-3355238D01*
X3860596Y-3352596D01*
X3865778Y-3349091D01*
X3870756Y-3344672D01*
X3875430Y-3339236D01*
X3879850Y-3332734D01*
X3870706Y-3323082D01*
X3866032Y-3328365D01*
X3861358Y-3332276D01*
X3856329Y-3334715D01*
X3850640Y-3335528D01*
X3846576Y-3335121D01*
X3842969Y-3333851D01*
X3839819Y-3331616D01*
X3837228Y-3328365D01*
X3835146Y-3324047D01*
X3833622Y-3318510D01*
X3832656Y-3311702D01*
X3832351Y-3303524D01*
X3832351Y-3194558D01*
X3831844Y-3179775D01*
X3831183Y-3173018D01*
X3830269Y-3166567D01*
X3829050Y-3160572D01*
X3827576Y-3154883D01*
X3825900Y-3149600D01*
X3823868Y-3144621D01*
X3821633Y-3140049D01*
X3819093Y-3135782D01*
X3816299Y-3131870D01*
X3813200Y-3128314D01*
X3809847Y-3125012D01*
X3806240Y-3122117D01*
X3802329Y-3119475D01*
X3798163Y-3117138D01*
X3793693Y-3115106D01*
X3788968Y-3113379D01*
X3783939Y-3111906D01*
X3778656Y-3110738D01*
X3773068Y-3109823D01*
X3761079Y-3108807D01*
G37*
G36*
X2145030Y-3609086D02*
G01*
X2097786Y-3622040D01*
X2097786Y-3631184D01*
X2123440Y-3633470D01*
X2123440Y-3706114D01*
X2118563Y-3700881D01*
X2113686Y-3696614D01*
X2108809Y-3693160D01*
X2103831Y-3690518D01*
X2098802Y-3688537D01*
X2093671Y-3687267D01*
X2088438Y-3686505D01*
X2083054Y-3686301D01*
X2077516Y-3686505D01*
X2072081Y-3687216D01*
X2066848Y-3688283D01*
X2061819Y-3689807D01*
X2056993Y-3691788D01*
X2052370Y-3694125D01*
X2048002Y-3696868D01*
X2043836Y-3700018D01*
X2039924Y-3703523D01*
X2036318Y-3707384D01*
X2032965Y-3711600D01*
X2029917Y-3716223D01*
X2027174Y-3721150D01*
X2024786Y-3726383D01*
X2022703Y-3731971D01*
X2020976Y-3737813D01*
X2019604Y-3744010D01*
X2018588Y-3750513D01*
X2017979Y-3757269D01*
X2017805Y-3763264D01*
X2044700Y-3763264D01*
X2044954Y-3755339D01*
X2045614Y-3747973D01*
X2046681Y-3741267D01*
X2048205Y-3735070D01*
X2050084Y-3729482D01*
X2052269Y-3724401D01*
X2054809Y-3719931D01*
X2057654Y-3715918D01*
X2060752Y-3712464D01*
X2064105Y-3709466D01*
X2067712Y-3707028D01*
X2071471Y-3704996D01*
X2075434Y-3703472D01*
X2079548Y-3702405D01*
X2083816Y-3701745D01*
X2088134Y-3701542D01*
X2092045Y-3701745D01*
X2096058Y-3702354D01*
X2100122Y-3703472D01*
X2104288Y-3705098D01*
X2108657Y-3707282D01*
X2113178Y-3710127D01*
X2117902Y-3713581D01*
X2122932Y-3717798D01*
X2122932Y-3806444D01*
X2118563Y-3810914D01*
X2114296Y-3814622D01*
X2110130Y-3817620D01*
X2105964Y-3819956D01*
X2101748Y-3821684D01*
X2097379Y-3822852D01*
X2092756Y-3823512D01*
X2087880Y-3823715D01*
X2083307Y-3823512D01*
X2078888Y-3822852D01*
X2074672Y-3821785D01*
X2070607Y-3820210D01*
X2066848Y-3818229D01*
X2063292Y-3815791D01*
X2059990Y-3812844D01*
X2056942Y-3809390D01*
X2054199Y-3805478D01*
X2051812Y-3801008D01*
X2049678Y-3796080D01*
X2047951Y-3790594D01*
X2046528Y-3784600D01*
X2045512Y-3778046D01*
X2044903Y-3770934D01*
X2044700Y-3763264D01*
X2017805Y-3763264D01*
X2017979Y-3770833D01*
X2018538Y-3777183D01*
X2019452Y-3783279D01*
X2020722Y-3789121D01*
X2022348Y-3794760D01*
X2024278Y-3800043D01*
X2026564Y-3805123D01*
X2029104Y-3809847D01*
X2032000Y-3814318D01*
X2035200Y-3818432D01*
X2038604Y-3822192D01*
X2042363Y-3825646D01*
X2046325Y-3828694D01*
X2050592Y-3831437D01*
X2055063Y-3833774D01*
X2059787Y-3835704D01*
X2064715Y-3837228D01*
X2069846Y-3838295D01*
X2075230Y-3839006D01*
X2080768Y-3839210D01*
X2087473Y-3838854D01*
X2093772Y-3837787D01*
X2099614Y-3836009D01*
X2105101Y-3833571D01*
X2110181Y-3830472D01*
X2115007Y-3826764D01*
X2119477Y-3822496D01*
X2123694Y-3817620D01*
X2125472Y-3838448D01*
X2172970Y-3835400D01*
X2172970Y-3826001D01*
X2148078Y-3823208D01*
X2148078Y-3654806D01*
X2148840Y-3611372D01*
G37*
G36*
X2399538Y-3609086D02*
G01*
X2352294Y-3622040D01*
X2352294Y-3631184D01*
X2377186Y-3633470D01*
X2377135Y-3783888D01*
X2376424Y-3822446D01*
X2352294Y-3826001D01*
X2352294Y-3835400D01*
X2427478Y-3835400D01*
X2427478Y-3826001D01*
X2402840Y-3822446D01*
X2402332Y-3777487D01*
X2402332Y-3654806D01*
X2403602Y-3611372D01*
G37*
G36*
X2620772Y-3609086D02*
G01*
X2573528Y-3622040D01*
X2573528Y-3631184D01*
X2598420Y-3633470D01*
X2598318Y-3790187D01*
X2597912Y-3822446D01*
X2573782Y-3826001D01*
X2573782Y-3835400D01*
X2648204Y-3835400D01*
X2648204Y-3826001D01*
X2624074Y-3822446D01*
X2623566Y-3777996D01*
X2643886Y-3757422D01*
X2691384Y-3835400D01*
X2733040Y-3835400D01*
X2733040Y-3826001D01*
X2713228Y-3823208D01*
X2661412Y-3739896D01*
X2696718Y-3704336D01*
X2725166Y-3700526D01*
X2725166Y-3690365D01*
X2654808Y-3690365D01*
X2654808Y-3700526D01*
X2678938Y-3705606D01*
X2623566Y-3762501D01*
X2623566Y-3654806D01*
X2624836Y-3611372D01*
G37*
G36*
X3645915Y-3609086D02*
G01*
X3598672Y-3622040D01*
X3598672Y-3631184D01*
X3623564Y-3633470D01*
X3623513Y-3783888D01*
X3623056Y-3822446D01*
X3598672Y-3826001D01*
X3598672Y-3835400D01*
X3673856Y-3835400D01*
X3673856Y-3826001D01*
X3649218Y-3822446D01*
X3648710Y-3777487D01*
X3648710Y-3654806D01*
X3649979Y-3611372D01*
G37*
G36*
X4071365Y-3609086D02*
G01*
X4024122Y-3622040D01*
X4024122Y-3631184D01*
X4049014Y-3633470D01*
X4048912Y-3790187D01*
X4048506Y-3822446D01*
X4024376Y-3826001D01*
X4024376Y-3835400D01*
X4098798Y-3835400D01*
X4098798Y-3826001D01*
X4074668Y-3822446D01*
X4074160Y-3777996D01*
X4094479Y-3757422D01*
X4141978Y-3835400D01*
X4183634Y-3835400D01*
X4183634Y-3826001D01*
X4163822Y-3823208D01*
X4112260Y-3739896D01*
X4147312Y-3704336D01*
X4175760Y-3700526D01*
X4175760Y-3690365D01*
X4105401Y-3690365D01*
X4105401Y-3700526D01*
X4129532Y-3705606D01*
X4074160Y-3762501D01*
X4074160Y-3654806D01*
X4075684Y-3611372D01*
G37*
G36*
X3034538Y-3637026D02*
G01*
X3028188Y-3637178D01*
X3021990Y-3637584D01*
X3015843Y-3638245D01*
X3003854Y-3640378D01*
X2998012Y-3641801D01*
X2986735Y-3645408D01*
X2975914Y-3649979D01*
X2965653Y-3655364D01*
X2960725Y-3658412D01*
X2951378Y-3665067D01*
X2942640Y-3672535D01*
X2934614Y-3680714D01*
X2927350Y-3689553D01*
X2923946Y-3694226D01*
X2917850Y-3704031D01*
X2915056Y-3709111D01*
X2910179Y-3719728D01*
X2906217Y-3730904D01*
X2903169Y-3742486D01*
X2902000Y-3748430D01*
X2901086Y-3754475D01*
X2900426Y-3760622D01*
X2899918Y-3773170D01*
X2900070Y-3779875D01*
X2900476Y-3786428D01*
X2901188Y-3792728D01*
X2902153Y-3798824D01*
X2903372Y-3804716D01*
X2904845Y-3810355D01*
X2908554Y-3821074D01*
X2910789Y-3826103D01*
X2913227Y-3830929D01*
X2915869Y-3835552D01*
X2918714Y-3839921D01*
X2925064Y-3848049D01*
X2932226Y-3855364D01*
X2936036Y-3858717D01*
X2944215Y-3864711D01*
X2948533Y-3867404D01*
X2953054Y-3869893D01*
X2962402Y-3874160D01*
X2972358Y-3877614D01*
X2977489Y-3879037D01*
X2988106Y-3881170D01*
X2999079Y-3882491D01*
X3010408Y-3882898D01*
X3017723Y-3882694D01*
X3025190Y-3882085D01*
X3032709Y-3881069D01*
X3040227Y-3879646D01*
X3047695Y-3877767D01*
X3055010Y-3875481D01*
X3062173Y-3872788D01*
X3069082Y-3869690D01*
X3066034Y-3862324D01*
X3060446Y-3864660D01*
X3054756Y-3866743D01*
X3048914Y-3868521D01*
X3042869Y-3869994D01*
X3036519Y-3871163D01*
X3029864Y-3872026D01*
X3022904Y-3872585D01*
X3015488Y-3872737D01*
X3004108Y-3872229D01*
X2998520Y-3871569D01*
X2993034Y-3870655D01*
X2987649Y-3869486D01*
X2982366Y-3868064D01*
X2972104Y-3864406D01*
X2967177Y-3862171D01*
X2962452Y-3859733D01*
X2957830Y-3856990D01*
X2953410Y-3853992D01*
X2949143Y-3850741D01*
X2945079Y-3847185D01*
X2941269Y-3843426D01*
X2937611Y-3839413D01*
X2934208Y-3835095D01*
X2931058Y-3830523D01*
X2928112Y-3825697D01*
X2925470Y-3820617D01*
X2923082Y-3815283D01*
X2921000Y-3809695D01*
X2919171Y-3803853D01*
X2917647Y-3797706D01*
X2916478Y-3791356D01*
X2915615Y-3784701D01*
X2915107Y-3777792D01*
X2914904Y-3770629D01*
X2915056Y-3764584D01*
X2915462Y-3758590D01*
X2917139Y-3746804D01*
X2918358Y-3741013D01*
X2919831Y-3735324D01*
X2921558Y-3729685D01*
X2923540Y-3724148D01*
X2928213Y-3713479D01*
X2930906Y-3708298D01*
X2937002Y-3698443D01*
X2943961Y-3689197D01*
X2947771Y-3684828D01*
X2955950Y-3676700D01*
X2964942Y-3669385D01*
X2969717Y-3666083D01*
X2974644Y-3663035D01*
X2979775Y-3660190D01*
X2985109Y-3657600D01*
X2990545Y-3655314D01*
X2996184Y-3653282D01*
X3001975Y-3651554D01*
X3007868Y-3650081D01*
X3013964Y-3648964D01*
X3020161Y-3648100D01*
X3026511Y-3647592D01*
X3033014Y-3647440D01*
X3039059Y-3647592D01*
X3045002Y-3648100D01*
X3050794Y-3648964D01*
X3056432Y-3650132D01*
X3061919Y-3651605D01*
X3067202Y-3653383D01*
X3072282Y-3655466D01*
X3077210Y-3657904D01*
X3081883Y-3660597D01*
X3086354Y-3663543D01*
X3090570Y-3666845D01*
X3094583Y-3670401D01*
X3098292Y-3674211D01*
X3101797Y-3678326D01*
X3104997Y-3682695D01*
X3107893Y-3687267D01*
X3110484Y-3692144D01*
X3112770Y-3697274D01*
X3114751Y-3702608D01*
X3116376Y-3708196D01*
X3117697Y-3714038D01*
X3118612Y-3720084D01*
X3119170Y-3726332D01*
X3119374Y-3732784D01*
X3119069Y-3742436D01*
X3118205Y-3751427D01*
X3116783Y-3759708D01*
X3114852Y-3767328D01*
X3112516Y-3774338D01*
X3109772Y-3780637D01*
X3106724Y-3786327D01*
X3103321Y-3791407D01*
X3099714Y-3795826D01*
X3095853Y-3799636D01*
X3091891Y-3802837D01*
X3087776Y-3805428D01*
X3083560Y-3807460D01*
X3079394Y-3808882D01*
X3075228Y-3809695D01*
X3071114Y-3810000D01*
X3066237Y-3809593D01*
X3062173Y-3808374D01*
X3058871Y-3806393D01*
X3056382Y-3803599D01*
X3054705Y-3799992D01*
X3053842Y-3795623D01*
X3053791Y-3790492D01*
X3054604Y-3784600D01*
X3072638Y-3695192D01*
X3067558Y-3691128D01*
X3051048Y-3699510D01*
X3046272Y-3695649D01*
X3041396Y-3693007D01*
X3036316Y-3691585D01*
X3030982Y-3691128D01*
X3024987Y-3691585D01*
X3018993Y-3692855D01*
X3013049Y-3694988D01*
X3007156Y-3697884D01*
X3001416Y-3701592D01*
X2995828Y-3706012D01*
X2990443Y-3711194D01*
X2985262Y-3717036D01*
X2981807Y-3721303D01*
X2975457Y-3730548D01*
X2972511Y-3735527D01*
X2969869Y-3740708D01*
X2967431Y-3746093D01*
X2965348Y-3751630D01*
X2963519Y-3757371D01*
X2962097Y-3763314D01*
X2961030Y-3769360D01*
X2960312Y-3775710D01*
X2980944Y-3775710D01*
X2981299Y-3767683D01*
X2982315Y-3760063D01*
X2983941Y-3752799D01*
X2986074Y-3745941D01*
X2988665Y-3739489D01*
X2991662Y-3733444D01*
X2994964Y-3727805D01*
X2998470Y-3722624D01*
X3002280Y-3717950D01*
X3006191Y-3713987D01*
X3010154Y-3710736D01*
X3014167Y-3708196D01*
X3018129Y-3706215D01*
X3022041Y-3704894D01*
X3025851Y-3704082D01*
X3029458Y-3703828D01*
X3034487Y-3704386D01*
X3039211Y-3706164D01*
X3043732Y-3709415D01*
X3048000Y-3714242D01*
X3033776Y-3789679D01*
X3024022Y-3797300D01*
X3015792Y-3802227D01*
X3008630Y-3804920D01*
X3002026Y-3805682D01*
X2997098Y-3805224D01*
X2992831Y-3803802D01*
X2989224Y-3801465D01*
X2986227Y-3798214D01*
X2983941Y-3793998D01*
X2982264Y-3788867D01*
X2981299Y-3782771D01*
X2980944Y-3775710D01*
X2960312Y-3775710D01*
X2960116Y-3781806D01*
X2960420Y-3788562D01*
X2961386Y-3794658D01*
X2962859Y-3800094D01*
X2964840Y-3804869D01*
X2967278Y-3808984D01*
X2970123Y-3812540D01*
X2973324Y-3815486D01*
X2976829Y-3817874D01*
X2980588Y-3819651D01*
X2984550Y-3820922D01*
X2988665Y-3821684D01*
X2992882Y-3821937D01*
X2998724Y-3821480D01*
X3004362Y-3820160D01*
X3009849Y-3818026D01*
X3015183Y-3815130D01*
X3020364Y-3811574D01*
X3025444Y-3807358D01*
X3030321Y-3802583D01*
X3035046Y-3797300D01*
X3036366Y-3802379D01*
X3038449Y-3807053D01*
X3041294Y-3811219D01*
X3044850Y-3814876D01*
X3049168Y-3817823D01*
X3054146Y-3820058D01*
X3059887Y-3821429D01*
X3066288Y-3821937D01*
X3070402Y-3821734D01*
X3074720Y-3821176D01*
X3079140Y-3820160D01*
X3083610Y-3818737D01*
X3088182Y-3816959D01*
X3092704Y-3814724D01*
X3097174Y-3812032D01*
X3101594Y-3808933D01*
X3105912Y-3805428D01*
X3110026Y-3801414D01*
X3113989Y-3796995D01*
X3117646Y-3792067D01*
X3121050Y-3786733D01*
X3124149Y-3780891D01*
X3126841Y-3774592D01*
X3129178Y-3767785D01*
X3131058Y-3760470D01*
X3132429Y-3752697D01*
X3133293Y-3744366D01*
X3133598Y-3735578D01*
X3133445Y-3729482D01*
X3133039Y-3723487D01*
X3132328Y-3717645D01*
X3131362Y-3711956D01*
X3130143Y-3706418D01*
X3126892Y-3695852D01*
X3124860Y-3690823D01*
X3122574Y-3685997D01*
X3120034Y-3681323D01*
X3117240Y-3676853D01*
X3114192Y-3672586D01*
X3110941Y-3668522D01*
X3107385Y-3664661D01*
X3103626Y-3661054D01*
X3099663Y-3657650D01*
X3095447Y-3654501D01*
X3090976Y-3651554D01*
X3086303Y-3648913D01*
X3081375Y-3646474D01*
X3076244Y-3644341D01*
X3070910Y-3642410D01*
X3065373Y-3640785D01*
X3059633Y-3639464D01*
X3053638Y-3638397D01*
X3047492Y-3637635D01*
X3041091Y-3637178D01*
G37*
G36*
X3528568Y-3648201D02*
G01*
X3520440Y-3689604D01*
X3493008Y-3692906D01*
X3493008Y-3703828D01*
X3518915Y-3703828D01*
X3518662Y-3803650D01*
X3519271Y-3812184D01*
X3521049Y-3819499D01*
X3523894Y-3825595D01*
X3527856Y-3830574D01*
X3532835Y-3834384D01*
X3538829Y-3837076D01*
X3545687Y-3838701D01*
X3553460Y-3839210D01*
X3559098Y-3838956D01*
X3564432Y-3838143D01*
X3569411Y-3836873D01*
X3574084Y-3835095D01*
X3578351Y-3832860D01*
X3582212Y-3830218D01*
X3585718Y-3827170D01*
X3588765Y-3823715D01*
X3582670Y-3816604D01*
X3576980Y-3820414D01*
X3571900Y-3823106D01*
X3566972Y-3824732D01*
X3561842Y-3825240D01*
X3554476Y-3823970D01*
X3548837Y-3819906D01*
X3545281Y-3812794D01*
X3544062Y-3802379D01*
X3544062Y-3703828D01*
X3585464Y-3703828D01*
X3585464Y-3690365D01*
X3544315Y-3690365D01*
X3546094Y-3648201D01*
G37*
G36*
X966469Y-3686301D02*
G01*
X958748Y-3686606D01*
X951433Y-3687470D01*
X944524Y-3688892D01*
X938123Y-3690874D01*
X932230Y-3693363D01*
X926896Y-3696360D01*
X922070Y-3699814D01*
X917854Y-3703777D01*
X914196Y-3708146D01*
X911250Y-3712972D01*
X908913Y-3718255D01*
X907287Y-3723894D01*
X908558Y-3728923D01*
X911148Y-3732580D01*
X915212Y-3734815D01*
X920750Y-3735578D01*
X926134Y-3734714D01*
X930503Y-3732072D01*
X933856Y-3727653D01*
X936244Y-3721354D01*
X942086Y-3700526D01*
X946708Y-3699357D01*
X951128Y-3698595D01*
X955294Y-3698138D01*
X959358Y-3697986D01*
X966622Y-3698392D01*
X972769Y-3699662D01*
X977849Y-3702050D01*
X981913Y-3705656D01*
X985012Y-3710686D01*
X987145Y-3717290D01*
X988415Y-3725621D01*
X988821Y-3735832D01*
X988821Y-3745484D01*
X970229Y-3750157D01*
X961440Y-3752748D01*
X953516Y-3755390D01*
X944168Y-3758946D01*
X935939Y-3762451D01*
X928776Y-3766007D01*
X922680Y-3769563D01*
X917549Y-3773220D01*
X913282Y-3776929D01*
X909878Y-3780739D01*
X907237Y-3784650D01*
X905256Y-3788664D01*
X903935Y-3792880D01*
X903209Y-3797554D01*
X928878Y-3797554D01*
X929132Y-3793337D01*
X930046Y-3789070D01*
X931824Y-3784803D01*
X934669Y-3780536D01*
X938733Y-3776319D01*
X944321Y-3772204D01*
X951534Y-3768191D01*
X960628Y-3764279D01*
X973124Y-3759758D01*
X988821Y-3754882D01*
X988821Y-3803650D01*
X977696Y-3811981D01*
X973124Y-3815079D01*
X969010Y-3817467D01*
X965149Y-3819296D01*
X961440Y-3820515D01*
X957732Y-3821226D01*
X953769Y-3821429D01*
X948639Y-3821074D01*
X943864Y-3820007D01*
X939647Y-3818229D01*
X935990Y-3815689D01*
X932992Y-3812387D01*
X930757Y-3808272D01*
X929386Y-3803345D01*
X928878Y-3797554D01*
X903209Y-3797554D01*
X902969Y-3801872D01*
X903325Y-3807764D01*
X904392Y-3813200D01*
X906119Y-3818077D01*
X908456Y-3822496D01*
X911352Y-3826408D01*
X914806Y-3829761D01*
X918667Y-3832656D01*
X922934Y-3834993D01*
X927608Y-3836822D01*
X932586Y-3838143D01*
X937869Y-3838956D01*
X943356Y-3839210D01*
X949960Y-3838854D01*
X956005Y-3837736D01*
X961644Y-3835857D01*
X967028Y-3833215D01*
X972312Y-3829812D01*
X977696Y-3825595D01*
X983284Y-3820617D01*
X989330Y-3814826D01*
X990600Y-3820058D01*
X992530Y-3824782D01*
X995121Y-3828846D01*
X998270Y-3832301D01*
X1002030Y-3835044D01*
X1006398Y-3837025D01*
X1011326Y-3838295D01*
X1016762Y-3838701D01*
X1024382Y-3837889D01*
X1031290Y-3835247D01*
X1037437Y-3830472D01*
X1042924Y-3823208D01*
X1037336Y-3817112D01*
X1034491Y-3820363D01*
X1031646Y-3822750D01*
X1028547Y-3824224D01*
X1025144Y-3824732D01*
X1020419Y-3823715D01*
X1016863Y-3820363D01*
X1014730Y-3814318D01*
X1013968Y-3805174D01*
X1013968Y-3738626D01*
X1013764Y-3731818D01*
X1013256Y-3725519D01*
X1012342Y-3719728D01*
X1011021Y-3714496D01*
X1009396Y-3709720D01*
X1007364Y-3705453D01*
X1004976Y-3701643D01*
X1002233Y-3698290D01*
X999083Y-3695344D01*
X995578Y-3692855D01*
X991666Y-3690823D01*
X987399Y-3689146D01*
X982726Y-3687876D01*
X977696Y-3687013D01*
X972261Y-3686454D01*
G37*
G36*
X1159002Y-3686301D02*
G01*
X1154226Y-3686505D01*
X1149400Y-3687165D01*
X1144574Y-3688232D01*
X1139748Y-3689705D01*
X1134973Y-3691585D01*
X1130198Y-3693820D01*
X1125524Y-3696411D01*
X1120952Y-3699408D01*
X1116482Y-3702710D01*
X1112113Y-3706317D01*
X1107897Y-3710279D01*
X1103884Y-3714496D01*
X1101344Y-3689350D01*
X1097280Y-3686556D01*
X1054100Y-3703320D01*
X1054100Y-3712464D01*
X1078484Y-3715004D01*
X1079042Y-3733139D01*
X1079246Y-3776776D01*
X1078738Y-3822446D01*
X1056132Y-3826001D01*
X1056132Y-3835400D01*
X1126490Y-3835400D01*
X1126490Y-3826001D01*
X1105154Y-3822446D01*
X1104798Y-3796334D01*
X1104646Y-3725926D01*
X1110538Y-3720896D01*
X1116177Y-3716629D01*
X1121664Y-3713124D01*
X1126947Y-3710330D01*
X1132179Y-3708196D01*
X1137310Y-3706723D01*
X1142441Y-3705860D01*
X1147572Y-3705606D01*
X1153769Y-3706063D01*
X1159052Y-3707485D01*
X1163421Y-3710025D01*
X1166926Y-3713784D01*
X1169619Y-3718814D01*
X1171498Y-3725214D01*
X1172616Y-3733139D01*
X1172972Y-3742690D01*
X1172870Y-3783228D01*
X1172210Y-3822446D01*
X1149604Y-3826001D01*
X1149604Y-3835400D01*
X1219962Y-3835400D01*
X1219962Y-3826001D01*
X1198626Y-3822446D01*
X1198270Y-3796588D01*
X1198118Y-3741928D01*
X1197864Y-3732529D01*
X1197000Y-3724046D01*
X1195628Y-3716528D01*
X1193749Y-3709873D01*
X1191260Y-3704132D01*
X1188262Y-3699256D01*
X1184757Y-3695192D01*
X1180642Y-3691940D01*
X1176020Y-3689400D01*
X1170889Y-3687673D01*
X1165199Y-3686657D01*
G37*
G36*
X1344422Y-3686301D02*
G01*
X1339646Y-3686505D01*
X1334820Y-3687165D01*
X1329994Y-3688232D01*
X1325168Y-3689705D01*
X1320393Y-3691585D01*
X1315618Y-3693820D01*
X1310944Y-3696411D01*
X1306372Y-3699408D01*
X1301902Y-3702710D01*
X1297533Y-3706317D01*
X1293317Y-3710279D01*
X1289304Y-3714496D01*
X1286764Y-3689350D01*
X1282700Y-3686556D01*
X1239774Y-3703320D01*
X1239774Y-3712464D01*
X1263904Y-3715004D01*
X1264818Y-3743299D01*
X1264920Y-3776776D01*
X1264158Y-3822446D01*
X1241552Y-3826001D01*
X1241552Y-3835400D01*
X1311910Y-3835400D01*
X1311910Y-3826001D01*
X1290828Y-3822446D01*
X1290472Y-3796334D01*
X1290320Y-3725926D01*
X1296111Y-3720896D01*
X1301699Y-3716629D01*
X1307134Y-3713124D01*
X1312418Y-3710330D01*
X1317599Y-3708196D01*
X1322730Y-3706723D01*
X1327861Y-3705860D01*
X1332992Y-3705606D01*
X1339189Y-3706063D01*
X1344472Y-3707485D01*
X1348841Y-3710025D01*
X1352346Y-3713784D01*
X1355039Y-3718814D01*
X1356918Y-3725214D01*
X1358036Y-3733139D01*
X1358392Y-3742690D01*
X1358239Y-3796588D01*
X1357884Y-3822446D01*
X1335278Y-3826001D01*
X1335278Y-3835400D01*
X1405636Y-3835400D01*
X1405636Y-3826001D01*
X1384046Y-3822446D01*
X1383690Y-3796588D01*
X1383538Y-3741928D01*
X1383284Y-3732529D01*
X1382420Y-3724046D01*
X1381048Y-3716528D01*
X1379169Y-3709873D01*
X1376680Y-3704132D01*
X1373682Y-3699256D01*
X1370177Y-3695192D01*
X1366062Y-3691940D01*
X1361440Y-3689400D01*
X1356309Y-3687673D01*
X1350619Y-3686657D01*
G37*
G36*
X1492250Y-3686301D02*
G01*
X1484579Y-3686606D01*
X1477314Y-3687470D01*
X1470456Y-3688892D01*
X1464106Y-3690874D01*
X1458214Y-3693363D01*
X1452829Y-3696360D01*
X1448054Y-3699814D01*
X1443786Y-3703777D01*
X1440129Y-3708146D01*
X1437132Y-3712972D01*
X1434744Y-3718255D01*
X1433068Y-3723894D01*
X1434338Y-3728923D01*
X1437081Y-3732580D01*
X1441196Y-3734815D01*
X1446784Y-3735578D01*
X1452016Y-3734714D01*
X1456334Y-3732072D01*
X1459636Y-3727653D01*
X1462024Y-3721354D01*
X1467866Y-3700526D01*
X1472641Y-3699357D01*
X1477060Y-3698595D01*
X1481226Y-3698138D01*
X1485138Y-3697986D01*
X1492402Y-3698392D01*
X1498549Y-3699662D01*
X1503629Y-3702050D01*
X1507693Y-3705656D01*
X1510792Y-3710686D01*
X1512925Y-3717290D01*
X1514195Y-3725621D01*
X1514602Y-3735832D01*
X1514602Y-3745484D01*
X1496110Y-3750157D01*
X1487271Y-3752748D01*
X1479296Y-3755390D01*
X1469948Y-3758946D01*
X1461719Y-3762451D01*
X1454556Y-3766007D01*
X1448460Y-3769563D01*
X1443329Y-3773220D01*
X1439062Y-3776929D01*
X1435658Y-3780739D01*
X1433017Y-3784650D01*
X1431036Y-3788664D01*
X1429715Y-3792880D01*
X1428989Y-3797554D01*
X1454912Y-3797554D01*
X1455166Y-3793337D01*
X1456029Y-3789070D01*
X1457756Y-3784803D01*
X1460550Y-3780536D01*
X1464614Y-3776319D01*
X1470152Y-3772204D01*
X1477314Y-3768191D01*
X1486408Y-3764279D01*
X1498904Y-3759758D01*
X1514602Y-3754882D01*
X1514602Y-3803650D01*
X1503476Y-3811981D01*
X1498904Y-3815079D01*
X1494790Y-3817467D01*
X1490929Y-3819296D01*
X1487220Y-3820515D01*
X1483512Y-3821226D01*
X1479550Y-3821429D01*
X1474419Y-3821074D01*
X1469694Y-3820007D01*
X1465478Y-3818229D01*
X1461871Y-3815689D01*
X1458976Y-3812387D01*
X1456740Y-3808272D01*
X1455369Y-3803345D01*
X1454912Y-3797554D01*
X1428989Y-3797554D01*
X1428750Y-3801872D01*
X1429105Y-3807764D01*
X1430223Y-3813200D01*
X1431950Y-3818077D01*
X1434338Y-3822496D01*
X1437233Y-3826408D01*
X1440688Y-3829761D01*
X1444599Y-3832656D01*
X1448917Y-3834993D01*
X1453591Y-3836822D01*
X1458620Y-3838143D01*
X1463903Y-3838956D01*
X1469390Y-3839210D01*
X1475892Y-3838854D01*
X1481886Y-3837736D01*
X1487474Y-3835857D01*
X1492808Y-3833215D01*
X1498092Y-3829812D01*
X1503476Y-3825595D01*
X1509064Y-3820617D01*
X1515110Y-3814826D01*
X1516380Y-3820058D01*
X1518361Y-3824782D01*
X1520952Y-3828846D01*
X1524152Y-3832301D01*
X1527962Y-3835044D01*
X1532280Y-3837025D01*
X1537157Y-3838295D01*
X1542542Y-3838701D01*
X1550162Y-3837889D01*
X1557070Y-3835247D01*
X1563217Y-3830472D01*
X1568704Y-3823208D01*
X1563116Y-3817112D01*
X1560322Y-3820363D01*
X1557477Y-3822750D01*
X1554429Y-3824224D01*
X1550924Y-3824732D01*
X1546199Y-3823715D01*
X1542694Y-3820363D01*
X1540510Y-3814318D01*
X1539748Y-3805174D01*
X1539748Y-3738626D01*
X1539544Y-3731818D01*
X1539036Y-3725519D01*
X1538122Y-3719728D01*
X1536801Y-3714496D01*
X1535176Y-3709720D01*
X1533144Y-3705453D01*
X1530756Y-3701643D01*
X1528013Y-3698290D01*
X1524863Y-3695344D01*
X1521358Y-3692855D01*
X1517446Y-3690823D01*
X1513179Y-3689146D01*
X1508506Y-3687876D01*
X1503476Y-3687013D01*
X1498041Y-3686454D01*
G37*
G36*
X1777746Y-3686301D02*
G01*
X1772970Y-3686505D01*
X1768144Y-3687165D01*
X1763318Y-3688232D01*
X1758492Y-3689705D01*
X1753717Y-3691585D01*
X1748942Y-3693820D01*
X1744268Y-3696411D01*
X1739696Y-3699408D01*
X1735226Y-3702710D01*
X1730857Y-3706317D01*
X1726641Y-3710279D01*
X1722628Y-3714496D01*
X1720342Y-3689350D01*
X1716024Y-3686556D01*
X1673098Y-3703320D01*
X1673098Y-3712464D01*
X1697228Y-3715004D01*
X1698040Y-3733139D01*
X1698243Y-3776776D01*
X1697837Y-3809898D01*
X1697482Y-3822446D01*
X1674875Y-3826001D01*
X1674875Y-3835400D01*
X1745488Y-3835400D01*
X1745488Y-3826001D01*
X1724152Y-3822446D01*
X1723796Y-3796334D01*
X1723643Y-3725926D01*
X1729435Y-3720896D01*
X1735023Y-3716629D01*
X1740458Y-3713124D01*
X1745742Y-3710330D01*
X1750923Y-3708196D01*
X1756054Y-3706723D01*
X1761185Y-3705860D01*
X1766316Y-3705606D01*
X1772513Y-3706063D01*
X1777796Y-3707485D01*
X1782165Y-3710025D01*
X1785670Y-3713784D01*
X1788363Y-3718814D01*
X1790242Y-3725214D01*
X1791360Y-3733139D01*
X1791716Y-3742690D01*
X1791563Y-3796588D01*
X1791207Y-3822446D01*
X1768602Y-3826001D01*
X1768602Y-3835400D01*
X1838960Y-3835400D01*
X1838960Y-3826001D01*
X1817370Y-3822446D01*
X1817014Y-3796588D01*
X1816862Y-3741928D01*
X1816607Y-3732529D01*
X1815744Y-3724046D01*
X1814372Y-3716528D01*
X1812493Y-3709873D01*
X1810004Y-3704132D01*
X1807006Y-3699256D01*
X1803501Y-3695192D01*
X1799386Y-3691940D01*
X1794764Y-3689400D01*
X1789633Y-3687673D01*
X1783943Y-3686657D01*
G37*
G36*
X1925574Y-3686301D02*
G01*
X1917903Y-3686606D01*
X1910638Y-3687470D01*
X1903780Y-3688892D01*
X1897430Y-3690874D01*
X1891538Y-3693363D01*
X1886153Y-3696360D01*
X1881378Y-3699814D01*
X1877110Y-3703777D01*
X1873453Y-3708146D01*
X1870456Y-3712972D01*
X1868068Y-3718255D01*
X1866392Y-3723894D01*
X1867662Y-3728923D01*
X1870405Y-3732580D01*
X1874520Y-3734815D01*
X1880107Y-3735578D01*
X1885442Y-3734714D01*
X1889709Y-3732072D01*
X1893011Y-3727653D01*
X1895348Y-3721354D01*
X1901189Y-3700526D01*
X1905965Y-3699357D01*
X1910435Y-3698595D01*
X1914652Y-3698138D01*
X1918716Y-3697986D01*
X1925878Y-3698392D01*
X1931974Y-3699662D01*
X1937004Y-3702050D01*
X1941017Y-3705656D01*
X1944116Y-3710686D01*
X1946249Y-3717290D01*
X1947519Y-3725621D01*
X1947925Y-3735832D01*
X1947925Y-3745484D01*
X1929434Y-3750157D01*
X1920595Y-3752748D01*
X1912620Y-3755390D01*
X1903272Y-3758946D01*
X1895043Y-3762451D01*
X1887880Y-3766007D01*
X1881784Y-3769563D01*
X1876653Y-3773220D01*
X1872386Y-3776929D01*
X1868982Y-3780739D01*
X1866341Y-3784650D01*
X1864360Y-3788664D01*
X1863039Y-3792880D01*
X1862313Y-3797554D01*
X1888236Y-3797554D01*
X1888489Y-3793337D01*
X1889353Y-3789070D01*
X1891080Y-3784803D01*
X1893874Y-3780536D01*
X1897938Y-3776319D01*
X1903475Y-3772204D01*
X1910638Y-3768191D01*
X1919732Y-3764279D01*
X1932228Y-3759758D01*
X1947925Y-3754882D01*
X1947925Y-3803650D01*
X1936800Y-3811981D01*
X1932228Y-3815079D01*
X1928164Y-3817467D01*
X1924354Y-3819296D01*
X1920697Y-3820515D01*
X1916988Y-3821226D01*
X1913128Y-3821429D01*
X1907895Y-3821074D01*
X1903120Y-3820007D01*
X1898904Y-3818229D01*
X1895246Y-3815689D01*
X1892300Y-3812387D01*
X1890064Y-3808272D01*
X1888693Y-3803345D01*
X1888236Y-3797554D01*
X1862313Y-3797554D01*
X1862074Y-3801872D01*
X1862429Y-3807764D01*
X1863547Y-3813200D01*
X1865274Y-3818077D01*
X1867662Y-3822496D01*
X1870557Y-3826408D01*
X1874012Y-3829761D01*
X1877923Y-3832656D01*
X1882241Y-3834993D01*
X1886915Y-3836822D01*
X1891944Y-3838143D01*
X1897227Y-3838956D01*
X1902714Y-3839210D01*
X1909216Y-3838854D01*
X1915210Y-3837736D01*
X1920798Y-3835857D01*
X1926132Y-3833215D01*
X1931416Y-3829812D01*
X1936800Y-3825595D01*
X1942388Y-3820617D01*
X1948434Y-3814826D01*
X1949704Y-3820058D01*
X1951685Y-3824782D01*
X1954275Y-3828846D01*
X1957476Y-3832301D01*
X1961286Y-3835044D01*
X1965604Y-3837025D01*
X1970481Y-3838295D01*
X1975866Y-3838701D01*
X1983486Y-3837889D01*
X1990394Y-3835247D01*
X1996541Y-3830472D01*
X2002028Y-3823208D01*
X1996439Y-3817112D01*
X1993646Y-3820363D01*
X1990801Y-3822750D01*
X1987753Y-3824224D01*
X1984248Y-3824732D01*
X1979625Y-3823715D01*
X1976069Y-3820363D01*
X1973834Y-3814318D01*
X1973072Y-3805174D01*
X1973072Y-3738626D01*
X1972868Y-3731818D01*
X1972360Y-3725519D01*
X1971446Y-3719728D01*
X1970176Y-3714496D01*
X1968550Y-3709720D01*
X1966569Y-3705453D01*
X1964182Y-3701643D01*
X1961438Y-3698290D01*
X1958289Y-3695344D01*
X1954784Y-3692855D01*
X1950872Y-3690823D01*
X1946605Y-3689146D01*
X1941931Y-3687876D01*
X1936851Y-3687013D01*
X1931416Y-3686454D01*
G37*
G36*
X2261870Y-3686301D02*
G01*
X2256536Y-3686505D01*
X2251252Y-3687114D01*
X2246071Y-3688079D01*
X2240940Y-3689451D01*
X2235911Y-3691229D01*
X2231034Y-3693363D01*
X2226360Y-3695903D01*
X2221839Y-3698849D01*
X2217521Y-3702151D01*
X2213457Y-3705809D01*
X2209698Y-3709873D01*
X2206193Y-3714343D01*
X2203043Y-3719169D01*
X2200198Y-3724351D01*
X2197709Y-3729939D01*
X2195626Y-3735832D01*
X2194001Y-3742131D01*
X2192782Y-3748836D01*
X2192020Y-3755847D01*
X2191766Y-3763264D01*
X2219706Y-3763264D01*
X2219909Y-3755542D01*
X2220417Y-3748278D01*
X2221331Y-3741470D01*
X2222550Y-3735171D01*
X2224125Y-3729329D01*
X2226005Y-3723944D01*
X2228240Y-3719118D01*
X2230780Y-3714699D01*
X2233625Y-3710838D01*
X2236825Y-3707434D01*
X2240280Y-3704590D01*
X2244039Y-3702202D01*
X2248052Y-3700373D01*
X2252421Y-3699052D01*
X2256993Y-3698240D01*
X2261870Y-3697986D01*
X2266746Y-3698240D01*
X2271369Y-3699052D01*
X2275687Y-3700373D01*
X2279751Y-3702202D01*
X2283510Y-3704590D01*
X2287016Y-3707434D01*
X2290216Y-3710838D01*
X2293061Y-3714699D01*
X2295652Y-3719118D01*
X2297887Y-3723944D01*
X2299817Y-3729329D01*
X2301392Y-3735171D01*
X2302662Y-3741470D01*
X2303576Y-3748278D01*
X2304084Y-3755542D01*
X2304288Y-3763264D01*
X2304084Y-3770934D01*
X2303576Y-3778148D01*
X2302662Y-3784854D01*
X2301392Y-3791102D01*
X2299817Y-3796842D01*
X2297887Y-3802126D01*
X2295652Y-3806901D01*
X2293061Y-3811219D01*
X2290216Y-3815029D01*
X2287016Y-3818331D01*
X2283510Y-3821125D01*
X2279751Y-3823411D01*
X2275687Y-3825189D01*
X2271369Y-3826510D01*
X2266746Y-3827272D01*
X2261870Y-3827526D01*
X2256993Y-3827272D01*
X2252421Y-3826510D01*
X2248052Y-3825189D01*
X2244039Y-3823411D01*
X2240280Y-3821125D01*
X2236825Y-3818331D01*
X2233625Y-3815029D01*
X2230780Y-3811219D01*
X2228240Y-3806901D01*
X2226005Y-3802126D01*
X2224125Y-3796842D01*
X2222550Y-3791102D01*
X2221331Y-3784854D01*
X2220417Y-3778148D01*
X2219909Y-3770934D01*
X2219706Y-3763264D01*
X2191766Y-3763264D01*
X2192020Y-3770629D01*
X2192782Y-3777589D01*
X2193950Y-3784244D01*
X2195626Y-3790492D01*
X2197658Y-3796334D01*
X2200148Y-3801872D01*
X2202942Y-3806951D01*
X2206142Y-3811727D01*
X2209596Y-3816096D01*
X2213406Y-3820109D01*
X2217420Y-3823715D01*
X2221738Y-3826967D01*
X2226208Y-3829812D01*
X2230932Y-3832301D01*
X2235809Y-3834434D01*
X2240838Y-3836162D01*
X2245969Y-3837482D01*
X2251202Y-3838448D01*
X2256536Y-3839006D01*
X2261870Y-3839210D01*
X2267254Y-3839006D01*
X2272538Y-3838448D01*
X2277821Y-3837482D01*
X2282952Y-3836162D01*
X2288032Y-3834434D01*
X2292908Y-3832351D01*
X2297633Y-3829862D01*
X2302205Y-3827018D01*
X2306523Y-3823817D01*
X2310587Y-3820210D01*
X2314397Y-3816197D01*
X2317953Y-3811828D01*
X2321153Y-3807104D01*
X2323998Y-3801973D01*
X2326487Y-3796436D01*
X2328570Y-3790594D01*
X2330246Y-3784295D01*
X2331466Y-3777691D01*
X2332228Y-3770680D01*
X2332482Y-3763264D01*
X2332228Y-3755847D01*
X2331466Y-3748786D01*
X2330246Y-3742080D01*
X2328570Y-3735730D01*
X2326436Y-3729786D01*
X2323947Y-3724249D01*
X2321102Y-3719068D01*
X2317851Y-3714242D01*
X2314346Y-3709771D01*
X2310536Y-3705707D01*
X2306421Y-3702050D01*
X2302103Y-3698748D01*
X2297531Y-3695852D01*
X2292807Y-3693312D01*
X2287930Y-3691178D01*
X2282850Y-3689451D01*
X2277719Y-3688079D01*
X2272487Y-3687064D01*
X2267204Y-3686505D01*
G37*
G36*
X2505710Y-3686301D02*
G01*
X2497378Y-3686708D01*
X2489758Y-3687876D01*
X2482799Y-3689807D01*
X2476550Y-3692347D01*
X2470962Y-3695496D01*
X2466086Y-3699154D01*
X2461920Y-3703320D01*
X2458516Y-3707841D01*
X2455824Y-3712768D01*
X2453944Y-3717950D01*
X2452776Y-3723386D01*
X2452370Y-3728974D01*
X2452674Y-3734003D01*
X2453589Y-3738676D01*
X2455011Y-3743045D01*
X2457043Y-3747109D01*
X2459532Y-3750868D01*
X2462580Y-3754323D01*
X2466035Y-3757574D01*
X2469997Y-3760520D01*
X2474315Y-3763314D01*
X2479090Y-3765854D01*
X2484221Y-3768191D01*
X2489708Y-3770376D01*
X2503932Y-3774948D01*
X2510891Y-3777792D01*
X2516835Y-3780688D01*
X2521762Y-3783634D01*
X2525674Y-3786835D01*
X2528671Y-3790238D01*
X2530754Y-3793998D01*
X2531973Y-3798214D01*
X2532380Y-3802887D01*
X2531872Y-3808171D01*
X2530246Y-3812946D01*
X2527604Y-3817162D01*
X2523794Y-3820718D01*
X2518918Y-3823614D01*
X2512872Y-3825748D01*
X2505710Y-3827068D01*
X2497328Y-3827526D01*
X2490216Y-3827221D01*
X2483713Y-3826306D01*
X2477719Y-3824732D01*
X2472182Y-3822446D01*
X2465324Y-3794251D01*
X2450846Y-3794251D01*
X2451354Y-3827779D01*
X2456992Y-3830472D01*
X2467965Y-3834739D01*
X2473502Y-3836365D01*
X2479141Y-3837584D01*
X2484983Y-3838498D01*
X2491130Y-3839006D01*
X2497582Y-3839210D01*
X2504643Y-3838956D01*
X2511298Y-3838295D01*
X2517495Y-3837228D01*
X2523236Y-3835704D01*
X2528519Y-3833825D01*
X2533396Y-3831640D01*
X2537815Y-3829100D01*
X2541727Y-3826256D01*
X2545232Y-3823157D01*
X2548280Y-3819804D01*
X2550871Y-3816197D01*
X2553004Y-3812438D01*
X2554630Y-3808476D01*
X2555798Y-3804361D01*
X2556510Y-3800094D01*
X2556764Y-3795776D01*
X2556510Y-3791051D01*
X2555748Y-3786530D01*
X2554478Y-3782212D01*
X2552598Y-3778097D01*
X2550160Y-3774186D01*
X2547162Y-3770426D01*
X2543454Y-3766870D01*
X2539136Y-3763467D01*
X2534158Y-3760266D01*
X2528468Y-3757218D01*
X2522016Y-3754323D01*
X2497074Y-3744976D01*
X2491079Y-3742232D01*
X2486152Y-3739438D01*
X2482240Y-3736492D01*
X2479294Y-3733190D01*
X2477312Y-3729532D01*
X2476093Y-3725367D01*
X2475738Y-3720592D01*
X2476246Y-3715765D01*
X2477668Y-3711397D01*
X2480056Y-3707587D01*
X2483408Y-3704386D01*
X2487625Y-3701745D01*
X2492756Y-3699814D01*
X2498801Y-3698646D01*
X2505710Y-3698240D01*
X2511247Y-3698595D01*
X2516784Y-3699713D01*
X2522270Y-3701440D01*
X2527808Y-3703828D01*
X2533650Y-3729736D01*
X2547366Y-3729736D01*
X2548382Y-3698748D01*
X2538374Y-3693363D01*
X2533294Y-3691229D01*
X2528214Y-3689502D01*
X2522931Y-3688079D01*
X2517444Y-3687114D01*
X2511755Y-3686505D01*
G37*
G36*
X2810510Y-3686301D02*
G01*
X2802788Y-3686606D01*
X2795473Y-3687470D01*
X2788564Y-3688892D01*
X2782163Y-3690874D01*
X2776270Y-3693363D01*
X2770936Y-3696360D01*
X2766110Y-3699814D01*
X2761894Y-3703777D01*
X2758236Y-3708146D01*
X2755290Y-3712972D01*
X2752953Y-3718255D01*
X2751328Y-3723894D01*
X2752598Y-3728923D01*
X2755188Y-3732580D01*
X2759252Y-3734815D01*
X2764790Y-3735578D01*
X2770174Y-3734714D01*
X2774543Y-3732072D01*
X2777896Y-3727653D01*
X2780284Y-3721354D01*
X2786126Y-3700526D01*
X2790748Y-3699357D01*
X2795168Y-3698595D01*
X2799334Y-3698138D01*
X2803398Y-3697986D01*
X2810662Y-3698392D01*
X2816809Y-3699662D01*
X2821889Y-3702050D01*
X2825953Y-3705656D01*
X2829052Y-3710686D01*
X2831185Y-3717290D01*
X2832455Y-3725621D01*
X2832862Y-3735832D01*
X2832862Y-3745484D01*
X2814269Y-3750157D01*
X2805480Y-3752748D01*
X2797556Y-3755390D01*
X2788208Y-3758946D01*
X2779979Y-3762451D01*
X2772816Y-3766007D01*
X2766720Y-3769563D01*
X2761589Y-3773220D01*
X2757322Y-3776929D01*
X2753918Y-3780739D01*
X2751277Y-3784650D01*
X2749296Y-3788664D01*
X2747975Y-3792880D01*
X2747249Y-3797554D01*
X2772918Y-3797554D01*
X2773172Y-3793337D01*
X2774086Y-3789070D01*
X2775864Y-3784803D01*
X2778709Y-3780536D01*
X2782773Y-3776319D01*
X2788361Y-3772204D01*
X2795574Y-3768191D01*
X2804668Y-3764279D01*
X2817164Y-3759758D01*
X2832862Y-3754882D01*
X2832862Y-3803650D01*
X2821736Y-3811981D01*
X2817164Y-3815079D01*
X2813050Y-3817467D01*
X2809189Y-3819296D01*
X2805480Y-3820515D01*
X2801772Y-3821226D01*
X2797810Y-3821429D01*
X2792679Y-3821074D01*
X2787904Y-3820007D01*
X2783687Y-3818229D01*
X2780030Y-3815689D01*
X2777032Y-3812387D01*
X2774797Y-3808272D01*
X2773426Y-3803345D01*
X2772918Y-3797554D01*
X2747249Y-3797554D01*
X2747010Y-3801872D01*
X2747365Y-3807764D01*
X2748483Y-3813200D01*
X2750210Y-3818077D01*
X2752598Y-3822496D01*
X2755493Y-3826408D01*
X2758948Y-3829761D01*
X2762859Y-3832656D01*
X2767177Y-3834993D01*
X2771851Y-3836822D01*
X2776880Y-3838143D01*
X2782163Y-3838956D01*
X2787650Y-3839210D01*
X2794152Y-3838854D01*
X2800146Y-3837736D01*
X2805734Y-3835857D01*
X2811068Y-3833215D01*
X2816352Y-3829812D01*
X2821736Y-3825595D01*
X2827324Y-3820617D01*
X2833370Y-3814826D01*
X2834640Y-3820058D01*
X2836570Y-3824782D01*
X2839161Y-3828846D01*
X2842310Y-3832301D01*
X2846070Y-3835044D01*
X2850438Y-3837025D01*
X2855366Y-3838295D01*
X2860802Y-3838701D01*
X2868422Y-3837889D01*
X2875330Y-3835247D01*
X2881477Y-3830472D01*
X2886964Y-3823208D01*
X2881376Y-3817112D01*
X2878582Y-3820363D01*
X2875737Y-3822750D01*
X2872689Y-3824224D01*
X2869184Y-3824732D01*
X2864459Y-3823715D01*
X2860954Y-3820363D01*
X2858770Y-3814318D01*
X2858008Y-3805174D01*
X2858008Y-3738626D01*
X2857804Y-3731818D01*
X2857296Y-3725519D01*
X2856382Y-3719728D01*
X2855112Y-3714496D01*
X2853436Y-3709720D01*
X2851404Y-3705453D01*
X2849016Y-3701643D01*
X2846273Y-3698290D01*
X2843123Y-3695344D01*
X2839618Y-3692855D01*
X2835706Y-3690823D01*
X2831439Y-3689146D01*
X2826766Y-3687876D01*
X2821736Y-3687013D01*
X2816301Y-3686454D01*
G37*
G36*
X3228340Y-3686301D02*
G01*
X3223006Y-3686505D01*
X3217722Y-3687114D01*
X3212541Y-3688079D01*
X3207410Y-3689451D01*
X3202381Y-3691229D01*
X3197504Y-3693363D01*
X3192830Y-3695903D01*
X3188309Y-3698849D01*
X3183991Y-3702151D01*
X3179927Y-3705809D01*
X3176168Y-3709873D01*
X3172663Y-3714343D01*
X3169513Y-3719169D01*
X3166668Y-3724351D01*
X3164179Y-3729939D01*
X3162096Y-3735832D01*
X3160471Y-3742131D01*
X3159252Y-3748836D01*
X3158490Y-3755847D01*
X3158236Y-3763264D01*
X3186176Y-3763264D01*
X3186379Y-3755542D01*
X3186887Y-3748278D01*
X3187801Y-3741470D01*
X3189020Y-3735171D01*
X3190595Y-3729329D01*
X3192475Y-3723944D01*
X3194710Y-3719118D01*
X3197250Y-3714699D01*
X3200095Y-3710838D01*
X3203295Y-3707434D01*
X3206750Y-3704590D01*
X3210509Y-3702202D01*
X3214522Y-3700373D01*
X3218891Y-3699052D01*
X3223463Y-3698240D01*
X3228340Y-3697986D01*
X3233216Y-3698240D01*
X3237788Y-3699052D01*
X3242157Y-3700373D01*
X3246170Y-3702202D01*
X3249930Y-3704590D01*
X3253384Y-3707434D01*
X3256584Y-3710838D01*
X3259429Y-3714699D01*
X3261969Y-3719118D01*
X3264204Y-3723944D01*
X3266084Y-3729329D01*
X3267659Y-3735171D01*
X3268878Y-3741470D01*
X3269792Y-3748278D01*
X3270300Y-3755542D01*
X3270503Y-3763264D01*
X3270300Y-3770934D01*
X3269792Y-3778148D01*
X3268878Y-3784854D01*
X3267659Y-3791102D01*
X3266084Y-3796842D01*
X3264204Y-3802126D01*
X3261969Y-3806901D01*
X3259429Y-3811219D01*
X3256584Y-3815029D01*
X3253384Y-3818331D01*
X3249930Y-3821125D01*
X3246170Y-3823411D01*
X3242157Y-3825189D01*
X3237788Y-3826510D01*
X3233216Y-3827272D01*
X3228340Y-3827526D01*
X3223463Y-3827272D01*
X3218891Y-3826510D01*
X3214522Y-3825189D01*
X3210509Y-3823411D01*
X3206750Y-3821125D01*
X3203295Y-3818331D01*
X3200095Y-3815029D01*
X3197250Y-3811219D01*
X3194710Y-3806901D01*
X3192475Y-3802126D01*
X3190595Y-3796842D01*
X3189020Y-3791102D01*
X3187801Y-3784854D01*
X3186887Y-3778148D01*
X3186379Y-3770934D01*
X3186176Y-3763264D01*
X3158236Y-3763264D01*
X3158490Y-3770629D01*
X3159201Y-3777589D01*
X3160420Y-3784244D01*
X3162046Y-3790492D01*
X3164128Y-3796334D01*
X3166567Y-3801872D01*
X3169361Y-3806951D01*
X3172510Y-3811727D01*
X3176016Y-3816096D01*
X3179775Y-3820109D01*
X3183788Y-3823715D01*
X3188106Y-3826967D01*
X3192576Y-3829812D01*
X3197301Y-3832301D01*
X3202178Y-3834434D01*
X3207207Y-3836162D01*
X3212338Y-3837482D01*
X3217621Y-3838448D01*
X3222955Y-3839006D01*
X3228340Y-3839210D01*
X3233724Y-3839006D01*
X3239008Y-3838448D01*
X3244291Y-3837482D01*
X3249422Y-3836162D01*
X3254502Y-3834434D01*
X3259378Y-3832351D01*
X3264103Y-3829862D01*
X3268675Y-3827018D01*
X3272993Y-3823817D01*
X3277057Y-3820210D01*
X3280867Y-3816197D01*
X3284423Y-3811828D01*
X3287623Y-3807104D01*
X3290468Y-3801973D01*
X3292957Y-3796436D01*
X3295040Y-3790594D01*
X3296716Y-3784295D01*
X3297936Y-3777691D01*
X3298698Y-3770680D01*
X3298951Y-3763264D01*
X3298698Y-3755847D01*
X3297936Y-3748786D01*
X3296716Y-3742080D01*
X3295040Y-3735730D01*
X3292906Y-3729786D01*
X3290417Y-3724249D01*
X3287572Y-3719068D01*
X3284321Y-3714242D01*
X3280816Y-3709771D01*
X3277006Y-3705707D01*
X3272891Y-3702050D01*
X3268573Y-3698748D01*
X3264001Y-3695852D01*
X3259277Y-3693312D01*
X3254400Y-3691178D01*
X3249320Y-3689451D01*
X3244189Y-3688079D01*
X3238957Y-3687064D01*
X3233674Y-3686505D01*
G37*
G36*
X3766058Y-3686301D02*
G01*
X3760724Y-3686505D01*
X3755390Y-3687114D01*
X3750157Y-3688079D01*
X3745026Y-3689451D01*
X3739997Y-3691229D01*
X3735120Y-3693363D01*
X3730396Y-3695903D01*
X3725926Y-3698849D01*
X3721608Y-3702151D01*
X3717594Y-3705809D01*
X3713784Y-3709873D01*
X3710330Y-3714343D01*
X3707129Y-3719169D01*
X3704336Y-3724351D01*
X3701846Y-3729939D01*
X3699814Y-3735832D01*
X3698138Y-3742131D01*
X3696970Y-3748836D01*
X3696208Y-3755847D01*
X3695954Y-3763264D01*
X3723894Y-3763264D01*
X3724046Y-3755542D01*
X3724605Y-3748278D01*
X3725468Y-3741470D01*
X3726687Y-3735171D01*
X3728262Y-3729329D01*
X3730142Y-3723944D01*
X3732326Y-3719118D01*
X3734866Y-3714699D01*
X3737711Y-3710838D01*
X3740861Y-3707434D01*
X3744366Y-3704590D01*
X3748125Y-3702202D01*
X3752189Y-3700373D01*
X3756507Y-3699052D01*
X3761130Y-3698240D01*
X3766058Y-3697986D01*
X3770884Y-3698240D01*
X3775456Y-3699052D01*
X3779774Y-3700373D01*
X3783787Y-3702202D01*
X3787546Y-3704590D01*
X3791000Y-3707434D01*
X3794201Y-3710838D01*
X3797046Y-3714699D01*
X3799586Y-3719118D01*
X3801821Y-3723944D01*
X3803751Y-3729329D01*
X3805326Y-3735171D01*
X3806596Y-3741470D01*
X3807510Y-3748278D01*
X3808018Y-3755542D01*
X3808222Y-3763264D01*
X3808018Y-3770934D01*
X3807510Y-3778148D01*
X3806596Y-3784854D01*
X3805326Y-3791102D01*
X3803751Y-3796842D01*
X3801821Y-3802126D01*
X3799586Y-3806901D01*
X3797046Y-3811219D01*
X3794201Y-3815029D01*
X3791000Y-3818331D01*
X3787546Y-3821125D01*
X3783787Y-3823411D01*
X3779774Y-3825189D01*
X3775456Y-3826510D01*
X3770884Y-3827272D01*
X3766058Y-3827526D01*
X3761130Y-3827272D01*
X3756507Y-3826510D01*
X3752189Y-3825189D01*
X3748125Y-3823411D01*
X3744366Y-3821125D01*
X3740861Y-3818331D01*
X3737711Y-3815029D01*
X3734866Y-3811219D01*
X3732326Y-3806901D01*
X3730142Y-3802126D01*
X3728262Y-3796842D01*
X3726687Y-3791102D01*
X3725468Y-3784854D01*
X3724605Y-3778148D01*
X3724046Y-3770934D01*
X3723894Y-3763264D01*
X3695954Y-3763264D01*
X3696208Y-3770629D01*
X3696919Y-3777589D01*
X3698138Y-3784244D01*
X3699764Y-3790492D01*
X3701846Y-3796334D01*
X3704285Y-3801872D01*
X3707079Y-3806951D01*
X3710228Y-3811727D01*
X3713734Y-3816096D01*
X3717493Y-3820109D01*
X3721506Y-3823715D01*
X3725824Y-3826967D01*
X3730294Y-3829812D01*
X3735019Y-3832301D01*
X3739896Y-3834434D01*
X3744925Y-3836162D01*
X3750056Y-3837482D01*
X3755339Y-3838448D01*
X3760673Y-3839006D01*
X3766058Y-3839210D01*
X3771392Y-3839006D01*
X3776726Y-3838448D01*
X3781958Y-3837482D01*
X3787140Y-3836162D01*
X3792169Y-3834434D01*
X3797046Y-3832351D01*
X3801770Y-3829862D01*
X3806291Y-3827018D01*
X3810609Y-3823817D01*
X3814673Y-3820210D01*
X3818483Y-3816197D01*
X3821988Y-3811828D01*
X3825138Y-3807104D01*
X3827983Y-3801973D01*
X3830472Y-3796436D01*
X3832555Y-3790594D01*
X3834180Y-3784295D01*
X3835400Y-3777691D01*
X3836162Y-3770680D01*
X3836415Y-3763264D01*
X3836162Y-3755847D01*
X3835400Y-3748786D01*
X3834180Y-3742080D01*
X3832504Y-3735730D01*
X3830370Y-3729786D01*
X3827881Y-3724249D01*
X3825036Y-3719068D01*
X3821836Y-3714242D01*
X3818280Y-3709771D01*
X3814470Y-3705707D01*
X3810406Y-3702050D01*
X3806088Y-3698748D01*
X3801567Y-3695852D01*
X3796842Y-3693312D01*
X3791965Y-3691178D01*
X3786936Y-3689451D01*
X3781806Y-3688079D01*
X3776624Y-3687064D01*
X3771341Y-3686505D01*
G37*
G36*
X3933951Y-3686301D02*
G01*
X3928618Y-3686505D01*
X3923284Y-3687114D01*
X3918051Y-3688079D01*
X3912920Y-3689451D01*
X3907891Y-3691229D01*
X3903014Y-3693363D01*
X3898290Y-3695903D01*
X3893820Y-3698849D01*
X3889501Y-3702151D01*
X3885488Y-3705809D01*
X3881678Y-3709873D01*
X3878224Y-3714343D01*
X3875024Y-3719169D01*
X3872229Y-3724351D01*
X3869740Y-3729939D01*
X3867708Y-3735832D01*
X3866032Y-3742131D01*
X3864864Y-3748836D01*
X3864101Y-3755847D01*
X3863848Y-3763264D01*
X3891787Y-3763264D01*
X3891940Y-3755542D01*
X3892499Y-3748278D01*
X3893362Y-3741470D01*
X3894582Y-3735171D01*
X3896156Y-3729329D01*
X3898036Y-3723944D01*
X3900220Y-3719118D01*
X3902760Y-3714699D01*
X3905605Y-3710838D01*
X3908755Y-3707434D01*
X3912260Y-3704590D01*
X3916019Y-3702202D01*
X3920083Y-3700373D01*
X3924401Y-3699052D01*
X3929024Y-3698240D01*
X3933951Y-3697986D01*
X3938778Y-3698240D01*
X3943350Y-3699052D01*
X3947668Y-3700373D01*
X3951681Y-3702202D01*
X3955440Y-3704590D01*
X3958894Y-3707434D01*
X3962095Y-3710838D01*
X3964940Y-3714699D01*
X3967479Y-3719118D01*
X3969715Y-3723944D01*
X3971645Y-3729329D01*
X3973220Y-3735171D01*
X3974490Y-3741470D01*
X3975404Y-3748278D01*
X3975912Y-3755542D01*
X3976115Y-3763264D01*
X3975912Y-3770934D01*
X3975404Y-3778148D01*
X3974490Y-3784854D01*
X3973220Y-3791102D01*
X3971645Y-3796842D01*
X3969715Y-3802126D01*
X3967479Y-3806901D01*
X3964940Y-3811219D01*
X3962095Y-3815029D01*
X3958894Y-3818331D01*
X3955440Y-3821125D01*
X3951681Y-3823411D01*
X3947668Y-3825189D01*
X3943350Y-3826510D01*
X3938778Y-3827272D01*
X3933951Y-3827526D01*
X3929024Y-3827272D01*
X3924401Y-3826510D01*
X3920083Y-3825189D01*
X3916019Y-3823411D01*
X3912260Y-3821125D01*
X3908755Y-3818331D01*
X3905605Y-3815029D01*
X3902760Y-3811219D01*
X3900220Y-3806901D01*
X3898036Y-3802126D01*
X3896156Y-3796842D01*
X3894582Y-3791102D01*
X3893362Y-3784854D01*
X3892499Y-3778148D01*
X3891940Y-3770934D01*
X3891787Y-3763264D01*
X3863848Y-3763264D01*
X3864101Y-3770629D01*
X3864813Y-3777589D01*
X3866032Y-3784244D01*
X3867658Y-3790492D01*
X3869740Y-3796334D01*
X3872179Y-3801872D01*
X3874973Y-3806951D01*
X3878122Y-3811727D01*
X3881628Y-3816096D01*
X3885387Y-3820109D01*
X3889400Y-3823715D01*
X3893718Y-3826967D01*
X3898188Y-3829812D01*
X3902913Y-3832301D01*
X3907790Y-3834434D01*
X3912819Y-3836162D01*
X3917950Y-3837482D01*
X3923233Y-3838448D01*
X3928567Y-3839006D01*
X3933951Y-3839210D01*
X3939286Y-3839006D01*
X3944620Y-3838448D01*
X3949852Y-3837482D01*
X3955034Y-3836162D01*
X3960063Y-3834434D01*
X3964940Y-3832351D01*
X3969664Y-3829862D01*
X3974185Y-3827018D01*
X3978503Y-3823817D01*
X3982567Y-3820210D01*
X3986377Y-3816197D01*
X3989882Y-3811828D01*
X3993032Y-3807104D01*
X3995877Y-3801973D01*
X3998366Y-3796436D01*
X4000449Y-3790594D01*
X4002074Y-3784295D01*
X4003294Y-3777691D01*
X4004056Y-3770680D01*
X4004310Y-3763264D01*
X4004056Y-3755847D01*
X4003294Y-3748786D01*
X4002074Y-3742080D01*
X4000398Y-3735730D01*
X3998315Y-3729786D01*
X3995826Y-3724249D01*
X3992981Y-3719068D01*
X3989781Y-3714242D01*
X3986276Y-3709771D01*
X3982465Y-3705707D01*
X3978401Y-3702050D01*
X3974084Y-3698748D01*
X3969562Y-3695852D01*
X3964838Y-3693312D01*
X3959961Y-3691178D01*
X3954932Y-3689451D01*
X3949801Y-3688079D01*
X3944569Y-3687064D01*
X3939286Y-3686505D01*
G37*
G36*
X4351274Y-3686301D02*
G01*
X4345736Y-3686505D01*
X4340250Y-3687165D01*
X4334865Y-3688232D01*
X4329633Y-3689654D01*
X4324502Y-3691534D01*
X4319524Y-3693820D01*
X4314698Y-3696462D01*
X4310126Y-3699510D01*
X4305757Y-3702913D01*
X4301693Y-3706672D01*
X4297883Y-3710838D01*
X4294327Y-3715308D01*
X4291126Y-3720185D01*
X4288332Y-3725367D01*
X4285843Y-3730904D01*
X4283760Y-3736746D01*
X4282084Y-3742893D01*
X4280916Y-3749395D01*
X4280154Y-3756151D01*
X4279900Y-3763264D01*
X4280103Y-3770122D01*
X4280712Y-3776726D01*
X4281728Y-3783076D01*
X4283100Y-3789121D01*
X4284878Y-3794861D01*
X4287012Y-3800297D01*
X4289450Y-3805377D01*
X4292295Y-3810203D01*
X4295444Y-3814622D01*
X4298899Y-3818788D01*
X4302658Y-3822547D01*
X4306722Y-3825951D01*
X4311091Y-3828999D01*
X4315714Y-3831640D01*
X4320641Y-3833926D01*
X4325772Y-3835806D01*
X4331157Y-3837279D01*
X4336796Y-3838346D01*
X4342688Y-3839006D01*
X4348734Y-3839210D01*
X4355693Y-3838905D01*
X4362297Y-3838092D01*
X4368444Y-3836720D01*
X4374184Y-3834790D01*
X4379569Y-3832351D01*
X4384497Y-3829405D01*
X4389069Y-3825951D01*
X4393184Y-3822039D01*
X4396943Y-3817670D01*
X4400245Y-3812844D01*
X4403140Y-3807561D01*
X4405630Y-3801872D01*
X4399280Y-3799078D01*
X4395419Y-3804208D01*
X4390999Y-3808780D01*
X4386173Y-3812743D01*
X4380890Y-3816045D01*
X4375251Y-3818686D01*
X4369308Y-3820617D01*
X4363059Y-3821785D01*
X4356608Y-3822192D01*
X4351223Y-3821937D01*
X4346041Y-3821176D01*
X4341114Y-3819855D01*
X4336389Y-3818077D01*
X4331919Y-3815791D01*
X4327753Y-3813048D01*
X4323943Y-3809796D01*
X4320387Y-3806088D01*
X4317187Y-3801922D01*
X4314342Y-3797300D01*
X4311904Y-3792220D01*
X4309872Y-3786733D01*
X4308246Y-3780790D01*
X4307027Y-3774440D01*
X4306316Y-3767632D01*
X4306062Y-3760470D01*
X4306265Y-3753256D01*
X4306925Y-3746398D01*
X4307992Y-3739997D01*
X4309465Y-3734003D01*
X4311345Y-3728415D01*
X4313580Y-3723284D01*
X4316171Y-3718610D01*
X4319066Y-3714394D01*
X4322318Y-3710584D01*
X4325924Y-3707333D01*
X4329785Y-3704488D01*
X4333900Y-3702202D01*
X4338320Y-3700373D01*
X4342993Y-3699052D01*
X4347921Y-3698240D01*
X4353052Y-3697986D01*
X4356760Y-3698138D01*
X4360824Y-3698646D01*
X4365142Y-3699510D01*
X4369562Y-3700779D01*
X4375404Y-3722370D01*
X4377182Y-3728212D01*
X4380382Y-3732733D01*
X4385157Y-3735578D01*
X4391660Y-3736594D01*
X4396486Y-3735882D01*
X4400346Y-3733749D01*
X4403140Y-3730294D01*
X4404868Y-3725418D01*
X4403496Y-3719880D01*
X4401362Y-3714648D01*
X4398619Y-3709771D01*
X4395216Y-3705250D01*
X4391253Y-3701084D01*
X4386732Y-3697376D01*
X4381754Y-3694125D01*
X4376369Y-3691432D01*
X4370527Y-3689248D01*
X4364380Y-3687622D01*
X4357979Y-3686657D01*
G37*
G36*
X4500372Y-3686301D02*
G01*
X4495038Y-3686505D01*
X4489704Y-3687114D01*
X4484471Y-3688079D01*
X4479290Y-3689451D01*
X4474260Y-3691229D01*
X4469384Y-3693363D01*
X4464659Y-3695903D01*
X4460138Y-3698849D01*
X4455820Y-3702151D01*
X4451756Y-3705809D01*
X4447946Y-3709873D01*
X4444441Y-3714343D01*
X4441291Y-3719169D01*
X4438446Y-3724351D01*
X4435957Y-3729939D01*
X4433874Y-3735832D01*
X4432249Y-3742131D01*
X4431030Y-3748836D01*
X4430268Y-3755847D01*
X4430014Y-3763264D01*
X4457954Y-3763264D01*
X4458157Y-3755542D01*
X4458665Y-3748278D01*
X4459579Y-3741470D01*
X4460798Y-3735171D01*
X4462373Y-3729329D01*
X4464253Y-3723944D01*
X4466488Y-3719118D01*
X4469079Y-3714699D01*
X4471924Y-3710838D01*
X4475124Y-3707434D01*
X4478578Y-3704590D01*
X4482388Y-3702202D01*
X4486452Y-3700373D01*
X4490821Y-3699052D01*
X4495444Y-3698240D01*
X4500372Y-3697986D01*
X4505198Y-3698240D01*
X4509770Y-3699052D01*
X4514088Y-3700373D01*
X4518101Y-3702202D01*
X4521860Y-3704590D01*
X4525314Y-3707434D01*
X4528515Y-3710838D01*
X4531360Y-3714699D01*
X4533900Y-3719118D01*
X4536135Y-3723944D01*
X4538065Y-3729329D01*
X4539640Y-3735171D01*
X4540910Y-3741470D01*
X4541824Y-3748278D01*
X4542332Y-3755542D01*
X4542536Y-3763264D01*
X4542332Y-3770934D01*
X4541824Y-3778148D01*
X4540910Y-3784854D01*
X4539640Y-3791102D01*
X4538065Y-3796842D01*
X4536135Y-3802126D01*
X4533900Y-3806901D01*
X4531360Y-3811219D01*
X4528515Y-3815029D01*
X4525314Y-3818331D01*
X4521860Y-3821125D01*
X4518101Y-3823411D01*
X4514088Y-3825189D01*
X4509770Y-3826510D01*
X4505198Y-3827272D01*
X4500372Y-3827526D01*
X4495444Y-3827272D01*
X4490821Y-3826510D01*
X4486452Y-3825189D01*
X4482388Y-3823411D01*
X4478578Y-3821125D01*
X4475124Y-3818331D01*
X4471924Y-3815029D01*
X4469079Y-3811219D01*
X4466488Y-3806901D01*
X4464253Y-3802126D01*
X4462373Y-3796842D01*
X4460798Y-3791102D01*
X4459579Y-3784854D01*
X4458665Y-3778148D01*
X4458157Y-3770934D01*
X4457954Y-3763264D01*
X4430014Y-3763264D01*
X4430268Y-3770629D01*
X4431030Y-3777589D01*
X4432198Y-3784244D01*
X4433874Y-3790492D01*
X4435957Y-3796334D01*
X4438396Y-3801872D01*
X4441240Y-3806951D01*
X4444390Y-3811727D01*
X4447895Y-3816096D01*
X4451654Y-3820109D01*
X4455718Y-3823715D01*
X4460036Y-3826967D01*
X4464558Y-3829812D01*
X4469282Y-3832301D01*
X4474159Y-3834434D01*
X4479188Y-3836162D01*
X4484370Y-3837482D01*
X4489653Y-3838448D01*
X4494987Y-3839006D01*
X4500372Y-3839210D01*
X4505706Y-3839006D01*
X4510989Y-3838448D01*
X4516221Y-3837482D01*
X4521352Y-3836162D01*
X4526381Y-3834434D01*
X4531258Y-3832351D01*
X4535982Y-3829862D01*
X4540504Y-3827018D01*
X4544822Y-3823817D01*
X4548886Y-3820210D01*
X4552696Y-3816197D01*
X4556201Y-3811828D01*
X4559401Y-3807104D01*
X4562246Y-3801973D01*
X4564735Y-3796436D01*
X4566818Y-3790594D01*
X4568494Y-3784295D01*
X4569714Y-3777691D01*
X4570476Y-3770680D01*
X4570730Y-3763264D01*
X4570476Y-3755847D01*
X4569714Y-3748786D01*
X4568494Y-3742080D01*
X4566818Y-3735730D01*
X4564684Y-3729786D01*
X4562195Y-3724249D01*
X4559350Y-3719068D01*
X4556150Y-3714242D01*
X4552594Y-3709771D01*
X4548784Y-3705707D01*
X4544720Y-3702050D01*
X4540402Y-3698748D01*
X4535881Y-3695852D01*
X4531156Y-3693312D01*
X4526280Y-3691178D01*
X4521250Y-3689451D01*
X4516120Y-3688079D01*
X4510938Y-3687064D01*
X4505655Y-3686505D01*
G37*
G36*
X4697730Y-3686301D02*
G01*
X4693056Y-3686505D01*
X4688382Y-3687165D01*
X4683658Y-3688232D01*
X4678984Y-3689705D01*
X4674311Y-3691585D01*
X4669739Y-3693820D01*
X4665218Y-3696360D01*
X4660747Y-3699306D01*
X4656429Y-3702608D01*
X4652264Y-3706164D01*
X4648250Y-3710076D01*
X4644390Y-3714242D01*
X4641850Y-3689350D01*
X4637786Y-3686556D01*
X4594606Y-3703320D01*
X4594606Y-3712464D01*
X4618990Y-3715004D01*
X4619447Y-3723995D01*
X4619752Y-3743299D01*
X4619599Y-3796334D01*
X4619244Y-3822446D01*
X4596638Y-3826001D01*
X4596638Y-3835400D01*
X4666996Y-3835400D01*
X4666996Y-3826001D01*
X4645914Y-3822446D01*
X4645253Y-3789527D01*
X4645152Y-3725926D01*
X4650892Y-3720998D01*
X4656328Y-3716782D01*
X4661560Y-3713327D01*
X4666640Y-3710584D01*
X4671618Y-3708450D01*
X4676597Y-3706977D01*
X4681677Y-3706114D01*
X4686808Y-3705860D01*
X4692853Y-3706317D01*
X4698034Y-3707739D01*
X4702352Y-3710228D01*
X4705858Y-3713937D01*
X4708550Y-3718915D01*
X4710430Y-3725367D01*
X4711598Y-3733342D01*
X4711954Y-3742944D01*
X4711801Y-3796588D01*
X4711446Y-3822446D01*
X4688332Y-3826001D01*
X4688332Y-3835400D01*
X4758690Y-3835400D01*
X4758690Y-3826001D01*
X4737608Y-3822446D01*
X4737049Y-3796588D01*
X4736846Y-3741928D01*
X4736642Y-3733596D01*
X4736084Y-3726179D01*
X4742027Y-3721100D01*
X4747666Y-3716782D01*
X4753051Y-3713276D01*
X4758283Y-3710482D01*
X4763312Y-3708400D01*
X4768291Y-3706977D01*
X4773117Y-3706114D01*
X4777994Y-3705860D01*
X4784140Y-3706266D01*
X4789373Y-3707587D01*
X4793792Y-3709924D01*
X4797399Y-3713479D01*
X4800142Y-3718356D01*
X4802124Y-3724706D01*
X4803241Y-3732682D01*
X4803648Y-3742436D01*
X4803495Y-3796588D01*
X4803140Y-3822446D01*
X4780534Y-3826001D01*
X4780534Y-3835400D01*
X4850638Y-3835400D01*
X4850638Y-3826001D01*
X4829048Y-3822446D01*
X4828692Y-3796588D01*
X4828540Y-3739387D01*
X4828235Y-3730396D01*
X4827371Y-3722319D01*
X4825949Y-3715105D01*
X4823917Y-3708806D01*
X4821377Y-3703320D01*
X4818329Y-3698646D01*
X4814722Y-3694785D01*
X4810607Y-3691636D01*
X4806035Y-3689299D01*
X4800955Y-3687622D01*
X4795418Y-3686606D01*
X4789424Y-3686301D01*
X4784547Y-3686505D01*
X4779670Y-3687064D01*
X4774793Y-3688029D01*
X4769967Y-3689400D01*
X4765192Y-3691178D01*
X4760518Y-3693312D01*
X4755845Y-3695903D01*
X4751273Y-3698849D01*
X4746802Y-3702253D01*
X4742434Y-3706063D01*
X4738166Y-3710330D01*
X4734052Y-3715004D01*
X4731766Y-3707993D01*
X4728819Y-3702050D01*
X4725263Y-3697122D01*
X4721047Y-3693109D01*
X4716170Y-3690112D01*
X4710684Y-3687978D01*
X4704537Y-3686708D01*
G37*
G36*
X3363214Y-3688079D02*
G01*
X3318001Y-3692651D01*
X3318001Y-3701542D01*
X3340100Y-3706114D01*
X3339337Y-3784092D01*
X3339592Y-3793693D01*
X3340455Y-3802278D01*
X3341979Y-3809847D01*
X3344011Y-3816451D01*
X3346653Y-3822090D01*
X3349853Y-3826865D01*
X3353562Y-3830828D01*
X3357778Y-3833926D01*
X3362451Y-3836314D01*
X3367582Y-3837940D01*
X3373221Y-3838905D01*
X3379215Y-3839210D01*
X3384042Y-3839006D01*
X3388868Y-3838397D01*
X3393694Y-3837381D01*
X3398469Y-3836009D01*
X3403193Y-3834180D01*
X3407867Y-3831945D01*
X3412439Y-3829354D01*
X3416960Y-3826357D01*
X3421379Y-3822903D01*
X3425647Y-3819093D01*
X3429812Y-3814876D01*
X3433826Y-3810254D01*
X3436620Y-3837940D01*
X3479037Y-3835400D01*
X3479037Y-3826256D01*
X3458210Y-3822954D01*
X3458210Y-3734562D01*
X3458972Y-3691128D01*
X3456178Y-3688079D01*
X3411982Y-3692906D01*
X3411982Y-3702050D01*
X3433826Y-3706368D01*
X3433064Y-3799332D01*
X3427984Y-3804056D01*
X3422802Y-3808171D01*
X3417519Y-3811574D01*
X3412185Y-3814419D01*
X3406749Y-3816604D01*
X3401263Y-3818178D01*
X3395726Y-3819093D01*
X3390137Y-3819398D01*
X3384245Y-3818940D01*
X3379114Y-3817518D01*
X3374745Y-3814978D01*
X3371138Y-3811270D01*
X3368344Y-3806291D01*
X3366363Y-3799890D01*
X3365144Y-3792016D01*
X3364737Y-3782568D01*
X3364737Y-3734562D01*
X3366262Y-3691128D01*
G37*
G36*
X1616456Y-3797554D02*
G01*
X1608429Y-3799230D01*
X1601876Y-3803853D01*
X1597507Y-3810609D01*
X1595882Y-3818890D01*
X1597507Y-3826662D01*
X1601876Y-3833164D01*
X1608429Y-3837584D01*
X1616456Y-3839210D01*
X1624787Y-3837584D01*
X1631492Y-3833164D01*
X1635912Y-3826662D01*
X1637538Y-3818890D01*
X1635912Y-3810609D01*
X1631492Y-3803853D01*
X1624787Y-3799230D01*
G37*
G36*
X4229608Y-3797554D02*
G01*
X4221530Y-3799230D01*
X4214926Y-3803853D01*
X4210405Y-3810609D01*
X4208780Y-3818890D01*
X4210405Y-3826662D01*
X4214926Y-3833164D01*
X4221530Y-3837584D01*
X4229608Y-3839210D01*
X4237786Y-3837584D01*
X4244390Y-3833164D01*
X4248810Y-3826662D01*
X4250436Y-3818890D01*
X4248810Y-3810609D01*
X4244390Y-3803853D01*
X4237786Y-3799230D01*
G37*
D10*
X5734811Y-2501900D02*
G01*
X5729477Y-2491486D01*
X5713984Y-2475992D01*
X5822950Y-2475992D01*
X4571491Y-2487421D02*
G01*
X4561077Y-2492755D01*
X4550663Y-2503170D01*
X4545584Y-2513329D01*
X4545584Y-2534157D01*
X4550663Y-2544571D01*
X4561077Y-2554986D01*
X4571491Y-2560320D01*
X4587240Y-2565400D01*
X4613147Y-2565400D01*
X4628641Y-2560320D01*
X4639056Y-2554986D01*
X4649470Y-2544571D01*
X4654550Y-2534157D01*
X4654550Y-2513329D01*
X4649470Y-2503170D01*
X4639056Y-2492755D01*
X4628641Y-2487421D01*
X4566411Y-2453131D02*
G01*
X4561077Y-2442718D01*
X4545584Y-2427223D01*
X4654550Y-2427223D01*
X1928748Y-2223388D02*
G01*
X1928748Y-2114422D01*
X1928748Y-2114422D02*
G01*
X1866519Y-2114422D01*
X1832229Y-2223388D02*
G01*
X1832229Y-2114422D01*
X1832229Y-2223388D02*
G01*
X1764664Y-2223388D01*
X1832229Y-2171572D02*
G01*
X1790572Y-2171572D01*
X1832229Y-2114422D02*
G01*
X1764664Y-2114422D01*
X1730375Y-2223388D02*
G01*
X1730375Y-2114422D01*
X1730375Y-2223388D02*
G01*
X1693798Y-2223388D01*
X1678304Y-2218309D01*
X1667890Y-2207895D01*
X1662811Y-2197480D01*
X1657477Y-2181732D01*
X1657477Y-2155825D01*
X1662811Y-2140330D01*
X1667890Y-2129917D01*
X1678304Y-2119503D01*
X1693798Y-2114422D01*
X1730375Y-2114422D01*
X1623187Y-2202561D02*
G01*
X1612772Y-2207895D01*
X1597279Y-2223388D01*
X1597279Y-2114422D01*
X4126484Y-2552700D02*
G01*
X4235450Y-2552700D01*
X4126484Y-2552700D02*
G01*
X4126484Y-2505963D01*
X4131563Y-2490470D01*
X4136897Y-2485136D01*
X4147311Y-2480055D01*
X4157725Y-2480055D01*
X4168140Y-2485136D01*
X4173220Y-2490470D01*
X4178300Y-2505963D01*
X4178300Y-2552700D01*
X4178300Y-2516378D02*
G01*
X4235450Y-2480055D01*
X4147311Y-2445765D02*
G01*
X4141977Y-2435352D01*
X4126484Y-2419604D01*
X4235450Y-2419604D01*
X5010256Y-2543959D02*
G01*
X5088234Y-2543959D01*
X5103728Y-2538879D01*
X5114142Y-2528465D01*
X5119222Y-2512717D01*
X5119222Y-2502303D01*
X5114142Y-2486809D01*
X5103728Y-2476395D01*
X5088234Y-2471315D01*
X5010256Y-2471315D01*
X5031084Y-2437025D02*
G01*
X5025750Y-2426611D01*
X5010256Y-2410863D01*
X5119222Y-2410863D01*
D11*
X4722522Y-2400998D02*
G01*
X4802525Y-2400998D01*
X4691537Y-2511973D02*
G01*
X4691537Y-2431976D01*
X4833503Y-2511973D02*
G01*
X4833503Y-2431976D01*
X4690955Y-2569563D02*
G01*
X4690955Y-2649562D01*
X4721938Y-2680545D02*
G01*
X4801936Y-2680545D01*
X4832916Y-2569563D02*
G01*
X4832916Y-2649562D01*
X1885000Y-2031199D02*
G01*
X1924999Y-1991199D01*
X1934999Y-1981200D01*
X1924999Y-1971174D01*
X1885000Y-1931174D01*
X1885000Y-2031199D02*
G01*
X1885000Y-1931174D01*
X1860677Y-1879472D02*
G01*
X1705737Y-1879472D01*
X1705737Y-2082672D01*
X1860677Y-2082672D01*
X1939416Y-1876932D02*
G01*
X2086736Y-1876932D01*
X2127377Y-1917572D01*
X2127377Y-2044572D01*
X2089277Y-2082672D01*
X1936877Y-2082672D01*
D10*
X4409460Y-2510078D02*
G01*
X4409460Y-2414191D01*
X4277339Y-2414191D01*
X4277339Y-2510078D01*
X4409460Y-2595321D02*
G01*
X4409460Y-2691208D01*
X4277339Y-2691208D01*
X4277339Y-2595321D01*
D11*
X5170497Y-2441486D02*
G01*
X5170497Y-2427297D01*
X5237990Y-2627299D02*
G01*
X5170497Y-2627299D01*
X5170497Y-2613103D01*
X5370497Y-2613103D02*
G01*
X5370497Y-2627299D01*
X5302991Y-2627299D01*
X5370497Y-2427297D02*
G01*
X5370497Y-2441486D01*
X5302991Y-2427297D02*
G01*
X5370497Y-2427297D01*
X5170497Y-2427297D02*
G01*
X5237990Y-2427297D01*
G75*
G01*
X4721939Y-2680551D02*
G02*
X4690956Y-2649568I0J30983D01*
G75*
G01*
X4832922Y-2649568D02*
G02*
X4801936Y-2680551I-30983J0D01*
G75*
G01*
X4691537Y-2431981D02*
G02*
X4722523Y-2400999I30983J0D01*
G75*
G01*
X4802520Y-2400999D02*
G02*
X4833503Y-2431981I0J-30982D01*
G75*
G01
X5403850Y-2578075D02*
G03X5403850Y-2578075I-6350J0D01*
M02*
