G04 Layer: TopLayer*
G04 EasyEDA v6.5.46, 2024-09-05 17:20:12*
G04 40de067d3049435e91e5d68b14a7b093,40d518a219da4ee2a43a6f8a03234e12,10*
G04 Gerber Generator version 0.2*
G04 Scale: 100 percent, Rotated: No, Reflected: No *
G04 Dimensions in millimeters *
G04 leading zeros omitted , absolute positions ,4 integer and 5 decimal *
%FSLAX45Y45*%
%MOMM*%

%AMMACRO1*21,1,$1,$2,0,0,$3*%
%ADD10C,0.2540*%
%ADD11C,0.3000*%
%ADD12R,0.7501X0.3000*%
%ADD13R,0.9000X0.8000*%
%ADD14MACRO1,1X1.3995X0.0000*%
%ADD15R,1.0000X1.3995*%
%ADD16MACRO1,0.864X0.8065X0.0000*%
%ADD17R,0.8640X0.8065*%
%ADD18R,0.5000X0.2800*%
%ADD19R,0.3000X0.4500*%
%ADD20R,0.3000X0.3000*%
%ADD21C,0.8080*%
%ADD22C,0.6096*%

%LPD*%
D10*
X6515100Y-1384300D02*
G01*
X6540500Y-1384300D01*
X5899150Y-2565400D02*
G01*
X5270500Y-2587294D01*
X5152542Y-2577287D02*
G01*
X5152542Y-2527300D01*
X5205501Y-2577287D02*
G01*
X5152542Y-2577287D01*
X5205501Y-2527300D02*
G01*
X5162677Y-2527300D01*
X5162677Y-2527300D02*
G01*
X5152542Y-2527300D01*
X5152542Y-2527300D02*
G01*
X4892776Y-2527300D01*
X4835474Y-2469997D01*
X4762500Y-2469997D02*
G01*
X4835474Y-2469997D01*
X4343400Y-2477363D02*
G01*
X4682159Y-2477363D01*
X4689525Y-2469997D01*
X4762500Y-2469997D02*
G01*
X4689525Y-2469997D01*
X2010029Y-1981200D02*
G01*
X2088006Y-1981200D01*
X4762500Y-2610002D02*
G01*
X4689525Y-2610002D01*
X5335498Y-2527300D02*
G01*
X5388483Y-2527300D01*
X2088006Y-1981200D02*
G01*
X2508707Y-2401900D01*
X4268774Y-2401900D01*
X4689525Y-2610002D02*
G01*
X4625314Y-2545791D01*
X4286758Y-2545791D01*
X4268774Y-2527807D01*
X4268774Y-2401900D01*
X4268774Y-2401900D02*
G01*
X5344236Y-2401900D01*
X5395264Y-2452928D01*
X5395264Y-2520518D01*
X5388483Y-2527300D01*
X4343400Y-2628036D02*
G01*
X2485796Y-2628036D01*
X1877948Y-2020188D01*
X1877948Y-1981200D01*
X1799970Y-1981200D02*
G01*
X1877948Y-1981200D01*
X6273800Y-2438400D02*
G01*
X6232804Y-2438400D01*
X6216294Y-2421889D01*
X6216294Y-371906D01*
X6216395Y-369443D01*
X6216700Y-366979D01*
X6217208Y-364566D01*
X6217894Y-362204D01*
X6218809Y-359918D01*
X6219875Y-357682D01*
X6221145Y-355574D01*
X6222568Y-353568D01*
X6224143Y-351662D01*
X6225895Y-349910D01*
X6227775Y-348310D01*
X6229756Y-346862D01*
X6231890Y-345592D01*
X6234099Y-344500D01*
X6236385Y-343585D01*
X6238747Y-342874D01*
X6241161Y-342341D01*
X6243599Y-342036D01*
X6246063Y-341909D01*
X6246291Y-341909D01*
X5388483Y-2577287D02*
G01*
X5446775Y-2635580D01*
X5904687Y-2635580D01*
X5335498Y-2577287D02*
G01*
X5388483Y-2577287D01*
D11*
X8236305Y-4631893D02*
G01*
X8236305Y-371906D01*
X8296300Y-4631893D02*
G01*
X8296300Y-371906D01*
X8356295Y-4631893D02*
G01*
X8356295Y-371906D01*
X8416290Y-4631893D02*
G01*
X8416290Y-371906D01*
X8476284Y-4631893D02*
G01*
X8476284Y-371906D01*
X6246291Y-4661890D02*
G01*
X8206308Y-4661890D01*
X6246291Y-4721885D02*
G01*
X8206308Y-4721885D01*
X6246291Y-4781905D02*
G01*
X8206308Y-4781905D01*
X6246291Y-4841900D02*
G01*
X8206308Y-4841900D01*
X6246291Y-4901895D02*
G01*
X8206308Y-4901895D01*
X6246291Y-341909D02*
G01*
X8206308Y-341909D01*
X6246291Y-281914D02*
G01*
X8206308Y-281914D01*
X6246291Y-221894D02*
G01*
X8206308Y-221894D01*
X6246291Y-161899D02*
G01*
X8206308Y-161899D01*
X6246291Y-101904D02*
G01*
X8206308Y-101904D01*
X6216294Y-4631893D02*
G01*
X6216294Y-2501900D01*
X6156299Y-2441905D01*
X6156299Y-371906D01*
X6096304Y-4631893D02*
G01*
X6096304Y-2541904D01*
X6036309Y-2481910D01*
X6036309Y-371906D01*
X6156299Y-4631893D02*
G01*
X6156299Y-2521889D01*
X6096304Y-2461895D01*
X6096304Y-371906D01*
X6036309Y-4631893D02*
G01*
X6036309Y-2561894D01*
X5976289Y-2501900D01*
X5976289Y-371906D01*
X6216294Y-371906D02*
G01*
X6216294Y-2421889D01*
X6232804Y-2438400D01*
X6273800Y-2438400D01*
X5880100Y-2565400D02*
G01*
X5892800Y-2565400D01*
X5959805Y-2565400D01*
X5976289Y-2581910D01*
X5976289Y-4631893D01*
D12*
G01*
X5892800Y-2565400D03*
D13*
G01*
X4762500Y-2469997D03*
G01*
X4762500Y-2610002D03*
D14*
G01*
X2010029Y-1981200D03*
D15*
G01*
X1799970Y-1981200D03*
D16*
G01*
X4343400Y-2477375D03*
D17*
G01*
X4343400Y-2628036D03*
D18*
G01*
X5335498Y-2577287D03*
G01*
X5335498Y-2527300D03*
G01*
X5335498Y-2477312D03*
D19*
G01*
X5270500Y-2467305D03*
D18*
G01*
X5205501Y-2477287D03*
G01*
X5205501Y-2527300D03*
G01*
X5205501Y-2577287D03*
D19*
G01*
X5270500Y-2587294D03*
D20*
G01*
X5270500Y-2527300D03*
D11*
G75*
G01*
X6216294Y-371907D02*
G02*
X6246292Y-341909I29998J0D01*
G75*
G01*
X6156300Y-371907D02*
G02*
X6246292Y-281915I89992J0D01*
G75*
G01*
X6096305Y-371907D02*
G02*
X6246292Y-221894I149987J26D01*
G75*
G01*
X6036310Y-371907D02*
G02*
X6246292Y-161900I210007J0D01*
G75*
G01*
X5976290Y-371907D02*
G02*
X6246292Y-101905I270002J0D01*
G75*
G01*
X6216294Y-4631893D02*
G03*
X6246292Y-4661891I29998J0D01*
G75*
G01*
X6156300Y-4631893D02*
G03*
X6246292Y-4721885I89992J0D01*
G75*
G01*
X6096305Y-4631893D02*
G03*
X6246292Y-4781906I149987J-26D01*
G75*
G01*
X6036310Y-4631893D02*
G03*
X6246292Y-4841900I210007J0D01*
G75*
G01*
X5976290Y-4631893D02*
G03*
X6246292Y-4901895I270002J0D01*
G75*
G01*
X8236306Y-4631893D02*
G02*
X8206308Y-4661891I-29998J0D01*
G75*
G01*
X8296300Y-4631893D02*
G02*
X8206308Y-4721885I-89992J0D01*
G75*
G01*
X8356295Y-4631893D02*
G02*
X8206308Y-4781906I-149987J-26D01*
G75*
G01*
X8416290Y-4631893D02*
G02*
X8206308Y-4841900I-210007J0D01*
G75*
G01*
X8476310Y-4631893D02*
G02*
X8206308Y-4901895I-270002J0D01*
G75*
G01*
X8236306Y-371907D02*
G03*
X8206308Y-341909I-29998J0D01*
G75*
G01*
X8296300Y-371907D02*
G03*
X8206308Y-281915I-89992J0D01*
G75*
G01*
X8356295Y-371907D02*
G03*
X8206308Y-221894I-149987J26D01*
G75*
G01*
X8416290Y-371907D02*
G03*
X8206308Y-161900I-210007J0D01*
G75*
G01*
X8476310Y-371907D02*
G03*
X8206308Y-101905I-270002J0D01*
D21*
G01*
X6273800Y-2438400D03*
D22*
G01*
X5904687Y-2635580D03*
M02*
